<?xml version="1.0" standalone="no"?>
<!DOCTYPE svg PUBLIC "-//W3C//DTD SVG 20010904//EN"
 "http://www.w3.org/TR/2001/REC-SVG-20010904/DTD/svg10.dtd">
<svg version="1.0" xmlns="http://www.w3.org/2000/svg"
 width="1204.000000pt" height="1280.000000pt" viewBox="0 0 1204.000000 1280.000000"
 preserveAspectRatio="xMidYMid meet">
<metadata>
Created by potrace 1.15, written by Peter Selinger 2001-2017
</metadata>
<g transform="translate(0.000000,1280.000000) scale(0.100000,-0.100000)"
fill="#000000" stroke="none">
<path d="M2208 12785 c-112 -61 -102 -410 26 -874 18 -66 29 -118 25 -116 -26
17 -229 538 -229 590 0 22 -16 18 -38 -10 -80 -102 -37 -431 119 -903 22 -68
39 -125 37 -127 -2 -2 -21 40 -43 93 -158 392 -243 593 -248 585 -14 -23 -18
-146 -8 -231 24 -198 134 -542 270 -852 28 -62 49 -115 48 -117 -3 -3 -168
300 -266 490 -41 77 -63 112 -67 102 -13 -32 5 -291 25 -385 27 -122 98 -329
155 -455 25 -55 43 -101 41 -104 -12 -11 -506 310 -700 457 -304 229 -502 427
-582 586 -22 43 -27 47 -35 32 -19 -33 -12 -244 10 -332 68 -270 297 -550 627
-767 50 -32 92 -60 94 -63 14 -13 -258 86 -389 142 -206 90 -358 181 -452 272
l-57 55 -7 -38 c-18 -96 20 -250 89 -357 128 -200 408 -387 777 -519 120 -43
118 -45 -29 -23 -331 48 -594 136 -731 245 l-53 42 7 -47 c18 -116 106 -269
208 -361 194 -176 485 -282 903 -331 l60 -7 -90 -15 c-121 -21 -604 -23 -688
-4 -32 8 -61 11 -65 7 -3 -3 3 -22 13 -41 79 -147 410 -242 983 -285 90 -7
158 -16 150 -20 -21 -12 -216 -66 -318 -88 -146 -32 -217 -41 -317 -41 -53 0
-93 -4 -93 -10 0 -18 70 -80 118 -104 63 -31 155 -54 277 -67 116 -13 486 -6
612 11 45 7 90 10 99 8 17 -3 -537 -228 -599 -244 -35 -8 -24 -17 48 -38 163
-47 445 -46 780 3 163 25 158 26 70 -16 -44 -22 -189 -88 -322 -148 -273 -123
-269 -117 -127 -157 68 -19 103 -22 254 -21 186 0 359 20 594 68 66 14 121 24
122 22 5 -5 -253 -189 -391 -280 -71 -47 -165 -103 -208 -125 l-78 -39 57 -12
c119 -23 323 -7 527 42 53 14 97 22 97 20 0 -2 -14 -18 -30 -36 -36 -38 -74
-113 -92 -179 -16 -62 1 -167 40 -246 52 -108 185 -225 328 -288 141 -62 342
-112 544 -134 58 -6 119 -14 136 -16 l31 -4 6 -98 c23 -347 -3 -479 -106 -543
-159 -97 -341 -262 -442 -399 -114 -156 -187 -354 -203 -554 l-7 -80 -70 -17
c-229 -56 -463 -206 -715 -459 -156 -155 -281 -306 -429 -515 l-92 -130 -142
-12 c-324 -27 -568 -125 -887 -356 -78 -56 -179 -128 -223 -161 -45 -32 -120
-77 -167 -100 -83 -40 -87 -41 -185 -40 -55 1 -158 5 -230 9 -119 6 -135 5
-188 -15 -76 -29 -110 -59 -144 -128 -26 -52 -28 -66 -27 -162 1 -78 8 -132
28 -210 14 -58 31 -148 38 -201 11 -97 11 -99 -23 -410 -14 -125 -1 -338 24
-385 8 -16 20 -42 26 -57 6 -16 19 -31 29 -34 9 -2 26 -19 38 -36 15 -23 27
-32 46 -30 21 1 28 -6 47 -52 39 -94 88 -113 145 -56 30 31 31 33 28 113 -2
75 2 94 54 251 30 93 62 207 70 253 23 134 54 190 194 359 46 55 103 130 127
167 35 55 50 69 81 78 60 17 284 48 462 64 356 32 476 39 765 40 l300 1 110
38 c259 91 628 261 860 397 128 75 580 372 716 471 l57 41 233 -168 c349 -250
582 -420 799 -586 225 -170 256 -196 250 -201 -3 -2 -48 -16 -100 -31 -198
-58 -428 -159 -554 -245 -80 -54 -172 -136 -281 -251 -283 -298 -491 -432
-816 -525 -116 -33 -163 -64 -203 -135 -28 -50 -31 -63 -31 -145 0 -105 -1
-101 121 -355 61 -126 98 -216 105 -255 8 -41 9 -152 4 -345 -6 -280 -6 -287
18 -377 15 -58 39 -117 66 -161 26 -44 41 -80 41 -103 1 -44 32 -114 58 -128
54 -29 114 -1 127 60 4 19 13 29 24 29 22 0 45 26 58 65 7 20 18 31 40 37 22
6 35 18 49 50 10 24 26 49 35 55 21 16 29 58 37 218 5 98 12 138 26 164 14 27
18 54 17 131 -1 82 4 113 34 213 33 113 57 228 72 352 l8 60 440 176 c242 97
613 245 825 328 212 84 410 167 440 184 91 52 241 170 319 252 114 121 245
337 296 490 76 228 51 537 -65 828 -82 205 -210 413 -554 905 -126 180 -273
391 -327 469 l-98 142 62 44 c284 203 550 631 638 1029 26 115 37 371 20 457
-11 53 -10 62 9 93 53 91 120 369 120 502 0 28 4 36 18 36 9 0 105 7 212 16
l195 16 335 110 335 111 120 -11 c66 -7 164 -12 217 -12 96 0 98 -1 135 -32
20 -18 34 -26 31 -18 -3 8 -9 23 -13 33 -6 14 -1 17 31 17 158 0 399 77 829
265 448 196 443 195 558 175 112 -19 359 -24 492 -10 109 12 109 12 128 -11
99 -122 220 -441 248 -654 50 -381 -159 -838 -636 -1390 -206 -239 -246 -290
-333 -420 -48 -72 -113 -178 -146 -237 -32 -60 -61 -106 -65 -103 -4 2 -20 34
-36 70 -15 36 -29 64 -31 62 -2 -2 10 -38 27 -80 30 -74 31 -78 15 -111 -32
-68 -12 -143 45 -166 94 -39 191 19 175 105 -7 36 -29 60 -46 50 -5 -3 -10
-12 -10 -20 0 -20 -28 -45 -50 -45 -11 0 -24 9 -30 21 -20 37 56 174 212 385
121 162 189 237 427 474 125 124 257 263 295 310 353 443 478 889 387 1380
-44 236 -84 342 -176 466 -13 18 -13 24 -1 50 19 39 10 81 -22 98 -24 13 -25
14 -5 20 23 7 43 45 43 82 0 26 -40 74 -62 74 -7 0 -3 7 9 15 24 17 39 71 29
110 -3 13 -18 31 -33 38 l-26 14 49 11 c27 6 130 28 229 47 99 20 357 72 573
116 216 43 396 79 400 79 4 0 6 -17 4 -39 -3 -32 0 -42 24 -60 42 -33 68 -21
169 78 50 49 107 100 128 113 l37 25 -55 6 c-30 3 -102 24 -159 46 -58 23
-109 41 -114 41 -5 0 -21 -9 -36 -21 -30 -23 -33 -56 -11 -99 17 -33 22 -29
-75 -50 -30 -7 -100 -23 -155 -35 -89 -21 -283 -66 -670 -155 -66 -15 -163
-37 -215 -49 -52 -12 -104 -24 -115 -28 -19 -5 -19 -5 -2 14 26 30 22 85 -9
114 -22 21 -36 24 -107 26 l-81 2 3 50 c1 28 18 101 38 163 59 187 57 383 -7
656 -40 169 -120 313 -249 445 -130 135 -240 209 -591 402 -254 139 -379 219
-503 324 -192 160 -427 415 -427 462 0 32 52 25 78 -11 13 -16 27 -30 32 -30
16 0 12 78 -6 111 -15 29 -65 59 -100 59 -30 0 -80 -30 -97 -59 -30 -52 -21
-107 28 -161 l22 -25 -19 -95 c-24 -124 -50 -257 -88 -460 -17 -91 -35 -185
-40 -210 -5 -25 -23 -119 -40 -210 -17 -91 -35 -185 -40 -210 -5 -25 -28 -142
-50 -260 -22 -118 -45 -235 -50 -260 -5 -25 -23 -119 -40 -210 -17 -91 -37
-196 -45 -235 -7 -38 -26 -135 -40 -215 -42 -225 -44 -231 -88 -246 -20 -7
-82 -34 -137 -60 l-100 -47 -57 26 c-118 52 -377 102 -717 138 -139 14 -223
28 -272 45 -218 73 -407 179 -461 259 -30 43 -33 54 -33 120 0 79 27 176 71
256 l24 44 95 12 c52 6 129 12 170 12 205 3 308 84 329 259 12 94 18 109 73
168 36 39 40 47 34 79 -4 21 -23 52 -45 75 l-38 40 52 0 c42 0 56 5 74 24 19
20 22 32 17 63 -18 107 -18 153 -2 178 9 14 53 42 101 65 62 29 89 48 100 70
30 57 21 78 -64 159 -44 42 -84 86 -91 99 -20 40 -40 171 -40 259 0 77 3 91
32 147 32 60 33 63 32 191 -1 150 -18 233 -85 401 l-42 105 20 22 c32 35 79
108 111 173 52 103 73 181 79 294 6 116 -4 185 -38 275 l-23 60 -7 -72 c-12
-131 -83 -244 -202 -325 -55 -37 -187 -101 -195 -94 -1 2 4 16 13 32 48 93 17
174 -94 245 -54 35 -61 36 -61 8 0 -36 -30 -127 -51 -153 -36 -45 -54 -39
-242 86 -173 115 -235 143 -322 144 -38 1 -83 7 -98 13 -16 6 -44 11 -62 11
-34 0 -141 -35 -160 -51 -16 -16 -31 -10 -68 25 -20 19 -63 47 -94 63 -55 26
-66 28 -188 28 -151 0 -174 -8 -307 -101 -88 -61 -171 -104 -204 -104 -33 0
-44 21 -56 114 -11 81 -13 85 -25 62 -18 -35 -43 -144 -43 -192 l0 -41 -57
-12 c-87 -19 -166 -66 -233 -138 -50 -53 -100 -127 -100 -147 0 -3 28 8 63 24
73 33 198 73 205 65 6 -6 -18 -34 -149 -170 -110 -113 -115 -124 -129 -287 -6
-77 -13 -108 -29 -129 -12 -16 -21 -40 -21 -55 0 -15 25 -100 55 -189 30 -90
55 -180 55 -201 0 -21 -10 -88 -22 -150 -25 -128 -20 -164 32 -229 35 -45 39
-90 11 -151 -39 -86 -127 -154 -200 -154 -28 0 -32 -2 -21 -15 6 -7 35 -25 63
-40 57 -28 135 -33 213 -14 25 6 48 9 51 5 11 -10 -13 -195 -32 -252 -25 -76
-81 -144 -143 -175 l-52 -26 39 -11 c59 -18 160 -15 206 7 47 22 95 71 122
125 l19 38 27 -31 c48 -58 56 -136 30 -311 l-6 -45 44 36 c25 20 57 61 73 92
24 46 28 68 29 134 l0 78 31 -65 c26 -56 31 -76 30 -145 0 -73 -4 -88 -39
-159 -88 -179 -335 -373 -518 -406 -101 -19 -174 17 -256 129 -73 99 -141 246
-176 380 l-16 62 36 117 c39 127 65 268 65 347 0 72 -25 179 -58 249 -61 128
-132 194 -517 475 -470 344 -544 422 -678 716 -100 220 -238 592 -348 938 -35
108 -66 197 -69 197 -3 -1 -17 -7 -32 -15z m6378 -1726 c186 -190 330 -307
588 -481 289 -196 411 -289 535 -411 246 -241 350 -475 350 -787 1 -109 -13
-190 -55 -322 l-37 -117 -83 -35 c-45 -20 -106 -41 -135 -47 -75 -16 -116 -39
-206 -115 -117 -98 -115 -98 -268 -90 -71 3 -170 10 -220 16 -387 44 -754 29
-998 -41 -22 -6 -41 -8 -44 -5 -3 3 9 83 26 178 85 474 154 861 201 1123 28
160 73 412 100 560 27 149 65 366 86 483 21 116 39 212 39 212 1 0 55 -54 121
-121z"/>
<path d="M8213 7503 c7 -16 222 -476 478 -1025 255 -548 465 -995 467 -993 7
7 -344 842 -504 1195 -126 278 -309 639 -383 753 -63 97 -83 121 -58 70z"/>
</g>
</svg>
