<?xml version="1.0" standalone="no"?>
<!DOCTYPE svg PUBLIC "-//W3C//DTD SVG 20010904//EN"
 "http://www.w3.org/TR/2001/REC-SVG-20010904/DTD/svg10.dtd">
<svg version="1.0" xmlns="http://www.w3.org/2000/svg"
 width="1280.000000pt" height="1234.000000pt" viewBox="0 0 1280.000000 1234.000000"
 preserveAspectRatio="xMidYMid meet">
<metadata>
Created by potrace 1.15, written by Peter Selinger 2001-2017
</metadata>
<g transform="translate(0.000000,1234.000000) scale(0.100000,-0.100000)"
fill="#000000" stroke="none">
<path d="M6305 12326 c-113 -30 -206 -88 -333 -210 -677 -649 -2504 -3670
-3862 -6386 -829 -1657 -1278 -2763 -1391 -3420 -7 -41 -13 -140 -14 -220 0
-169 18 -245 83 -346 146 -226 414 -237 673 -28 44 35 84 62 89 59 5 -3 12 0
16 6 5 8 3 10 -7 4 -8 -4 13 20 46 54 33 33 62 61 64 61 3 0 -18 -24 -47 -53
-49 -50 -51 -53 -32 -65 11 -6 28 -12 37 -12 27 1 115 50 170 95 81 66 258
249 383 396 30 35 61 71 70 79 8 8 40 44 70 80 30 36 61 72 70 80 8 8 35 40
60 70 25 30 52 62 60 70 8 8 44 49 80 90 36 41 72 82 80 90 8 8 44 49 80 90
36 41 76 86 90 100 14 14 63 68 110 119 250 279 703 732 950 951 47 41 96 86
110 100 14 14 50 45 80 70 30 25 62 52 70 60 8 8 40 35 70 60 30 25 57 47 60
50 3 3 25 21 50 40 25 19 47 37 50 40 3 3 25 21 50 40 25 19 47 37 50 40 3 3
21 17 40 30 19 13 37 27 40 30 3 3 21 17 40 30 19 13 37 27 40 30 3 3 34 26
70 51 36 24 67 47 70 50 3 4 55 38 115 78 61 39 115 74 120 79 16 12 185 112
245 145 30 17 73 41 95 54 91 52 299 149 430 200 50 19 99 39 110 43 22 10
133 46 180 59 183 51 276 71 495 103 110 16 554 15 680 -1 277 -35 507 -88
795 -183 50 -16 99 -33 110 -38 11 -4 36 -13 55 -20 19 -7 54 -21 77 -31 24
-11 47 -19 51 -19 5 0 22 -6 38 -14 16 -8 47 -22 69 -31 116 -50 436 -207 520
-255 22 -13 60 -34 85 -48 100 -56 365 -217 368 -224 2 -5 8 -8 13 -8 8 0 386
-248 413 -272 6 -5 65 -47 131 -94 66 -46 127 -90 135 -97 8 -7 31 -23 50 -37
19 -13 37 -27 40 -30 3 -3 21 -17 40 -30 19 -13 37 -27 40 -30 3 -3 21 -17 40
-30 19 -13 37 -27 40 -30 3 -3 21 -17 40 -30 19 -13 37 -27 40 -30 3 -3 43
-35 90 -70 47 -36 87 -67 90 -70 3 -3 21 -17 40 -30 19 -13 41 -30 48 -37 7
-7 26 -20 42 -30 17 -9 30 -20 30 -24 0 -4 14 -12 30 -19 17 -7 30 -16 30 -21
0 -4 9 -11 20 -14 11 -3 26 -12 33 -19 26 -26 183 -94 230 -100 32 -4 63 0 95
11 33 11 85 16 177 17 124 1 133 2 195 32 164 78 254 224 281 450 63 534 -484
1835 -1494 3554 -729 1241 -1649 2581 -2366 3445 -614 740 -1057 1137 -1396
1250 -96 33 -242 42 -320 21z m4955 -8731 c19 -7 28 -14 20 -14 -8 0 -28 6
-45 14 -39 17 -21 18 25 0z"/>
</g>
</svg>
