<?xml version="1.0" standalone="no"?>
<!DOCTYPE svg PUBLIC "-//W3C//DTD SVG 20010904//EN"
 "http://www.w3.org/TR/2001/REC-SVG-20010904/DTD/svg10.dtd">
<svg version="1.0" xmlns="http://www.w3.org/2000/svg"
 width="885.000000pt" height="1280.000000pt" viewBox="0 0 885.000000 1280.000000"
 preserveAspectRatio="xMidYMid meet">
<metadata>
Created by potrace 1.15, written by Peter Selinger 2001-2017
</metadata>
<g transform="translate(0.000000,1280.000000) scale(0.100000,-0.100000)"
fill="#000000" stroke="none">
<path d="M4351 12633 c-314 -629 -1394 -2900 -2803 -5898 -1160 -2466 -1436
-3069 -1519 -3316 -32 -95 -35 -120 -18 -150 11 -22 95 -79 115 -79 20 0 558
565 3074 3230 870 922 1202 1270 1211 1270 21 0 943 -960 2199 -2290 1091
-1155 1597 -1686 1883 -1977 221 -224 229 -231 258 -223 54 16 99 50 99 75 0
113 -248 670 -1210 2725 -166 355 -400 854 -520 1110 -619 1321 -2087 4443
-2390 5080 -111 234 -220 464 -243 513 -22 48 -44 87 -49 87 -4 0 -43 -71 -87
-157z m78 -1518 c6 -517 11 -1409 11 -1981 l0 -1042 -422 -449 c-233 -247
-670 -712 -973 -1033 -1347 -1433 -2339 -2484 -2443 -2590 l-112 -115 39 85
c21 47 142 306 269 575 699 1490 880 1876 1195 2545 1181 2518 2154 4579 2338
4955 l74 150 7 -80 c3 -44 11 -503 17 -1020z"/>
<path d="M3030 1685 l0 -1685 220 0 220 0 0 1408 0 1407 23 -40 c13 -22 350
-655 748 -1407 l724 -1368 308 0 307 0 0 1685 0 1685 -220 0 -220 0 -2 -1407
-3 -1408 -745 1407 -745 1407 -307 1 -308 0 0 -1685z"/>
</g>
</svg>
