<?xml version="1.0" standalone="no"?>
<!DOCTYPE svg PUBLIC "-//W3C//DTD SVG 20010904//EN"
 "http://www.w3.org/TR/2001/REC-SVG-20010904/DTD/svg10.dtd">
<svg version="1.0" xmlns="http://www.w3.org/2000/svg"
 width="1280.000000pt" height="853.000000pt" viewBox="0 0 1280.000000 853.000000"
 preserveAspectRatio="xMidYMid meet">
<metadata>
Created by potrace 1.15, written by Peter Selinger 2001-2017
</metadata>
<g transform="translate(0.000000,853.000000) scale(0.100000,-0.100000)"
fill="#000000" stroke="none">
<path d="M4023 7471 c-10 -17 -23 -31 -29 -31 -6 0 -19 -9 -29 -20 -10 -11
-24 -20 -31 -20 -8 0 -26 -14 -41 -30 -17 -20 -33 -28 -44 -25 -14 5 -23 -4
-38 -34 -12 -22 -40 -60 -63 -86 -65 -69 -67 -72 -61 -79 4 -3 -1 -6 -9 -6 -9
0 -30 -16 -48 -36 -25 -29 -29 -39 -18 -45 10 -7 9 -9 -4 -9 -10 0 -18 -4 -18
-10 0 -5 -7 -10 -15 -10 -8 0 -29 -17 -47 -37 -18 -20 -57 -63 -87 -95 -30
-32 -60 -66 -67 -76 -6 -9 -41 -48 -78 -86 -36 -38 -63 -72 -61 -76 2 -4 -7
-13 -20 -20 -14 -7 -25 -19 -25 -26 0 -7 -9 -16 -20 -19 -11 -3 -23 -17 -26
-30 -3 -13 -15 -26 -26 -28 -14 -4 -19 -11 -14 -22 3 -9 2 -13 -4 -10 -6 4
-25 -10 -43 -31 -17 -21 -56 -62 -84 -92 -29 -30 -53 -58 -53 -62 0 -12 -44
-57 -63 -63 -10 -4 -15 -12 -11 -18 3 -6 0 -15 -7 -20 -10 -6 -11 -9 -1 -9 6
0 12 -4 12 -8 0 -5 -14 -7 -31 -6 -24 2 -29 -1 -25 -13 5 -11 1 -14 -13 -10
-12 3 -27 -3 -37 -14 -16 -18 -15 -19 12 -31 l29 -12 -26 -3 c-17 -3 -29 -12
-32 -25 -3 -11 -10 -17 -15 -14 -5 3 -15 -1 -22 -10 -7 -8 -19 -13 -26 -10 -7
3 -20 -7 -30 -22 -10 -15 -25 -33 -33 -40 -14 -11 -11 -13 16 -9 26 3 30 1 22
-10 -7 -7 -18 -13 -25 -13 -8 0 -14 -7 -14 -15 0 -18 -12 -19 -27 -4 -7 7 -17
1 -34 -23 -13 -18 -27 -35 -31 -38 -4 -3 -9 -17 -10 -30 -2 -14 -10 -31 -18
-38 -13 -12 -13 -13 3 -8 22 7 23 -10 0 -18 -9 -4 -20 -1 -24 6 -4 7 -10 10
-12 8 -50 -52 -76 -94 -67 -105 8 -9 6 -18 -6 -30 -13 -12 -19 -13 -24 -4 -11
18 -30 1 -51 -45 -10 -22 -22 -39 -26 -37 -4 2 -13 -6 -19 -18 -6 -12 -21 -29
-33 -37 -11 -8 -21 -19 -21 -23 0 -5 -18 -28 -40 -52 -21 -24 -38 -45 -36 -47
2 -1 -10 -16 -26 -32 -16 -17 -27 -34 -23 -40 3 -5 1 -10 -6 -10 -7 0 -28 -17
-48 -37 -34 -37 -37 -42 -40 -63 0 -5 -7 -10 -14 -10 -7 0 -18 -9 -25 -20 -7
-12 -17 -18 -23 -15 -6 4 -7 -5 -4 -24 4 -26 2 -31 -15 -31 -29 0 -72 -30 -66
-46 3 -8 -1 -14 -9 -14 -17 0 -61 -60 -57 -77 2 -8 -3 -10 -13 -7 -8 3 -15 1
-15 -5 0 -6 -7 -11 -15 -11 -17 0 -35 -38 -28 -57 3 -7 -3 -10 -16 -6 -17 4
-20 2 -15 -11 4 -11 1 -16 -12 -16 -19 -1 -54 -22 -54 -34 0 -3 7 -6 16 -6 8
0 13 -4 9 -10 -3 -5 -15 -6 -28 -1 -15 6 -32 3 -52 -7 -16 -8 -43 -17 -60 -19
-16 -2 -38 -12 -49 -22 -15 -16 -23 -17 -42 -9 -19 9 -28 8 -42 -5 -22 -20
-45 -22 -71 -5 -15 9 -22 8 -36 -6 -9 -9 -14 -24 -11 -33 5 -13 4 -14 -9 -3
-9 7 -18 10 -22 6 -3 -3 -1 -6 5 -6 7 0 12 -6 12 -13 0 -13 76 -41 90 -32 4 3
10 -2 14 -10 3 -8 15 -15 26 -15 30 0 60 -18 60 -35 0 -13 17 -20 41 -17 4 1
14 -7 22 -16 15 -16 13 -21 -14 -61 -16 -24 -27 -46 -24 -49 3 -3 0 -12 -7
-19 -9 -11 -9 -17 3 -23 17 -11 0 -45 -22 -45 -17 0 -41 -43 -33 -57 4 -6 -5
-8 -22 -6 -22 2 -30 -2 -32 -17 -3 -11 -9 -23 -14 -26 -22 -14 3 -27 36 -19
43 10 56 18 56 36 0 8 3 14 6 14 4 0 81 -34 171 -76 176 -81 623 -258 631
-250 4 5 -33 23 -95 46 -18 7 -33 16 -33 20 0 8 -38 23 -52 21 -5 -1 -8 4 -8
10 0 8 -6 7 -17 -2 -9 -8 -14 -9 -10 -3 9 15 -13 31 -40 28 -12 0 -20 3 -17 8
3 5 -3 12 -15 15 -11 3 -18 10 -14 16 4 6 0 8 -10 4 -10 -4 -17 -2 -17 4 0 6
-7 8 -16 5 -8 -3 -12 -2 -9 4 3 6 -3 10 -15 10 -14 0 -19 -4 -14 -12 4 -8 3
-10 -2 -5 -9 8 -10 12 -13 38 0 6 -8 9 -16 5 -8 -3 -15 0 -15 6 0 6 -8 4 -19
-6 -18 -16 -19 -16 -25 10 -5 20 -12 25 -26 21 -11 -3 -20 -1 -20 4 0 5 -5 9
-11 9 -5 0 -7 -4 -4 -10 3 -5 2 -10 -3 -10 -6 0 -13 11 -16 25 -4 14 -11 25
-17 25 -6 0 -8 -8 -5 -17 5 -14 2 -13 -11 3 -11 12 -28 21 -41 19 -15 -1 -21
3 -18 11 7 18 -4 25 -25 13 -15 -8 -17 -6 -12 7 4 12 3 15 -5 10 -8 -5 -12 0
-12 13 0 15 -6 21 -21 21 -14 0 -19 -5 -16 -14 6 -15 -10 -26 -29 -19 -18 6
27 83 49 83 10 0 26 -13 35 -30 11 -19 38 -40 72 -56 89 -42 134 -63 150 -69
8 -3 42 -20 75 -39 33 -18 66 -31 75 -29 13 4 13 4 0 -7 -12 -10 -11 -11 8 -7
13 3 21 3 18 0 -11 -11 142 -86 157 -76 5 3 7 1 4 -4 -8 -13 29 -39 67 -49 14
-3 26 -10 26 -14 0 -5 9 -12 20 -15 11 -3 20 -13 20 -20 0 -9 6 -12 15 -9 8 4
27 -2 43 -12 57 -38 141 -73 146 -61 2 7 5 4 5 -5 1 -10 6 -18 11 -18 19 0 25
-2 37 -12 7 -5 18 -6 24 -2 7 4 9 3 6 -3 -8 -13 11 -30 37 -35 11 -1 30 -13
44 -25 13 -12 27 -22 31 -21 29 3 51 -5 56 -23 6 -18 12 -20 42 -14 32 6 34 5
28 -15 -5 -16 -2 -23 14 -27 12 -3 21 -9 21 -14 0 -5 9 -9 19 -9 11 0 23 -9
26 -21 5 -15 10 -18 18 -10 16 16 30 14 23 -4 -3 -10 1 -15 14 -15 10 0 21 -4
25 -10 3 -5 13 -6 23 -3 9 3 14 3 10 -2 -9 -9 71 -75 90 -75 7 0 10 -5 7 -10
-3 -6 4 -14 17 -20 13 -5 41 -21 63 -34 72 -44 96 -55 111 -49 9 3 21 -3 30
-16 10 -13 26 -21 45 -21 19 0 29 -5 29 -15 0 -9 9 -15 25 -15 14 0 25 -6 25
-13 0 -7 16 -21 36 -30 27 -13 40 -15 56 -6 17 9 23 8 30 -5 5 -8 8 -19 8 -22
-3 -14 25 -22 43 -12 13 7 17 7 13 0 -6 -11 44 -52 63 -52 6 0 18 -11 27 -25
9 -14 25 -25 35 -25 11 0 19 -3 19 -7 0 -5 14 -17 30 -28 16 -11 30 -28 30
-37 0 -10 7 -18 15 -18 8 0 15 -4 15 -9 0 -6 11 -22 25 -37 14 -15 25 -33 25
-40 0 -8 7 -14 16 -14 8 0 13 -4 10 -9 -3 -5 4 -21 16 -36 16 -20 23 -24 29
-13 7 10 9 10 9 0 0 -7 6 -12 13 -11 30 4 38 -1 28 -19 -7 -13 -3 -30 14 -65
14 -26 22 -53 19 -61 -3 -8 -1 -17 4 -20 5 -3 8 -21 7 -39 -2 -27 5 -43 35
-76 25 -28 45 -41 57 -39 10 2 17 10 16 16 -6 26 33 10 46 -19 7 -17 28 -39
45 -50 36 -22 36 -22 55 -10 12 8 10 16 -13 45 -32 43 -72 130 -79 173 -3 17
-10 46 -15 64 -31 98 -47 198 -38 230 9 33 9 34 16 9 7 -22 8 -22 9 -4 1 28
-8 35 -30 23 -15 -7 -17 -6 -13 6 4 8 12 15 19 15 8 0 17 5 21 12 5 8 2 9 -11
5 -14 -6 -17 -3 -13 18 3 13 1 22 -3 19 -5 -3 -9 -15 -9 -27 0 -16 -3 -18 -12
-9 -10 10 -10 17 0 32 6 11 12 30 12 42 1 21 2 21 11 6 5 -10 16 -18 24 -18
13 0 20 -18 41 -105 3 -11 13 -40 24 -65 10 -25 30 -90 46 -145 15 -55 31
-104 36 -110 14 -16 9 -31 -11 -31 -11 0 -18 4 -15 7 6 10 -46 65 -58 61 -6
-2 -8 4 -5 13 4 8 1 15 -5 15 -13 0 -3 -87 12 -105 5 -6 6 -15 2 -20 -4 -4 13
-4 38 0 25 4 55 8 68 9 26 1 27 4 6 27 -17 19 -11 39 12 39 17 0 15 29 -4 48
-7 8 -10 18 -7 23 4 5 -1 9 -10 9 -10 0 -13 4 -8 13 4 6 6 20 5 30 -2 11 3 17
14 17 16 0 16 1 -1 14 -16 12 -17 16 -6 30 7 9 10 16 5 16 -5 0 -10 17 -12 38
-1 20 -5 51 -8 67 -3 17 -8 50 -11 75 -2 25 -12 51 -21 59 -11 8 -13 15 -6 17
13 6 6 54 -8 54 -6 0 -8 6 -5 14 3 7 -1 23 -9 35 -11 16 -12 25 -4 41 6 11 7
26 3 33 -4 6 -6 22 -4 35 1 12 -2 22 -8 22 -6 0 -10 17 -9 38 1 32 -18 138
-38 212 -4 14 -8 41 -10 60 -4 56 -13 100 -24 136 -6 18 -10 41 -8 51 1 10 -1
23 -5 30 -10 16 -1 20 69 32 108 19 269 58 448 107 82 22 100 25 108 13 7 -11
11 -11 15 -1 2 6 11 12 19 12 9 0 12 -5 9 -10 -9 -15 20 -23 42 -12 22 12 43
5 43 -14 0 -17 19 -18 57 -3 15 6 61 11 101 11 40 1 75 5 78 10 3 4 10 6 15 3
5 -4 9 -2 9 3 0 5 19 9 43 9 23 0 60 3 82 6 22 4 57 9 77 13 21 3 41 10 44 15
3 6 14 7 25 4 11 -4 19 -2 19 5 0 8 10 9 30 5 16 -4 56 1 90 9 34 9 70 16 81
16 10 0 19 5 19 11 0 6 7 9 15 5 9 -3 24 3 35 14 11 11 16 20 10 20 -5 0 -10
5 -10 10 0 18 42 10 59 -12 19 -23 44 -17 34 8 -4 11 2 14 24 12 16 -1 34 1
40 5 6 4 16 1 22 -6 8 -11 56 -16 56 -7 0 1 12 3 27 4 15 0 33 7 40 15 11 12
10 13 -4 8 -10 -4 -18 -4 -18 0 0 7 32 32 42 33 4 0 5 -7 2 -15 -4 -8 -1 -16
5 -16 25 -3 30 -4 35 -10 5 -5 116 10 125 17 2 2 -2 11 -9 19 -12 14 -10 15
13 10 18 -5 27 -3 27 5 0 6 -9 14 -20 17 -12 3 -19 11 -17 17 4 13 77 19 77 6
0 -4 6 -7 13 -6 20 3 37 16 36 29 0 9 -2 8 -6 -1 -6 -15 -23 -6 -23 12 0 19
100 13 115 -8 13 -18 35 -22 35 -6 0 6 7 10 15 10 8 0 15 4 15 8 0 11 38 13
45 2 3 -6 16 -5 30 0 19 7 23 6 18 -6 -3 -10 1 -13 13 -11 31 4 41 15 43 42 1
14 2 39 3 55 2 29 8 34 37 30 9 -1 12 4 8 14 -5 12 0 14 24 9 22 -4 29 -2 27
8 -2 8 3 13 10 12 6 -2 12 1 12 7 0 5 6 7 14 4 9 -3 12 -12 9 -21 -4 -11 -3
-14 6 -9 7 4 24 5 39 1 26 -6 26 -7 8 -21 -11 -8 -16 -14 -12 -14 5 0 3 -6 -3
-14 -9 -11 -9 -16 0 -22 8 -5 9 -3 4 5 -5 10 4 11 41 5 60 -8 64 -11 33 -23
-13 -5 -19 -10 -12 -10 6 -1 19 -4 29 -8 11 -4 15 -3 11 4 -7 11 16 36 25 27
9 -9 117 -11 112 -2 -3 5 -17 7 -32 5 -27 -4 -76 29 -66 45 3 4 0 8 -5 8 -6 0
-11 -9 -11 -20 0 -25 -11 -25 -41 1 -19 16 -21 22 -9 29 8 5 19 6 25 3 5 -3 4
0 -2 8 -19 19 -16 26 9 25 16 -1 24 7 32 32 7 26 14 32 30 30 12 -2 20 -10 18
-17 -2 -8 2 -18 9 -22 14 -8 72 -1 109 14 14 6 34 11 45 12 11 1 29 4 40 8 11
4 38 9 60 12 100 12 115 16 115 35 0 10 5 22 12 26 7 4 8 3 4 -5 -4 -6 -1 -18
7 -26 13 -13 26 -11 104 16 48 17 93 35 99 40 11 9 68 -5 92 -24 8 -6 12 -6
12 2 0 6 -4 11 -10 11 -5 0 -10 5 -10 10 0 16 27 12 34 -6 8 -21 28 -7 21 16
-8 24 18 32 55 16 21 -9 48 -10 87 -5 31 4 60 6 65 3 4 -3 19 2 32 11 14 9 33
14 43 11 10 -3 33 -2 51 3 19 6 34 6 37 0 4 -5 11 -9 16 -9 6 0 7 5 4 10 -4 6
7 10 24 10 17 0 31 5 31 10 0 6 5 10 11 10 6 0 9 -6 6 -13 -3 -8 -1 -20 3 -28
7 -11 12 -10 29 5 12 11 29 16 41 13 14 -4 20 0 20 11 0 14 12 17 78 17 78 1
276 12 322 20 14 2 35 4 48 4 13 1 22 7 22 16 0 10 9 15 28 14 15 -1 40 3 55
10 16 6 33 9 38 5 5 -3 9 0 9 7 0 7 8 9 21 6 15 -4 19 -2 15 9 -4 9 3 18 18
23 24 10 26 16 26 91 1 74 -7 122 -21 131 -11 8 -9 13 9 29 l23 19 -30 19
c-23 14 -28 21 -19 30 9 9 7 16 -7 32 -18 19 -18 20 2 20 11 0 28 -9 38 -20
10 -11 13 -20 7 -20 -7 0 -12 -4 -12 -10 0 -5 7 -10 15 -10 9 0 15 -9 15 -22
0 -13 16 -43 35 -67 38 -48 41 -57 23 -64 -7 -3 -3 -6 10 -6 21 -1 33 -21 12
-21 -20 0 -9 -20 20 -35 29 -15 30 -15 30 7 0 19 -6 49 -23 113 -16 58 -41
115 -52 115 -8 0 -11 7 -8 19 3 10 -3 31 -12 45 -10 14 -13 26 -9 26 5 1 -1 9
-14 20 -13 11 -21 23 -19 27 8 13 -47 80 -60 76 -15 -5 -18 13 -3 22 10 6 4
31 -13 53 -10 13 -10 112 -1 121 4 5 44 -31 108 -96 17 -17 49 -46 71 -63 75
-60 155 -142 149 -152 -5 -7 -12 -5 -20 6 -7 10 -16 18 -21 18 -12 2 -73 52
-73 61 0 12 -27 37 -39 37 -6 0 -11 5 -11 11 0 5 -4 8 -9 5 -5 -4 -29 12 -52
34 -24 22 -39 40 -34 40 5 0 0 6 -10 14 -11 8 -23 12 -27 9 -9 -5 97 -106 182
-174 116 -93 190 -149 196 -149 3 0 -12 15 -34 33 -36 28 -54 57 -36 57 15 0
53 -27 90 -64 53 -52 71 -66 84 -66 5 0 10 -7 10 -15 0 -8 4 -15 10 -15 5 0
24 -13 42 -28 18 -16 41 -31 51 -35 9 -4 17 -12 17 -18 0 -8 4 -8 13 -1 8 7
18 7 27 2 13 -8 12 -10 -2 -10 -10 0 -18 -5 -18 -11 0 -5 4 -8 9 -5 5 3 14 -1
21 -9 7 -8 17 -12 24 -8 6 3 8 3 4 -2 -10 -10 10 -47 22 -40 5 3 11 1 15 -5 3
-5 15 -10 26 -10 11 0 18 -4 14 -9 -6 -10 11 -24 35 -28 8 -1 16 -7 18 -13 2
-5 8 -8 13 -4 5 3 9 -1 9 -10 0 -8 13 -17 30 -21 17 -4 30 -13 30 -21 0 -8 9
-14 19 -14 11 0 21 -3 23 -8 5 -12 99 -76 143 -97 22 -11 42 -23 45 -26 3 -3
21 -11 40 -18 75 -29 110 -45 110 -52 0 -6 58 -33 85 -39 6 -1 21 -11 34 -21
13 -11 30 -19 37 -19 8 0 14 -4 14 -8 0 -13 72 -36 103 -33 18 2 27 -2 27 -12
0 -7 28 -26 63 -42 121 -55 277 -124 282 -125 3 -1 24 -9 47 -19 24 -10 51
-21 61 -24 9 -4 17 -11 17 -17 0 -9 -63 -41 -78 -39 -23 4 -55 -3 -47 -9 15
-11 17 -32 4 -48 -8 -10 -8 -14 0 -14 13 0 10 -22 -4 -32 -6 -5 -6 -8 2 -8 6
0 -3 -16 -20 -35 -17 -19 -39 -35 -48 -35 -18 0 -79 -35 -111 -64 -10 -9 -22
-16 -26 -16 -4 0 -53 -34 -107 -75 -54 -41 -101 -72 -103 -70 -4 4 85 109 145
173 7 7 13 18 13 23 0 5 4 9 8 9 5 0 44 35 88 78 43 43 90 85 104 94 l25 16
-39 17 c-27 12 -53 15 -82 10 -37 -5 -52 -17 -131 -103 -81 -87 -101 -122 -72
-122 6 0 7 5 4 10 -9 15 23 62 37 54 6 -4 8 -3 5 3 -8 13 17 36 27 25 4 -4 6
0 4 8 -1 8 3 14 10 12 6 -1 11 4 10 10 -2 7 3 12 10 10 8 -1 11 2 7 8 -3 5 6
22 21 37 17 18 24 22 21 11 -3 -10 -2 -20 3 -23 6 -4 10 -2 10 3 0 6 8 13 17
16 10 4 14 4 11 0 -4 -3 3 -14 15 -24 l21 -18 -32 -19 c-17 -11 -29 -23 -25
-26 3 -4 -13 -26 -38 -49 -46 -45 -180 -195 -239 -268 -19 -23 -66 -68 -105
-98 -38 -31 -77 -63 -86 -72 -9 -8 -25 -22 -35 -30 -11 -8 -39 -32 -63 -52
-24 -21 -48 -35 -53 -32 -4 3 -11 -3 -15 -13 -7 -21 -43 -63 -54 -63 -4 0 -47
-41 -96 -91 -48 -51 -97 -99 -107 -108 -38 -32 -286 -276 -286 -282 0 -3 -26
-32 -57 -65 -32 -33 -95 -100 -140 -150 -45 -50 -144 -154 -220 -233 -138
-142 -139 -142 -166 -128 -14 8 -24 17 -20 21 4 4 1 11 -7 16 -12 8 -11 10 7
10 19 0 21 5 18 37 -1 20 -8 39 -14 41 -6 2 -11 10 -11 18 0 9 4 13 9 10 11
-7 23 22 15 35 -3 5 -12 9 -20 9 -8 0 -14 5 -14 10 0 6 6 10 13 10 8 0 13 15
13 45 0 25 -4 45 -9 45 -4 0 -5 6 0 13 11 18 10 61 -2 70 -6 4 -5 10 4 16 11
7 12 15 3 38 -11 27 -10 82 2 102 4 5 1 11 -6 13 -12 4 -14 44 -5 138 3 34 1
60 -6 69 -9 11 -9 13 0 8 6 -4 14 -3 17 2 4 5 2 12 -4 16 -6 4 -7 12 -3 18 5
7 9 35 11 62 5 108 7 120 20 119 37 -3 42 -5 39 -16 -1 -7 8 -14 20 -16 14 -2
20 -8 17 -17 -3 -8 4 -16 16 -20 17 -5 21 -13 17 -31 -6 -34 2 -30 18 10 15
34 11 71 -5 61 -5 -3 -18 14 -28 37 -20 44 -60 88 -77 85 -5 -1 -11 17 -13 39
-3 39 -1 42 30 53 l33 12 -37 22 c-21 12 -38 28 -38 34 0 7 -12 15 -27 19 -16
3 -36 8 -45 11 -10 2 -18 -1 -18 -7 0 -7 -5 -6 -14 2 -8 7 -12 16 -10 20 2 4
0 9 -5 12 -5 3 -7 15 -4 25 3 14 -3 24 -22 34 -25 13 -29 12 -50 -7 -23 -21
-24 -34 -9 -98 7 -31 -9 -39 -22 -10 -12 27 -13 56 0 64 8 6 8 8 -1 8 -7 0
-23 11 -37 25 -41 41 -50 33 -42 -37 4 -35 8 -74 9 -88 l2 -25 -113 -1 c-74 0
-116 -5 -121 -12 -5 -8 -17 -9 -38 -3 -17 5 -47 5 -69 0 -22 -4 -72 -13 -111
-20 -40 -6 -73 -15 -73 -19 0 -5 -17 -8 -37 -7 -45 2 -190 -30 -198 -44 -4 -5
-10 -7 -15 -4 -5 3 -26 -1 -46 -10 -20 -8 -45 -15 -55 -15 -16 0 -97 -25 -329
-100 -53 -17 -84 -32 -82 -40 2 -8 -3 -10 -14 -6 -23 9 -312 -97 -514 -189
-234 -105 -220 -98 -214 -120 6 -17 5 -18 -9 -6 -14 11 -23 10 -62 -8 -29 -14
-43 -26 -39 -35 3 -8 0 -17 -7 -22 -9 -5 -10 -2 -6 9 12 30 -12 21 -153 -63
-8 -5 -52 -28 -97 -51 -48 -24 -80 -46 -76 -52 3 -6 1 -7 -5 -3 -6 3 -55 -16
-109 -43 -54 -27 -144 -70 -200 -96 -57 -27 -103 -52 -103 -57 0 -4 -7 -8 -15
-8 -17 0 -339 -165 -374 -192 -13 -10 -27 -18 -32 -18 -10 0 -132 -70 -139
-80 -3 -4 -16 -10 -30 -13 -22 -5 -135 -65 -355 -187 -33 -18 -107 -62 -165
-98 -58 -36 -127 -79 -155 -95 -27 -17 -61 -39 -75 -50 -14 -10 -70 -47 -125
-82 -127 -82 -168 -110 -318 -220 -129 -95 -300 -252 -291 -266 3 -5 -2 -9
-10 -9 -9 0 -16 -4 -16 -10 0 -5 6 -10 13 -10 6 0 -1 -11 -18 -24 -26 -21 -28
-25 -13 -31 10 -4 15 -12 11 -19 -19 -29 -7 -116 16 -116 5 0 22 20 38 45 25
41 73 72 87 58 3 -4 6 -2 6 3 0 6 -5 15 -11 21 -9 9 -3 11 25 10 20 -1 36 -5
36 -9 0 -5 7 -8 16 -8 11 0 15 8 13 28 -4 49 0 62 17 55 15 -5 15 -7 0 -15 -9
-5 -16 -13 -16 -18 0 -17 26 -11 45 10 10 11 24 20 32 20 7 0 13 5 13 11 0 7
-9 9 -21 6 -16 -4 -18 -3 -9 8 7 8 9 19 5 25 -9 15 58 13 74 -3 11 -10 13 -9
8 6 -9 23 17 33 48 19 32 -15 70 -5 54 14 -9 11 -6 14 20 14 19 0 30 4 26 10
-4 6 10 10 35 10 41 0 64 13 66 38 2 25 5 29 29 40 15 7 25 20 25 32 0 27 16
25 36 -5 17 -26 17 -26 35 -6 11 11 19 25 19 31 0 14 17 13 22 -1 3 -8 10 -6
21 5 9 9 19 17 22 16 27 -1 35 3 35 20 0 11 5 20 11 20 5 0 8 -4 4 -9 -14 -24
16 -17 44 9 17 17 35 30 39 30 14 0 82 72 82 88 0 9 6 12 16 8 8 -3 12 -2 9 4
-3 5 9 23 27 41 26 24 34 28 36 15 5 -21 7 -21 50 11 43 32 53 44 46 55 -3 4
6 8 21 8 30 0 92 39 119 75 10 14 24 25 29 25 6 0 44 19 84 42 49 28 72 47 68
56 -3 9 2 12 18 10 17 -2 21 1 19 16 -3 15 1 18 17 13 13 -3 35 4 56 19 20 13
40 24 45 24 6 0 10 5 10 10 0 6 7 10 15 10 20 0 85 32 85 42 0 4 7 8 15 8 8 0
15 5 15 10 0 6 5 10 11 10 14 0 48 41 49 58 0 17 19 15 26 -3 4 -8 10 -12 16
-9 5 3 7 12 4 20 -3 8 1 14 9 14 8 0 15 -5 15 -12 0 -9 3 -9 12 0 8 8 8 15 -1
25 -9 12 -5 14 25 10 26 -3 34 0 28 8 -5 9 -1 10 14 7 12 -4 22 -2 22 3 0 5 7
9 16 9 8 0 12 5 9 10 -3 6 -2 10 4 10 6 0 14 12 17 26 6 23 10 25 43 19 21 -3
49 -1 67 7 30 13 34 17 34 38 0 6 11 8 25 4 16 -4 25 -2 25 6 0 6 5 8 10 5 10
-6 138 49 150 64 7 8 103 55 114 56 17 0 17 23 1 27 -14 2 -12 9 13 41 23 29
31 34 36 21 4 -10 13 -13 26 -9 13 4 22 1 26 -9 5 -13 10 -12 35 6 23 17 26
24 17 35 -6 8 -7 13 -2 11 5 -1 19 4 32 11 14 7 35 10 53 6 22 -5 29 -3 29 9
0 11 9 16 29 16 28 0 47 22 36 40 -7 12 53 18 65 6 7 -7 10 -7 10 1 0 6 9 13
21 16 12 3 18 10 14 16 -3 6 -11 8 -17 5 -6 -4 -36 -8 -67 -10 -35 -2 -50 1
-40 7 8 5 21 9 30 9 9 0 19 6 22 14 3 7 20 16 39 18 18 3 40 7 48 9 9 2 15 -3
15 -13 0 -9 4 -20 8 -25 5 -4 7 -1 5 7 -2 9 6 16 19 18 14 2 21 10 20 22 -1
10 -7 16 -14 13 -19 -7 -16 8 5 23 20 16 82 18 82 3 0 -5 -8 -9 -17 -8 -31 3
-35 -1 -19 -16 8 -8 23 -15 33 -15 21 0 83 52 83 70 0 8 8 10 25 6 19 -5 23
-3 19 8 -3 8 3 19 15 25 26 15 31 14 31 -5 0 -9 7 -14 18 -12 13 3 16 12 14
41 -3 34 -1 37 22 37 14 0 28 5 31 10 3 6 14 10 23 10 15 0 15 -2 2 -10 -13
-9 -13 -10 0 -11 8 0 25 -2 38 -5 15 -3 22 1 22 11 0 8 7 15 15 15 8 0 15 -4
15 -10 0 -11 33 -14 43 -3 4 3 2 12 -4 19 -8 9 3 15 46 24 32 7 59 18 62 26 3
9 12 13 20 10 8 -4 29 0 46 8 18 8 58 22 90 32 32 10 57 23 57 31 0 7 6 13 13
14 61 5 105 13 127 21 8 3 35 11 60 18 25 7 56 20 69 28 13 8 44 16 68 18 24
2 49 7 56 11 7 4 20 9 29 10 25 4 206 52 258 68 63 20 221 55 247 55 12 0 24
4 27 8 3 5 19 7 36 4 17 -2 30 0 30 6 0 7 10 8 30 2 17 -5 46 -6 65 -3 l34 5
-3 -71 c-3 -62 -7 -75 -29 -95 -14 -13 -28 -22 -30 -20 -9 9 0 -33 12 -55 15
-27 20 -204 8 -288 -5 -37 -4 -53 6 -56 9 -3 9 -7 -1 -19 -9 -11 -10 -23 -3
-41 5 -14 7 -28 4 -31 -4 -3 -1 -6 6 -6 7 0 9 -5 5 -12 -5 -7 -9 -37 -10 -66
-1 -29 -5 -56 -8 -59 -3 -3 -1 -14 4 -24 6 -11 7 -27 1 -42 -6 -14 -7 -28 -3
-31 3 -4 7 -26 8 -49 5 -131 8 -158 16 -163 5 -3 5 -11 1 -17 -14 -19 -15 -67
-3 -82 7 -8 10 -21 7 -30 -4 -8 -2 -17 3 -20 6 -4 10 -11 10 -16 0 -6 -4 -7
-10 -4 -5 3 -7 0 -4 -8 3 -9 -10 -25 -35 -43 -22 -16 -43 -37 -47 -47 -3 -9
-9 -15 -14 -12 -5 3 -17 -5 -27 -18 -10 -12 -40 -38 -68 -56 -27 -18 -53 -39
-57 -45 -3 -6 -18 -24 -32 -39 -33 -35 -33 -45 0 -57 21 -8 35 -6 70 12 24 12
44 26 44 30 0 5 -5 6 -10 3 -5 -3 -10 -1 -10 4 0 6 11 11 24 11 14 0 36 13 53
33 41 45 94 81 102 70 3 -6 16 -14 29 -18 28 -8 24 -29 -6 -33 -18 -3 -20 -6
-10 -27 6 -13 17 -26 25 -29 8 -3 11 -2 8 3 -3 5 -1 12 5 16 5 3 10 14 10 25
0 10 7 21 16 24 9 3 12 2 9 -5 -4 -5 4 -19 16 -30 20 -18 22 -22 8 -29 -9 -5
-16 -25 -17 -49 -2 -33 0 -40 13 -35 8 3 15 12 15 20 0 7 9 19 20 27 11 8 17
17 13 20 -3 4 1 7 10 7 9 0 23 10 31 22 19 27 27 20 29 -23 2 -29 6 -35 32
-39 17 -3 42 -4 58 -1 26 3 27 5 23 54 -3 27 -10 55 -15 60 -6 6 -11 24 -11
39 0 15 -4 28 -8 28 -4 0 -8 19 -9 43 0 33 8 55 40 102 57 85 184 238 350 421
78 87 227 257 331 378 104 122 192 223 195 226 4 3 31 34 61 70 30 35 60 70
65 76 63 70 98 105 115 114 11 6 20 15 20 20 0 12 48 60 60 60 9 0 14 15 11
33 -1 5 3 6 8 3 5 -4 23 5 39 19 16 14 33 25 36 25 15 0 66 45 66 57 0 7 5 13
10 13 6 0 10 6 10 13 0 8 18 21 40 30 49 19 47 15 -39 -81 -36 -40 -65 -77
-64 -82 2 -5 -6 -12 -17 -15 -11 -4 -23 -17 -26 -30 -3 -14 -10 -23 -15 -22
-4 1 -34 -25 -65 -58 -31 -33 -113 -121 -183 -195 -70 -74 -151 -162 -179
-195 -29 -33 -67 -76 -86 -95 -37 -38 -83 -93 -131 -155 -16 -21 -46 -57 -65
-80 -67 -81 -119 -150 -159 -212 -22 -34 -49 -71 -60 -82 -12 -12 -21 -28 -21
-36 0 -8 -4 -15 -10 -15 -11 0 -127 -157 -147 -200 -4 -8 -17 -23 -29 -32 -12
-10 -27 -31 -34 -47 -7 -17 -33 -51 -58 -77 -42 -43 -44 -48 -28 -60 24 -17
48 3 35 28 -7 13 -2 18 29 25 25 6 38 15 40 28 6 29 32 55 48 48 8 -3 14 -2
13 3 -3 18 13 53 27 58 8 3 14 12 14 21 0 8 5 15 10 15 6 0 10 8 10 18 0 10 9
25 20 35 12 10 18 21 16 26 -3 5 4 11 15 14 15 4 20 11 16 21 -4 10 -1 16 8
16 8 0 15 5 15 11 0 5 5 7 10 4 15 -9 51 5 44 17 -4 6 6 21 21 34 19 16 26 30
22 44 -3 11 -1 20 4 20 4 0 6 7 3 15 -5 11 -2 13 12 8 13 -5 15 -3 9 7 -6 10
-4 12 10 6 14 -5 16 -4 6 8 -9 11 -8 15 4 20 9 3 13 10 10 16 -3 5 -2 10 3 10
4 0 18 9 30 21 13 11 28 19 35 16 19 -6 40 22 39 54 0 22 4 29 17 29 25 0 47
26 29 33 -7 3 -3 6 9 6 13 1 30 13 40 29 9 15 31 39 48 54 16 14 26 30 22 34
-4 5 -11 4 -15 -1 -4 -6 -18 -11 -32 -13 -19 -2 -22 0 -10 8 8 5 11 10 5 11
-5 0 -1 4 10 9 11 4 29 6 41 3 15 -3 27 6 48 36 15 22 34 42 42 45 19 7 18 24
-3 29 -16 4 -16 5 1 6 10 0 27 12 38 26 11 14 26 25 34 25 8 0 18 8 21 18 4 9
15 23 25 31 11 7 23 24 29 38 5 13 13 22 18 19 4 -3 19 6 31 19 20 21 21 25 7
25 -28 0 -19 17 15 29 41 14 78 49 78 72 0 12 5 16 15 13 11 -5 13 -2 9 10 -4
10 -1 16 9 16 18 0 99 89 92 101 -3 4 3 13 12 19 15 9 14 10 -7 4 -22 -6 -23
-5 -11 10 8 9 21 14 29 11 18 -7 137 110 127 125 -3 5 1 10 10 10 9 0 13 5 10
10 -3 6 0 10 7 11 7 0 27 18 45 40 44 55 149 173 205 231 26 26 45 48 42 48
-3 0 1 7 10 15 8 8 17 15 21 15 3 0 18 14 32 30 13 17 32 30 41 30 8 0 12 3 9
7 -7 6 125 73 143 73 5 0 44 14 87 31 71 28 96 36 129 38 14 1 25 39 14 46 -5
3 -11 1 -15 -5 -4 -7 -12 -7 -25 0 -19 10 -71 -10 -95 -36 -19 -21 -155 -45
-155 -28 0 3 18 26 40 51 22 26 40 51 39 57 -4 38 1 44 41 43 22 -1 40 -5 40
-9 0 -14 85 -57 105 -53 11 2 23 4 28 4 4 1 7 8 7 16 0 10 -6 12 -17 8 -16 -6
-16 -5 -4 10 7 9 17 14 22 11 22 -13 0 43 -28 74 -7 7 -18 10 -24 7 -6 -4 -17
2 -25 14 -8 12 -24 21 -35 21 -10 0 -19 4 -19 9 0 14 -37 20 -49 8 -9 -9 -13
-6 -17 11 -4 12 -10 22 -15 22 -24 0 -99 44 -140 83 -25 23 -64 56 -85 73 -21
18 -53 44 -70 58 -18 14 -39 26 -47 26 -8 0 -17 6 -20 14 -3 8 -34 33 -69 55
-35 22 -81 54 -104 70 -23 17 -44 31 -47 31 -4 0 -16 8 -26 18 -29 26 -44 37
-76 58 -17 10 -62 42 -102 71 -40 29 -76 53 -81 53 -5 0 -17 9 -27 20 -10 11
-26 20 -35 20 -10 0 -21 7 -24 16 -4 9 -9 14 -12 11 -3 -2 -16 6 -29 19 -13
13 -31 24 -40 24 -8 0 -15 4 -15 10 0 19 -178 130 -210 130 -16 0 -30 5 -30
10 0 6 8 10 18 10 10 0 -4 14 -33 33 -27 18 -63 44 -78 59 -18 17 -36 24 -50
22 -12 -2 -17 -2 -10 2 15 7 5 34 -13 34 -8 0 -14 5 -14 11 0 6 -7 9 -14 6 -9
-4 -13 -1 -10 7 3 7 -7 19 -21 26 -23 12 -28 12 -35 0 -7 -11 -13 -6 -25 22
-8 21 -27 45 -43 55 -15 10 -40 33 -56 51 -17 18 -54 49 -83 69 -29 19 -56 40
-61 47 -8 13 -69 65 -102 86 -12 8 -30 22 -39 30 -9 9 -40 34 -69 55 l-53 40
33 7 c18 3 35 3 38 -2 8 -14 120 -29 127 -17 3 6 8 5 12 -1 3 -6 20 -13 36
-16 17 -2 32 -5 35 -6 3 -2 23 -4 45 -6 22 -2 58 -5 80 -6 22 -2 45 -6 50 -9
6 -3 42 -6 80 -8 39 -1 78 -4 88 -7 9 -3 17 0 17 6 0 6 8 5 23 -4 37 -24 152
0 200 42 9 8 17 18 17 21 0 3 -41 5 -92 3 -50 -2 -128 2 -172 8 -45 7 -93 13
-107 15 -15 2 -36 6 -48 10 -12 3 -47 8 -79 10 -31 2 -64 6 -72 9 -19 6 -221
44 -280 52 -59 8 -102 13 -117 13 -7 1 -13 6 -13 12 0 8 109 7 130 -2 3 -1 32
-3 66 -3 51 -1 60 1 57 15 -4 12 2 15 24 13 57 -7 73 -10 79 -17 12 -12 54 -8
54 6 -2 60 -111 91 -360 103 -80 3 -167 8 -195 10 -127 11 -201 11 -212 2 -8
-6 -21 -4 -40 5 -15 8 -53 16 -83 16 -30 1 -73 3 -95 5 -93 8 -288 18 -395 21
-63 2 -126 6 -140 9 -14 4 -39 2 -54 -4 -21 -8 -32 -7 -43 2 -11 9 -16 9 -24
-3 -5 -8 -9 -9 -9 -4 0 32 -1195 58 -1232 28 -8 -7 -18 -10 -21 -6 -11 10
-181 1 -337 -17 -99 -12 -169 -17 -320 -24 -69 -4 -140 -11 -157 -17 -18 -6
-41 -8 -52 -4 -11 3 -22 2 -24 -2 -3 -5 -27 -7 -53 -4 l-48 3 40 14 c41 15
119 27 169 26 33 -1 85 16 85 28 0 3 25 7 55 8 30 0 55 -3 55 -7 0 -11 54 -5
58 7 2 7 15 9 33 5 16 -3 29 -2 29 3 0 5 33 8 72 7 40 -1 73 -2 73 -3 0 -1 12
-3 27 -5 17 -2 31 2 36 11 6 11 28 16 80 17 40 1 72 6 72 12 0 5 5 4 12 -3 17
-17 38 -15 61 5 16 15 20 16 27 3 6 -12 25 -14 82 -12 40 1 91 2 112 2 22 -1
43 5 47 12 6 10 15 10 41 1 40 -13 108 -8 120 9 6 10 10 10 17 -1 9 -14 101
-13 112 3 4 4 23 2 44 -5 33 -12 38 -12 50 4 13 18 14 18 41 0 24 -16 50 -18
190 -18 125 0 160 3 157 13 -3 6 2 12 12 12 12 0 16 7 13 28 -2 19 1 26 11 24
8 -2 33 -4 55 -6 56 -4 96 -16 96 -29 0 -6 3 -8 6 -4 4 3 23 -2 44 -13 21 -11
40 -17 42 -14 3 2 25 -2 49 -10 26 -9 85 -15 144 -15 118 -1 229 -8 269 -17
21 -5 31 -2 38 10 8 14 11 15 24 1 8 -8 29 -14 47 -14 18 0 41 -1 52 -3 12 -2
19 2 18 10 -4 16 16 15 51 -3 36 -19 46 -19 46 0 0 20 10 19 40 -5 29 -22 127
-28 162 -9 15 8 22 8 27 0 13 -21 66 -30 92 -16 18 10 26 10 31 2 4 -6 28 -11
53 -11 25 1 45 -2 45 -5 0 -4 30 -6 68 -4 74 3 165 -12 198 -32 21 -13 21 -13
14 19 -10 44 -16 54 -48 70 -27 13 -153 36 -227 41 -22 2 -71 8 -108 14 -38 7
-85 12 -105 12 -38 -1 -197 8 -197 10 0 3 -103 10 -210 13 -136 5 -250 11
-550 30 -115 8 -239 12 -275 10 -36 -2 -209 -5 -385 -5 -176 -1 -324 -4 -329
-7 -16 -9 -57 -8 -62 0 -3 4 -11 8 -17 8 -7 0 -6 -4 3 -10 13 -9 13 -10 0 -10
-268 -7 -584 -25 -599 -35 -4 -2 -51 -6 -106 -10 -86 -5 -142 -12 -275 -30
-14 -2 -52 -6 -85 -10 -33 -3 -82 -10 -110 -16 -49 -9 -76 -13 -164 -25 -25
-3 -47 -7 -50 -9 -3 -1 -71 -15 -151 -29 -80 -15 -160 -31 -178 -37 -28 -9
-160 -39 -247 -56 -16 -3 -45 -7 -62 -7 -18 -1 -33 -4 -33 -8 0 -3 -17 -6 -37
-5 -21 1 -38 -4 -41 -11 -2 -7 -8 -10 -13 -7 -5 3 -30 -1 -56 -10 -27 -9 -77
-23 -113 -31 -36 -8 -69 -16 -75 -18 -46 -12 -128 -27 -132 -23 -5 6 124 44
274 81 29 8 58 18 65 23 7 5 29 10 48 12 19 2 40 6 45 9 6 4 15 7 20 8 6 1 30
7 53 13 24 7 57 9 74 6 21 -5 28 -4 24 4 -5 7 4 9 26 5 25 -4 29 -3 18 5 -13
9 -12 11 4 11 12 0 16 5 13 15 -7 16 8 29 23 20 6 -4 7 -13 1 -24 -7 -13 -6
-18 5 -18 7 0 14 10 15 21 0 21 1 21 9 1 5 -11 9 -15 9 -8 1 6 9 9 19 7 9 -3
28 0 42 6 25 10 25 10 -3 5 -21 -4 -28 -2 -24 7 2 7 13 11 23 10 45 -9 144 1
189 18 29 11 33 35 8 49 -10 6 -13 11 -6 11 6 0 15 -5 18 -11 4 -6 13 -8 21
-5 8 3 17 -1 20 -9 4 -8 16 -15 28 -14 20 0 20 1 2 8 -14 5 -16 10 -7 15 6 4
19 2 28 -6 13 -10 17 -10 20 -1 3 8 11 10 21 5 10 -5 45 -2 87 9 39 9 63 17
53 18 -19 1 -14 37 8 45 17 6 19 -10 3 -20 -24 -15 32 -31 75 -22 22 5 64 11
91 14 66 6 125 24 149 43 11 9 16 10 12 4 -5 -10 6 -12 48 -10 52 2 63 11 22
19 -11 1 -22 10 -24 18 -4 13 -3 13 10 2 12 -9 18 -10 23 -2 5 8 14 6 31 -5
25 -16 64 -17 75 -1 4 4 14 4 24 -1 24 -14 67 -3 72 18 3 10 9 16 14 13 5 -3
7 -9 4 -14 -7 -11 62 -18 78 -8 12 7 7 10 -22 12 -8 1 -16 7 -19 14 -3 9 6 11
38 6 36 -6 42 -4 47 15 6 22 37 29 48 11 5 -8 11 -8 20 0 9 8 11 5 7 -15 -4
-23 -9 -25 -54 -25 -30 0 -47 -4 -43 -10 3 -6 16 -8 28 -5 12 3 44 7 71 9 47
5 77 16 41 16 -18 0 -18 1 1 19 23 23 34 18 28 -12 -3 -21 -1 -23 31 -19 19 2
35 9 35 16 0 6 14 17 31 25 26 11 33 11 39 0 7 -11 13 -11 35 1 33 18 19 31
-34 33 -32 1 -41 5 -41 19 0 31 -59 38 -183 22 -61 -8 -136 -17 -166 -19 -30
-3 -59 -9 -64 -14 -5 -5 -24 -7 -43 -4 -25 4 -35 2 -40 -11 -7 -17 -34 -22
-34 -6 0 10 -19 8 -122 -12 -61 -11 -87 -15 -130 -17 -15 0 -33 -8 -42 -16 -9
-9 -17 -11 -21 -5 -9 15 -41 12 -58 -5 -11 -10 -17 -11 -19 -3 -3 7 -12 9 -22
5 -13 -5 -15 -11 -8 -20 8 -9 2 -15 -24 -23 -32 -10 -47 -3 -24 11 27 16 -7
21 -75 10 -41 -6 -75 -9 -75 -7 0 2 -7 -1 -15 -8 -8 -6 -18 -9 -23 -6 -4 3
-28 -2 -51 -10 -24 -8 -66 -17 -93 -19 -57 -5 -67 -10 -50 -27 22 -22 12 -27
-24 -12 -24 10 -40 12 -48 5 -6 -5 -17 -6 -24 -2 -15 9 -60 3 -67 -10 -3 -4
-12 -6 -19 -3 -7 3 -19 -2 -26 -11 -7 -8 -28 -15 -47 -15 -19 0 -32 -4 -29 -9
4 -5 -8 -13 -26 -16 -17 -4 -38 -13 -45 -20 -12 -13 -61 -14 -80 -2 -5 3 -17
-3 -27 -14 -17 -20 -17 -21 0 -34 16 -11 15 -12 -9 -12 -14 0 -26 2 -25 6 3
30 -20 37 -44 13 -7 -7 -28 -12 -47 -12 -26 0 -32 -3 -21 -10 23 -14 -12 -23
-68 -17 -30 4 -58 1 -77 -8 -29 -13 -29 -13 -6 -14 43 -2 6 -25 -41 -27 -26
-1 -46 -8 -53 -18 -9 -12 -23 -15 -49 -12 -36 5 -37 4 -31 -24 7 -32 -9 -48
-30 -30 -8 7 -16 9 -16 4 -1 -5 -2 -16 -3 -24 0 -9 -7 -13 -16 -10 -8 2 -34 4
-57 4 -31 -1 -40 2 -36 12 3 8 -1 14 -10 14 -9 0 -22 3 -31 6 -12 4 -16 0 -16
-15 0 -14 -6 -21 -19 -21 -17 0 -18 6 -14 52 2 29 11 80 19 113 15 66 18 103
5 70 -5 -11 -16 -64 -26 -117 -11 -61 -24 -104 -36 -116 -13 -15 -15 -22 -6
-26 7 -4 2 -4 -10 -2 -31 6 -29 -16 2 -34 l24 -15 -35 -12 -36 -11 5 32 c14
74 19 94 34 146 9 30 17 62 18 70 2 19 24 85 42 127 7 17 13 39 13 50 0 25 27
99 46 129 9 13 14 31 10 39 -3 8 -1 15 4 15 6 0 10 5 10 11 0 11 41 108 90
214 15 33 38 85 51 115 32 77 67 130 84 130 15 0 32 43 27 68 -2 7 18 53 43
102 54 106 88 195 82 213 -4 11 -24 -22 -62 -100 -15 -32 -43 -48 -32 -18 9
23 -12 29 -34 9 -10 -9 -22 -14 -26 -10 -5 4 0 12 10 18 14 8 16 13 6 24 -6 8
-18 14 -25 14 -15 0 -19 16 -5 24 13 8 8 79 -6 84 -7 2 -21 -10 -30 -27z m33
-135 c0 -13 -4 -22 -7 -20 -10 6 -20 -26 -13 -38 3 -5 -2 -16 -12 -23 -16 -13
-17 -16 -4 -24 8 -6 11 -13 7 -17 -4 -5 -17 2 -29 13 -20 21 -20 23 -4 45 9
13 26 38 37 56 25 38 27 39 25 8z m-72 -111 c11 -30 -41 -120 -80 -136 -32
-14 -114 -76 -114 -87 0 -7 -8 -15 -17 -19 -22 -8 -110 -79 -140 -113 -13 -14
-23 -20 -23 -13 0 7 -7 10 -15 6 -9 -3 -14 -8 -11 -11 3 -2 -3 -17 -13 -31
-10 -14 -16 -33 -14 -41 3 -11 2 -11 -4 -3 -23 32 11 99 55 106 19 4 113 93
106 100 -3 3 9 20 25 38 19 21 31 28 31 19 1 -11 4 -10 15 4 8 10 12 23 9 27
-3 5 2 9 11 9 9 0 13 4 10 10 -4 6 1 7 11 3 14 -5 16 -2 12 15 -4 14 -2 19 7
16 12 -5 89 69 108 102 10 18 23 18 31 -1z m-364 -315 c0 -5 -5 -10 -11 -10
-5 0 -7 5 -4 10 3 6 8 10 11 10 2 0 4 -4 4 -10z m184 -15 c3 -8 -1 -21 -9 -29
-8 -7 -11 -16 -8 -20 4 -3 -2 -6 -12 -6 -18 0 -18 -1 -4 -16 15 -14 14 -21 -2
-77 -9 -34 -27 -89 -39 -122 -37 -106 -79 -249 -75 -254 3 -2 0 -9 -5 -16 -5
-6 -16 -40 -24 -76 -8 -35 -19 -79 -24 -96 -6 -20 -7 -33 -1 -33 9 0 8 -21 -1
-30 -20 -19 -38 -61 -33 -78 3 -14 -1 -22 -17 -27 -13 -4 -19 -12 -16 -21 3
-8 0 -14 -6 -14 -6 0 -8 -11 -4 -30 4 -22 2 -30 -9 -30 -8 0 -15 -8 -15 -18 0
-14 -13 -22 -55 -32 -30 -7 -55 -16 -55 -20 0 -3 9 -16 21 -29 18 -19 23 -20
32 -8 7 8 20 17 29 20 14 5 16 -2 13 -61 -2 -37 0 -85 5 -107 15 -66 32 -128
45 -158 11 -25 13 -26 20 -10 10 24 11 56 1 71 -5 9 0 21 13 34 17 16 20 23
10 34 -8 10 -8 14 0 14 6 0 10 3 9 8 -1 4 4 25 10 46 6 22 9 42 7 44 -2 3 2
14 10 24 7 11 11 26 9 32 -6 16 28 26 276 76 113 23 311 64 440 92 129 27 246
51 260 53 14 3 63 14 110 26 47 11 101 22 120 25 19 2 55 6 80 9 25 3 66 7 92
9 26 2 54 9 63 16 12 10 15 10 15 0 0 -10 3 -10 15 0 13 10 20 8 41 -14 15
-14 30 -26 34 -26 4 0 27 13 51 29 41 28 59 31 59 10 0 -6 -10 -9 -22 -7 -11
2 -23 -3 -25 -9 -3 -9 8 -13 36 -13 23 0 41 5 41 10 0 7 18 8 49 4 57 -7 124
2 116 17 -4 5 -2 9 4 9 5 0 13 -4 16 -10 7 -12 45 -14 45 -2 0 4 27 5 59 4 52
-3 59 -2 58 15 -2 19 9 20 108 9 28 -3 44 -3 38 0 -7 3 -13 10 -13 16 0 6 9 3
19 -6 19 -17 20 -17 31 3 9 17 15 19 30 11 26 -14 32 -13 29 8 -3 36 1 41 32
39 29 -2 29 -3 10 -16 -27 -17 -29 -57 -3 -46 9 4 23 7 30 6 70 -7 121 0 115
16 -3 8 3 13 16 13 15 0 19 -4 14 -17 -6 -14 1 -15 57 -10 35 4 67 12 71 18 4
7 9 7 12 2 4 -6 25 -7 50 -3 23 3 55 3 70 -1 32 -9 67 -1 67 14 0 8 3 8 11 0
8 -8 20 -8 40 -1 16 6 43 8 59 6 16 -2 27 -1 25 3 -3 4 4 9 15 12 10 3 21 0
24 -7 2 -6 5 -2 6 9 l1 20 15 -20 c13 -17 27 -20 91 -20 52 0 78 4 81 13 5 15
32 16 32 1 0 -8 17 -10 58 -5 31 4 63 7 70 6 16 -1 79 -1 176 1 44 0 91 5 104
10 14 5 28 6 31 2 9 -13 61 -15 61 -3 0 6 -4 8 -10 5 -5 -3 -10 -2 -10 3 0 6
17 10 38 9 20 0 29 -2 20 -4 -10 -3 -18 -9 -18 -14 0 -12 44 -11 56 1 7 7 25
8 55 1 24 -5 109 -10 189 -10 80 0 199 -3 265 -7 66 -3 134 -7 150 -7 17 1 32
-3 35 -6 8 -10 130 -28 130 -19 0 4 10 8 23 8 18 0 19 -2 7 -10 -13 -9 -13
-10 0 -11 47 -5 58 -7 69 -13 6 -4 11 -2 11 3 0 6 5 11 11 11 5 0 7 -4 4 -10
-3 -5 0 -10 7 -11 27 -1 74 -8 98 -14 14 -4 41 -10 60 -14 31 -6 32 -8 13 -13
-30 -8 -29 -28 0 -28 13 0 27 -3 31 -7 8 -9 46 -12 46 -3 0 3 -5 11 -11 17 -9
9 5 11 59 10 l70 -2 10 -48 c8 -42 7 -49 -9 -58 -25 -13 -63 -2 -93 26 -14 13
-28 19 -31 14 -4 -5 -15 -9 -26 -9 -11 0 -23 -10 -28 -23 -18 -46 -71 -17 -71
39 0 9 -5 13 -12 10 -7 -3 -21 -9 -30 -12 -10 -4 -18 -13 -18 -21 0 -12 -3
-13 -14 -4 -9 8 -16 8 -20 2 -4 -5 2 -12 13 -16 12 -4 18 -14 17 -30 0 -14 -4
-25 -8 -25 -3 0 -14 -14 -22 -31 -16 -31 -8 -69 14 -69 6 0 10 -9 10 -19 0
-18 27 -37 38 -26 3 3 -1 5 -9 5 -11 0 -11 2 1 10 11 7 17 5 21 -8 3 -9 12
-17 20 -17 8 0 16 -11 19 -25 9 -42 62 -150 73 -150 6 0 7 -3 4 -7 -4 -3 -2
-11 3 -18 5 -6 11 -20 13 -31 8 -38 19 -53 34 -47 11 4 14 2 9 -6 -4 -6 -2
-18 4 -26 6 -8 9 -19 5 -25 -3 -5 0 -10 8 -10 10 0 12 -11 10 -40 -2 -33 1
-42 22 -56 14 -9 25 -23 25 -30 0 -8 5 -14 11 -14 6 0 3 -7 -6 -16 -11 -12
-13 -20 -6 -27 6 -6 11 -19 11 -29 0 -10 7 -18 15 -18 8 0 15 -7 15 -16 0 -8
-5 -12 -11 -8 -8 5 -8 1 0 -14 14 -26 14 -62 1 -62 -5 0 -10 -4 -10 -10 0 -5
3 -9 8 -8 4 2 18 -5 31 -14 29 -21 20 -41 -14 -28 -23 9 -24 8 -13 -16 8 -18
14 -21 20 -12 5 9 8 9 8 1 0 -6 -7 -18 -15 -26 -12 -12 -33 -14 -109 -10 -89
6 -94 5 -101 -16 -8 -27 -29 -28 -22 -1 5 19 0 20 -396 15 -221 -3 -427 -5
-457 -5 -30 -1 -49 -3 -42 -6 6 -3 12 -10 12 -15 0 -12 -28 -11 -32 1 -4 13
-137 17 -243 7 -44 -4 -121 -10 -170 -12 -50 -2 -117 -6 -150 -9 -33 -3 -96
-8 -140 -11 -44 -4 -132 -13 -195 -21 -63 -9 -133 -18 -155 -20 -22 -3 -51 -7
-65 -10 -14 -3 -32 -6 -40 -6 -8 0 -28 -4 -45 -9 -16 -5 -50 -10 -75 -13 -25
-2 -79 -12 -120 -21 -46 -10 -76 -12 -78 -6 -2 6 -12 7 -26 1 -15 -5 -27 -5
-35 3 -8 8 -11 8 -11 0 0 -10 -61 -29 -122 -38 -32 -5 -194 -47 -383 -101
-193 -55 -429 -134 -625 -209 -80 -30 -147 -55 -150 -55 -18 1 47 40 66 40 13
0 24 4 24 9 0 8 93 53 115 56 6 1 17 4 25 8 21 10 204 74 265 94 184 58 264
83 286 87 13 3 38 9 54 15 50 17 146 42 215 56 36 7 78 18 93 24 16 6 39 11
53 11 13 0 32 4 42 9 17 9 126 31 152 31 9 0 7 -5 -6 -15 -10 -8 -14 -15 -7
-15 20 0 43 12 38 21 -10 15 53 40 90 36 19 -3 35 0 35 4 0 5 -22 9 -50 9 -27
0 -50 -4 -50 -8 0 -9 -138 -39 -154 -34 -6 2 -29 -4 -53 -13 -23 -9 -47 -14
-53 -10 -6 4 -17 1 -25 -5 -16 -13 -135 -43 -143 -36 -2 3 -17 -1 -32 -9 -28
-15 -67 -25 -111 -29 -14 -1 -31 -6 -38 -10 -7 -4 -22 -9 -34 -11 -24 -3 -82
-23 -109 -36 -9 -5 -31 -11 -49 -14 -17 -3 -40 -10 -49 -15 -17 -9 -90 -29
-123 -34 -9 -1 -23 -8 -29 -14 -7 -7 -20 -12 -30 -12 -19 0 -177 -56 -268 -94
-181 -78 -347 -154 -435 -199 -11 -6 -33 -17 -50 -24 -16 -8 -37 -18 -45 -23
-8 -5 -67 -35 -130 -66 -63 -32 -127 -66 -142 -76 -31 -22 -48 -23 -48 -4 0 8
-7 27 -14 43 -19 37 -29 63 -31 88 -6 59 -34 99 -77 110 -15 4 -32 13 -39 21
-16 19 -30 18 -22 -3 4 -11 3 -14 -5 -9 -7 4 -12 2 -12 -4 0 -7 -9 -23 -19
-36 l-19 -24 -13 44 c-14 47 -24 49 -52 11 -17 -23 -17 -26 -1 -50 9 -14 18
-46 20 -72 2 -27 4 -48 5 -48 0 0 2 -17 3 -38 2 -20 0 -37 -4 -37 -3 0 -5 -13
-4 -30 1 -17 -2 -27 -7 -24 -18 11 -39 -16 -29 -36 24 -45 82 -240 86 -289 2
-31 11 -62 20 -73 10 -11 12 -18 6 -18 -14 0 -12 -22 2 -32 5 -3 9 -35 9 -70
-1 -37 4 -72 13 -85 22 -35 -3 -45 -71 -29 -5 1 -39 18 -75 36 -75 40 -117 59
-128 59 -14 0 -82 34 -77 39 5 5 -119 102 -131 102 -3 0 -18 9 -33 19 -15 11
-36 19 -46 18 -11 -1 -19 3 -18 9 1 7 -13 15 -32 18 -24 5 -32 11 -28 21 3 8
0 15 -7 15 -7 0 -25 11 -42 25 -16 14 -40 25 -54 25 -13 0 -24 5 -24 12 0 6
-3 8 -6 5 -9 -9 -46 12 -40 22 3 4 -7 14 -22 22 -15 8 -36 22 -47 32 -11 11
-30 16 -42 14 -13 -2 -23 0 -23 4 0 5 -4 9 -9 9 -4 0 -25 16 -45 35 -21 19
-44 35 -53 35 -8 0 -34 14 -58 31 -24 17 -48 28 -54 25 -7 -4 -8 -1 -5 8 4 10
1 16 -9 16 -9 0 -28 11 -42 24 -15 14 -32 23 -40 20 -7 -3 -22 6 -33 20 -11
14 -29 26 -41 26 -23 0 -29 15 -8 23 6 3 -1 6 -16 6 -19 1 -31 7 -34 20 -6 25
-38 36 -95 36 -41 -1 -44 1 -30 13 16 13 16 13 0 8 -11 -3 -19 2 -23 14 -3 10
-15 22 -26 25 -10 4 -19 10 -19 14 0 4 -17 6 -37 4 -27 -2 -34 0 -23 7 11 7 8
10 -15 10 -29 1 -29 1 -11 15 11 8 15 15 10 15 -6 0 -15 -5 -21 -11 -18 -18
-41 -3 -60 36 -9 19 -22 34 -27 34 -35 -4 -54 2 -52 18 0 10 -4 18 -11 18 -7
0 -18 6 -24 13 -7 6 -19 12 -26 12 -7 0 -13 7 -13 15 0 8 -5 15 -11 15 -6 0
-8 -7 -5 -16 5 -13 2 -15 -13 -11 -12 3 -22 -1 -26 -12 -5 -13 -10 -12 -27 12
-11 15 -27 27 -35 27 -8 0 -34 19 -56 42 -36 37 -41 40 -47 22 -4 -10 -6 -22
-3 -26 10 -18 -34 -6 -51 14 -15 17 -16 25 -7 40 6 10 9 24 5 30 -4 6 -3 8 3
5 9 -6 68 57 242 257 24 28 116 127 205 219 89 93 163 174 165 180 2 7 -14 -8
-36 -32 -23 -23 -97 -100 -165 -170 -68 -69 -136 -141 -151 -160 -23 -28 -31
-32 -39 -20 -8 11 -9 10 -4 -4 4 -11 -7 -32 -32 -60 -71 -80 -117 -130 -144
-157 -16 -15 -28 -32 -28 -37 0 -5 -13 -8 -30 -5 -29 4 -29 4 -12 31 9 14 60
77 112 140 52 62 100 122 106 133 18 30 34 45 34 29 0 -6 11 0 25 15 14 15 25
31 25 35 0 5 19 21 43 36 23 15 69 51 102 79 33 29 75 65 94 80 19 16 55 47
79 69 25 22 42 34 38 28 -4 -7 -3 -13 2 -13 11 0 26 30 23 43 -1 5 3 6 8 3 5
-3 35 24 67 60 72 82 165 174 174 174 4 0 18 16 31 35 13 19 32 38 42 41 10 3
23 16 29 30 6 13 15 21 20 18 5 -3 32 15 61 41 120 110 161 150 159 158 -1 4
5 7 13 7 8 0 19 9 25 20 6 11 16 20 22 20 21 0 78 45 73 58 -2 6 2 12 10 12 8
0 18 6 22 13 4 8 25 25 45 38 21 14 46 37 57 51 12 14 43 40 71 58 27 18 50
33 50 34 0 17 -44 86 -55 86 -8 0 -15 -4 -15 -8 0 -5 -16 -14 -36 -20 -26 -8
-34 -8 -31 1 2 7 11 12 19 12 17 0 58 33 58 45 0 10 178 182 333 323 23 20 35
37 28 37 -8 0 -2 9 12 20 14 11 30 20 36 20 9 0 9 5 1 20 -15 28 -3 43 27 35
22 -5 23 -4 13 15 -9 16 -8 20 5 20 8 0 16 6 16 13 1 6 2 17 4 22 1 6 3 13 3
18 3 12 20 8 26 -8z m-114 -85 c0 -5 -2 -10 -4 -10 -3 0 -8 5 -11 10 -3 6 -1
10 4 10 6 0 11 -4 11 -10z m-160 -34 c0 -2 -7 -7 -16 -10 -8 -3 -12 -2 -9 4 6
10 25 14 25 6z m-30 -35 c0 -6 -4 -13 -10 -16 -5 -3 -10 1 -10 9 0 9 5 16 10
16 6 0 10 -4 10 -9z m-96 -116 c3 -8 1 -15 -3 -15 -5 0 -11 7 -15 15 -3 8 -1
15 3 15 5 0 11 -7 15 -15z m2896 -9 c0 -7 -9 -16 -20 -19 -25 -6 -26 1 -2 19
22 17 22 17 22 0z m-2836 -5 c3 -4 -3 -16 -13 -25 -13 -12 -21 -14 -26 -6 -3
6 -1 9 6 8 7 -2 14 3 15 10 3 25 8 29 18 13z m2516 -51 c8 -5 11 -10 5 -10 -5
0 -17 5 -25 10 -8 5 -10 10 -5 10 6 0 17 -5 25 -10z m-193 -35 c0 -10 -6 -14
-14 -10 -8 3 -18 5 -21 6 -4 0 2 4 13 9 11 5 20 9 21 9 0 1 1 -6 1 -14z m143
-10 c-7 -8 -18 -15 -24 -15 -6 0 -2 7 8 15 25 19 32 19 16 0z m-285 -33 c-3
-3 -11 0 -18 7 -9 10 -8 11 6 5 10 -3 15 -9 12 -12z m-2277 -17 c-3 -3 -9 2
-12 12 -6 14 -5 15 5 6 7 -7 10 -15 7 -18z m2213 5 c5 0 9 -5 9 -11 0 -7 -11
-9 -29 -6 -19 4 -31 2 -35 -6 -2 -7 -5 -5 -5 5 -1 18 17 29 37 22 8 -2 18 -4
23 -4z m-2256 -30 c3 -5 1 -10 -4 -10 -6 0 -11 5 -11 10 0 6 2 10 4 10 3 0 8
-4 11 -10z m4605 0 c0 -5 -4 -10 -10 -10 -5 0 -10 5 -10 10 0 6 5 10 10 10 6
0 10 -4 10 -10z m-2799 -27 c-12 -20 -14 -14 -5 12 4 9 9 14 11 11 3 -2 0 -13
-6 -23z m49 23 c0 -2 -7 -7 -16 -10 -8 -3 -12 -2 -9 4 6 10 25 14 25 6z m884
-8 c-3 -4 -9 -8 -15 -8 -5 0 -9 4 -9 8 0 5 7 9 15 9 8 0 12 -4 9 -9z m-764
-17 c0 -6 -8 -10 -17 -10 -10 1 -29 -2 -43 -6 -24 -7 -24 -7 -5 8 22 18 65 23
65 8z m777 -27 c-3 -3 -12 -4 -19 -1 -8 3 -5 6 6 6 11 1 17 -2 13 -5z m-2917
-19 c0 -8 -4 -15 -10 -15 -5 0 -10 7 -10 15 0 8 5 15 10 15 6 0 10 -7 10 -15z
m1787 -10 c0 -8 -4 -15 -9 -15 -10 0 -11 14 -1 23 9 10 10 9 10 -8z m3553 5
c0 -5 -2 -10 -4 -10 -3 0 -8 5 -11 10 -3 6 -1 10 4 10 6 0 11 -4 11 -10z
m-5225 -10 c-3 -5 -13 -10 -21 -10 -8 0 -14 5 -14 10 0 6 9 10 21 10 11 0 17
-4 14 -10z m1480 0 c3 -5 1 -10 -4 -10 -6 0 -11 5 -11 10 0 6 2 10 4 10 3 0 8
-4 11 -10z m130 0 c-3 -5 -13 -10 -21 -10 -8 0 -14 5 -14 10 0 6 9 10 21 10
11 0 17 -4 14 -10z m3995 -10 c0 -5 -5 -10 -11 -10 -5 0 -7 5 -4 10 3 6 8 10
11 10 2 0 4 -4 4 -10z m-5565 -50 c3 -5 1 -10 -4 -10 -6 0 -11 5 -11 10 0 6 2
10 4 10 3 0 8 -4 11 -10z m3425 -21 c0 -5 -4 -9 -8 -9 -5 0 -9 7 -9 15 0 8 4
12 9 9 4 -3 8 -9 8 -15z m-3505 0 c-4 -6 -13 -8 -21 -5 -8 3 -14 1 -14 -4 0
-6 -8 -10 -17 -10 -16 1 -16 2 1 15 23 17 60 20 51 4z m2035 -9 c-20 -13 -37
-12 -46 2 -4 7 -3 8 4 4 7 -4 20 -3 29 3 22 12 33 4 13 -9z m1935 10 c3 -5 1
-10 -4 -10 -6 0 -11 5 -11 10 0 6 2 10 4 10 3 0 8 -4 11 -10z m-2055 -9 c0
-17 -18 -21 -24 -6 -3 9 0 15 9 15 8 0 15 -4 15 -9z m1500 5 c0 -2 -7 -7 -16
-10 -8 -3 -12 -2 -9 4 6 10 25 14 25 6z m440 -16 c0 -13 -5 -18 -15 -14 -11 5
-12 9 -2 20 16 18 17 17 17 -6z m-954 -17 c-7 -7 -26 7 -26 19 0 6 6 6 15 -2
9 -7 13 -15 11 -17z m-1081 7 c3 -5 -3 -10 -15 -10 -12 0 -18 5 -15 10 3 6 10
10 15 10 5 0 12 -4 15 -10z m1405 0 c0 -5 -4 -10 -10 -10 -5 0 -10 5 -10 10 0
6 5 10 10 10 6 0 10 -4 10 -10z m660 0 c0 -5 -5 -10 -11 -10 -5 0 -7 5 -4 10
3 6 8 10 11 10 2 0 4 -4 4 -10z m-3950 -3 c0 -2 -10 -12 -21 -23 -22 -19 -22
-19 -8 4 12 19 29 30 29 19z m2997 -26 c2 -15 -2 -18 -17 -14 -24 6 -27 23 -4
23 9 0 12 5 8 13 -4 6 -3 9 1 4 5 -4 10 -16 12 -26z m643 19 c0 -5 -2 -10 -4
-10 -3 0 -8 5 -11 10 -3 6 -1 10 4 10 6 0 11 -4 11 -10z m-1020 -14 c0 -11
-19 -15 -25 -6 -3 5 1 10 9 10 9 0 16 -2 16 -4z m40 -17 c0 -14 -17 -10 -23 5
-4 10 -1 13 9 9 7 -3 14 -9 14 -14z m173 -6 c-7 -2 -19 -2 -25 0 -7 3 -2 5 12
5 14 0 19 -2 13 -5z m-3023 -19 c0 -2 -7 -4 -15 -4 -8 0 -15 4 -15 10 0 5 7 7
15 4 8 -4 15 -8 15 -10z m140 6 c0 -5 -5 -10 -11 -10 -5 0 -7 5 -4 10 3 6 8
10 11 10 2 0 4 -4 4 -10z m2338 3 c-11 -3 -15 -10 -11 -21 6 -15 5 -15 -10 -3
-21 17 -13 31 16 30 16 -1 17 -3 5 -6z m-44 -35 c-9 -14 -23 2 -17 18 4 12 8
13 14 3 4 -7 5 -17 3 -21z m-2407 0 c-3 -8 -6 -5 -6 6 -1 11 2 17 5 13 3 -3 4
-12 1 -19z m2359 2 c8 0 14 -4 14 -9 0 -5 -11 -8 -25 -8 -28 0 -28 -1 -18 23
4 11 8 13 11 6 2 -7 10 -12 18 -12z m209 10 c3 -5 -3 -10 -15 -10 -12 0 -18 5
-15 10 3 6 10 10 15 10 5 0 12 -4 15 -10z m-70 -10 c-3 -5 -12 -10 -18 -10 -7
0 -6 4 3 10 19 12 23 12 15 0z m-240 -10 c-3 -5 -13 -10 -21 -10 -8 0 -12 5
-9 10 3 6 13 10 21 10 8 0 12 -4 9 -10z m-2205 -9 c0 -10 -41 -43 -47 -37 -7
7 10 36 18 30 5 -3 9 0 9 5 0 6 5 11 10 11 6 0 10 -4 10 -9z m2396 0 c-6 -9
-46 -22 -46 -15 0 3 10 9 23 14 29 11 29 11 23 1z m-1069 -27 c-3 -3 -12 -4
-19 -1 -8 3 -5 6 6 6 11 1 17 -2 13 -5z m-1402 -44 c-10 -11 -23 -20 -29 -20
-6 1 0 10 13 20 30 26 39 26 16 0z m975 -54 c0 -9 -30 -14 -35 -6 -4 6 3 10
14 10 12 0 21 -2 21 -4z m245 -16 c-3 -5 -11 -10 -16 -10 -6 0 -7 5 -4 10 3 6
11 10 16 10 6 0 7 -4 4 -10z m-76 -14 c-6 -5 -197 -53 -244 -60 -22 -4 -53 -9
-70 -12 -29 -6 -29 -5 6 14 21 10 79 25 130 32 52 7 101 17 109 21 15 8 77 13
69 5z m-376 -18 c18 7 42 12 53 11 10 0 -19 -11 -65 -25 -81 -23 -123 -26 -67
-5 14 6 26 16 26 23 0 9 3 9 10 -2 7 -12 14 -12 43 -2z m5155 -39 c17 -16 32
-37 32 -45 0 -8 5 -12 10 -9 6 3 10 2 10 -4 0 -19 196 -205 237 -224 12 -5 20
-14 17 -19 -3 -4 9 -16 25 -26 17 -9 34 -25 37 -34 3 -10 10 -18 15 -18 5 0
21 -13 36 -30 14 -16 30 -30 35 -30 5 0 21 -14 35 -30 14 -17 28 -29 30 -26 3
3 19 -8 35 -25 17 -16 47 -42 67 -57 20 -15 43 -34 51 -43 8 -9 21 -14 28 -12
6 3 12 -1 12 -9 0 -8 23 -32 52 -53 68 -52 91 -64 103 -58 5 4 7 3 3 -2 -6 -7
95 -95 108 -95 3 0 -3 12 -12 28 l-16 27 21 -24 c12 -13 21 -28 21 -35 0 -14
51 -46 74 -46 9 0 38 -22 66 -50 28 -27 55 -50 60 -50 15 0 50 -33 50 -47 0
-7 -13 -1 -29 14 -16 16 -46 37 -68 48 -21 10 -57 32 -81 47 -24 15 -46 28
-49 28 -3 0 -20 10 -37 23 -36 27 -66 41 -83 38 -7 -1 -13 3 -13 8 0 6 -7 8
-15 5 -11 -5 -13 -2 -9 10 3 9 2 16 -3 16 -4 0 -33 23 -63 50 -30 28 -58 50
-61 50 -6 0 -70 47 -99 73 -42 38 -90 68 -99 62 -7 -3 -8 0 -5 9 3 9 2 16 -3
16 -5 0 -29 18 -53 40 -24 22 -52 40 -62 40 -10 0 -18 6 -18 13 0 16 -118 110
-137 110 -7 0 -10 4 -7 8 3 5 -14 22 -36 38 -54 39 -120 99 -120 109 0 4 -20
28 -45 52 -25 24 -45 52 -45 62 0 10 -6 18 -14 18 -8 0 -17 12 -20 28 -4 15
-9 35 -12 45 -8 25 7 21 44 -14z m-5131 -25 c-3 -3 -12 -4 -19 -1 -8 3 -5 6 6
6 11 1 17 -2 13 -5z m-134 -31 c-7 -2 -19 -2 -25 0 -7 3 -2 5 12 5 14 0 19 -2
13 -5z m5302 -84 c45 -47 47 -50 17 -33 -39 22 -65 49 -68 69 -1 8 -1 15 0 15
1 0 24 -23 51 -51z m205 -53 c0 -2 -7 -6 -15 -10 -8 -3 -15 -1 -15 4 0 6 7 10
15 10 8 0 15 -2 15 -4z m-6910 -460 c0 -2 -7 -7 -16 -10 -8 -3 -12 -2 -9 4 6
10 25 14 25 6z m7845 -306 c3 -5 -1 -10 -9 -10 -9 0 -16 5 -16 10 0 6 4 10 9
10 6 0 13 -4 16 -10z m-2695 -34 c0 -3 -4 -8 -10 -11 -5 -3 -10 -1 -10 4 0 6
5 11 10 11 6 0 10 -2 10 -4z m585 -6 c3 -5 2 -10 -4 -10 -5 0 -13 5 -16 10 -3
6 -2 10 4 10 5 0 13 -4 16 -10z m-1075 -44 c0 -2 -7 -7 -16 -10 -8 -3 -12 -2
-9 4 6 10 25 14 25 6z m3314 -22 c26 -25 18 -34 -14 -16 -16 9 -30 20 -30 25
0 13 28 8 44 -9z m-2819 -4 c3 -5 -1 -10 -10 -10 -9 0 -13 5 -10 10 3 6 8 10
10 10 2 0 7 -4 10 -10z m-90 -10 c-3 -5 -14 -10 -23 -10 -15 0 -15 2 -2 10 20
13 33 13 25 0z m2710 0 c3 -5 1 -10 -4 -10 -6 0 -11 5 -11 10 0 6 2 10 4 10 3
0 8 -4 11 -10z m-3115 -10 c0 -5 -5 -10 -11 -10 -5 0 -7 5 -4 10 3 6 8 10 11
10 2 0 4 -4 4 -10z m53 -19 c22 3 60 -1 56 -5 -3 -4 -129 -21 -294 -42 -72 -8
-183 -25 -207 -30 -21 -5 -88 -15 -178 -28 -19 -3 -54 -8 -78 -11 -23 -4 -40
-9 -38 -13 2 -4 -16 -5 -40 -3 -25 1 -51 -2 -59 -9 -8 -6 -19 -9 -25 -5 -6 4
-19 3 -28 -1 -9 -4 -29 -6 -44 -5 -16 2 -28 -2 -28 -6 0 -5 -15 -10 -32 -10
-49 0 -138 -15 -138 -22 0 -4 -19 -8 -42 -9 -59 -3 -98 -12 -98 -22 0 -11 -50
-6 -53 5 -1 5 7 9 18 10 29 3 267 54 285 62 8 3 22 7 30 8 8 1 42 8 75 14 33
7 67 13 75 13 8 0 31 5 50 11 19 7 46 12 60 12 48 1 150 17 150 23 0 4 21 7
48 8 83 2 164 11 171 20 3 5 35 10 71 12 230 11 269 16 271 40 1 15 2 15 6 -1
2 -10 10 -17 16 -16z m94 23 c-3 -3 -12 -4 -19 -1 -8 3 -5 6 6 6 11 1 17 -2
13 -5z m93 -4 c14 -4 18 -9 10 -9 -8 -1 -37 -4 -65 -6 -49 -4 -49 -4 -20 10
35 15 41 16 75 5z m45 0 c3 -5 1 -10 -4 -10 -6 0 -11 5 -11 10 0 6 2 10 4 10
3 0 8 -4 11 -10z m3193 -55 c4 -4 2 -5 -5 -2 -6 4 -13 2 -15 -4 -4 -11 -38 -2
-38 11 0 11 47 6 58 -5z m57 -15 c3 -5 1 -10 -4 -10 -6 0 -11 5 -11 10 0 6 2
10 4 10 3 0 8 -4 11 -10z m-8829 -40 c-14 -17 -26 -27 -26 -22 0 6 -3 18 -7
28 -4 11 -2 15 4 11 5 -4 19 0 29 8 29 21 29 9 0 -25z m8910 13 c-10 -10 -19
5 -10 18 6 11 8 11 12 0 2 -7 1 -15 -2 -18z m64 -13 c0 -5 -8 -10 -17 -10 -15
0 -16 2 -3 10 19 12 20 12 20 0z m-3913 -16 c-3 -3 -12 -4 -19 -1 -8 3 -5 6 6
6 11 1 17 -2 13 -5z m693 -14 c0 -5 -4 -10 -10 -10 -5 0 -10 5 -10 10 0 6 5
10 10 10 6 0 10 -4 10 -10z m3160 0 c0 -5 -2 -10 -4 -10 -3 0 -8 5 -11 10 -3
6 -1 10 4 10 6 0 11 -4 11 -10z m-4685 -10 c3 -5 1 -10 -4 -10 -6 0 -11 5 -11
10 0 6 2 10 4 10 3 0 8 -4 11 -10z m1420 0 c3 -5 1 -10 -4 -10 -6 0 -11 5 -11
10 0 6 2 10 4 10 3 0 8 -4 11 -10z m3315 -14 c0 -3 -4 -8 -10 -11 -5 -3 -10
-1 -10 4 0 6 5 11 10 11 6 0 10 -2 10 -4z m-4280 -16 c8 -5 13 -10 10 -11 -3
0 -15 -2 -28 -5 -13 -2 -21 0 -18 5 4 5 0 12 -6 14 -7 3 -4 6 7 6 11 0 27 -4
35 -9z m360 0 c0 -5 -5 -10 -11 -10 -5 0 -7 5 -4 10 3 6 8 10 11 10 2 0 4 -4
4 -10z m4025 -10 c3 -5 -1 -10 -9 -10 -9 0 -16 5 -16 10 0 6 4 10 9 10 6 0 13
-4 16 -10z m-9005 -14 c0 -3 -4 -8 -10 -11 -5 -3 -10 -1 -10 4 0 6 5 11 10 11
6 0 10 -2 10 -4z m4455 -6 c3 -6 -1 -7 -9 -4 -18 7 -21 14 -7 14 6 0 13 -4 16
-10z m743 -17 c-7 -8 -14 -11 -16 -5 -1 5 -12 8 -22 5 -11 -3 -20 -1 -20 5 0
12 37 20 58 14 10 -4 10 -7 0 -19z m-778 8 c0 -6 -4 -13 -10 -16 -5 -3 -10 1
-10 9 0 9 5 16 10 16 6 0 10 -4 10 -9z m175 -8 c18 -14 18 -15 2 -9 -10 3 -23
6 -28 6 -5 0 -9 5 -9 10 0 14 12 12 35 -7z m-538 -25 c-3 -8 -6 -5 -6 6 -1 11
2 17 5 13 3 -3 4 -12 1 -19z m407 0 c-5 -8 -2 -9 10 -5 9 4 14 3 11 -2 -3 -5
-1 -12 5 -16 13 -8 13 -25 0 -25 -5 0 -10 6 -10 14 0 8 -9 18 -20 21 -20 6
-19 25 1 25 6 0 7 -5 3 -12z m566 2 c0 -13 -20 -13 -40 0 -12 8 -9 10 13 10
15 0 27 -4 27 -10z m-835 -20 c-3 -5 -13 -6 -21 -3 -12 4 -13 8 -3 14 15 9 32
2 24 -11z m-308 4 c-3 -3 -12 -4 -19 -1 -8 3 -5 6 6 6 11 1 17 -2 13 -5z m108
-24 c-3 -5 -12 -10 -18 -10 -7 0 -6 4 3 10 19 12 23 12 15 0z m5100 0 c3 -5 2
-10 -4 -10 -5 0 -13 5 -16 10 -3 6 -2 10 4 10 5 0 13 -4 16 -10z m-4275 -10
c-8 -5 -22 -10 -30 -10 -13 0 -13 1 0 10 8 5 22 10 30 10 13 0 13 -1 0 -10z
m-1106 -19 c3 -5 -12 -11 -35 -13 -35 -3 -38 -2 -23 9 21 15 50 17 58 4z m936
-15 c0 -2 -7 -6 -15 -10 -8 -3 -15 -1 -15 4 0 6 7 10 15 10 8 0 15 -2 15 -4z
m290 -28 c0 -8 -27 -4 -37 6 -4 4 -1 11 7 16 13 8 29 -3 30 -22z m-4980 12 c0
-5 -2 -10 -4 -10 -3 0 -8 5 -11 10 -3 6 -1 10 4 10 6 0 11 -4 11 -10z m4590 2
c0 -15 -24 -32 -44 -31 -20 0 -20 1 2 9 12 5 22 14 22 20 0 5 5 10 10 10 6 0
10 -4 10 -8z m-4160 -31 c0 -5 -9 -7 -20 -4 -11 3 -20 12 -20 20 0 11 4 11 20
3 11 -6 20 -15 20 -19z m4368 14 c2 -1 -4 -5 -12 -8 -8 -3 -22 1 -33 9 -17 13
-16 14 12 8 17 -4 31 -8 33 -9z m42 -5 c0 -5 -2 -10 -4 -10 -3 0 -8 5 -11 10
-3 6 -1 10 4 10 6 0 11 -4 11 -10z m-346 -13 c-6 -16 -41 -19 -50 -5 -4 6 -2
8 4 4 6 -3 13 -2 17 4 9 15 35 12 29 -3z m416 -7 c0 -5 -7 -7 -15 -4 -8 4 -12
10 -9 15 6 11 24 2 24 -11z m-5036 -39 c-6 -6 -24 19 -24 34 1 6 7 1 15 -9 8
-11 12 -22 9 -25z m209 14 c3 -17 0 -24 -7 -22 -6 3 -10 10 -8 16 1 6 -3 11
-9 11 -5 0 -7 5 -4 10 11 17 23 11 28 -15z m4227 5 c0 -5 -5 -10 -11 -10 -5 0
-7 5 -4 10 3 6 8 10 11 10 2 0 4 -4 4 -10z m300 0 c0 -5 -2 -10 -4 -10 -3 0
-8 5 -11 10 -3 6 -1 10 4 10 6 0 11 -4 11 -10z m-114 -25 c-24 -26 -46 -33
-46 -15 0 6 5 10 11 10 6 0 17 7 25 15 26 26 34 17 10 -10z m89 15 c3 -5 1
-10 -4 -10 -6 0 -11 5 -11 10 0 6 2 10 4 10 3 0 8 -4 11 -10z m-4395 -40 c0
-5 -8 -10 -17 -10 -15 0 -16 2 -3 10 19 12 20 12 20 0z m3380 5 c0 -8 -50 -26
-84 -30 -44 -6 -17 13 29 21 22 3 42 8 44 10 6 6 11 5 11 -1z m965 -5 c8 -13
-5 -13 -25 0 -13 8 -13 10 2 10 9 0 20 -4 23 -10z m-1544 -19 c-7 -5 -10 -14
-7 -20 4 -7 -1 -11 -13 -11 -10 0 -21 -3 -23 -7 -1 -5 -48 -30 -103 -57 -55
-28 -143 -74 -195 -103 -82 -47 -175 -93 -186 -93 -15 0 2 19 31 34 19 11 35
23 35 28 0 4 9 8 19 8 11 0 22 4 26 9 3 6 93 53 200 106 107 53 197 101 200
106 4 5 12 9 18 9 8 0 7 -3 -2 -9z m1366 -7 c-3 -3 -12 -4 -19 -1 -8 3 -5 6 6
6 11 1 17 -2 13 -5z m-942 -14 c4 -7 -3 -8 -21 -4 -16 4 -25 3 -21 -3 3 -5 1
-15 -5 -23 -8 -12 -9 -11 -4 3 5 16 2 18 -27 11 -17 -4 -39 -8 -47 -9 -9 0
-21 -4 -28 -9 -7 -4 -26 -8 -42 -8 -16 -1 -27 -5 -24 -9 3 -5 -1 -6 -9 -3 -8
3 -18 1 -22 -5 -3 -6 -14 -11 -23 -10 -11 0 -12 2 -4 6 6 2 9 9 6 15 -4 5 -13
3 -22 -5 -10 -9 -26 -17 -37 -19 -11 -1 -24 -8 -30 -14 -5 -6 -50 -23 -100
-39 -112 -36 -167 -60 -158 -68 3 -4 4 -7 0 -7 -3 0 -9 4 -12 10 -7 11 76 56
225 122 25 11 53 24 62 29 10 5 30 9 45 9 16 0 46 5 67 11 38 11 141 25 198
28 15 0 30 -4 33 -9z m42 -6 c-3 -3 -12 -4 -19 -1 -8 3 -5 6 6 6 11 1 17 -2
13 -5z m1083 -15 c0 -6 -4 -7 -10 -4 -5 3 -10 11 -10 16 0 6 5 7 10 4 6 -3 10
-11 10 -16z m-4177 -12 c4 -10 -2 -13 -19 -9 -13 2 -21 8 -18 13 8 14 31 11
37 -4z m8704 -3 c-3 -3 -12 -4 -19 -1 -8 3 -5 6 6 6 11 1 17 -2 13 -5z m-5227
-18 c0 -3 -4 -8 -10 -11 -5 -3 -10 -1 -10 4 0 6 5 11 10 11 6 0 10 -2 10 -4z
m215 -6 c3 -5 1 -10 -4 -10 -6 0 -11 5 -11 10 0 6 2 10 4 10 3 0 8 -4 11 -10z
m-35 -20 c0 -5 -5 -10 -11 -10 -5 0 -7 5 -4 10 3 6 8 10 11 10 2 0 4 -4 4 -10z
m-135 -10 c3 -5 1 -10 -4 -10 -6 0 -11 5 -11 10 0 6 2 10 4 10 3 0 8 -4 11
-10z m-335 -50 c0 -5 -7 -10 -16 -10 -8 0 -12 5 -9 10 3 6 10 10 16 10 5 0 9
-4 9 -10z m-1370 -215 c4 -25 4 -42 0 -38 -9 9 -21 97 -13 89 4 -3 9 -26 13
-51z m-1450 -19 c0 -3 -4 -8 -10 -11 -5 -3 -10 -1 -10 4 0 6 5 11 10 11 6 0
10 -2 10 -4z m8145 -125 c-3 -6 -11 -11 -17 -11 -6 0 -6 6 2 15 14 17 26 13
15 -4z m-1685 -188 c-1 -24 -2 -26 -11 -10 -5 9 -7 22 -4 27 10 17 15 11 15
-17z m-750 -188 c-10 -12 -16 -13 -27 -3 -12 10 -11 13 9 24 26 14 37 1 18
-21z m742 5 c3 -17 2 -33 -2 -35 -10 -6 -32 44 -25 56 12 18 23 9 27 -21z
m-5572 -20 c0 -5 -9 -10 -20 -10 -11 0 -20 5 -20 10 0 6 9 10 20 10 11 0 20
-4 20 -10z m4780 0 c0 -5 -10 -10 -22 -9 -22 0 -22 1 -3 9 11 5 21 9 23 9 1 1
2 -3 2 -9z m-3911 -87 c12 -36 19 -68 17 -71 -9 -9 -26 10 -26 29 0 10 -4 19
-10 19 -5 0 -10 7 -10 15 0 9 -7 18 -15 21 -12 5 -12 9 3 30 9 13 18 24 19 24
0 0 11 -30 22 -67z m5851 5 c-11 -12 -23 -18 -27 -15 -3 4 2 14 13 22 29 22
37 18 14 -7z m-6244 -10 c36 -31 45 -41 39 -47 -4 -3 -11 2 -16 12 -6 9 -16
17 -23 17 -8 0 -19 7 -26 15 -16 19 4 21 26 3z m3944 -19 c0 -6 -4 -7 -10 -4
-5 3 -10 11 -10 16 0 6 5 7 10 4 6 -3 10 -11 10 -16z m2240 -34 c-13 -14 -20
-25 -16 -25 4 0 -14 -21 -41 -47 -26 -27 -47 -51 -48 -54 0 -3 -12 -17 -27
-31 -16 -14 -28 -29 -28 -33 0 -4 -24 -31 -52 -60 -29 -28 -60 -62 -68 -75
-23 -34 -61 -79 -97 -113 -18 -16 -35 -38 -38 -48 -4 -10 -11 -18 -18 -16 -6
1 -11 -3 -12 -10 0 -6 -12 -23 -27 -37 -16 -14 -28 -30 -28 -36 0 -5 -7 -10
-16 -10 -8 0 -12 -5 -9 -11 4 -6 -3 -13 -15 -16 -14 -4 -19 -11 -15 -22 3 -8
3 -12 -1 -9 -7 8 -54 -36 -54 -50 0 -5 -10 -12 -22 -15 -12 -4 -19 -9 -15 -13
3 -4 -11 -22 -33 -41 -21 -19 -42 -44 -46 -55 -3 -12 -19 -34 -35 -49 -17 -16
-26 -29 -22 -29 4 0 -5 -11 -21 -25 -16 -14 -26 -25 -23 -25 3 0 -11 -18 -32
-41 -22 -22 -44 -53 -51 -69 -16 -38 -42 -30 -30 9 4 15 3 35 -2 45 -7 13 0
28 32 66 44 53 50 56 67 39 7 -7 10 -2 7 21 -3 24 1 33 20 42 16 7 22 16 18
26 -4 11 -1 14 12 9 9 -4 15 -3 12 2 -6 9 45 57 57 53 4 -1 7 7 7 18 0 11 8
23 18 27 32 11 44 25 30 34 -9 6 -7 10 7 15 25 10 135 118 135 133 0 6 5 10
12 9 7 -2 13 3 14 10 1 6 2 17 3 23 0 5 6 7 11 4 6 -4 23 8 38 25 15 18 42 48
60 69 18 20 40 51 48 69 10 21 20 32 29 28 8 -3 25 10 41 31 15 20 50 58 77
84 32 31 44 48 35 52 -7 2 -2 8 14 12 15 4 37 21 49 39 12 18 31 37 43 42 12
5 21 16 21 24 0 8 7 18 15 22 30 13 33 8 10 -17z m-6062 -18 c11 0 20 -4 20
-7 -2 -19 4 -28 22 -33 11 -3 18 -1 14 4 -6 11 -2 11 20 3 9 -3 16 -17 16 -31
0 -18 4 -24 14 -20 10 4 13 1 9 -9 -7 -20 -16 -18 -43 11 -13 14 -27 25 -31
25 -6 0 -79 45 -108 66 -1 2 0 8 4 14 5 8 12 7 25 -5 10 -9 27 -17 38 -18z
m3656 -6 c7 -11 -14 -20 -32 -13 -11 4 -11 6 0 13 17 11 26 11 32 0z m1306
-291 c0 -5 -2 -10 -4 -10 -3 0 -8 5 -11 10 -3 6 -1 10 4 10 6 0 11 -4 11 -10z
m-2370 -191 c0 -6 -4 -7 -10 -4 -5 3 -10 11 -10 16 0 6 5 7 10 4 6 -3 10 -11
10 -16z m2364 -15 c18 -18 21 -34 6 -34 -5 0 -10 7 -10 15 0 8 -4 15 -10 15
-5 0 -10 5 -10 10 0 14 6 13 24 -6z m869 -5 c-8 -8 -16 -8 -30 0 -16 9 -14 10
12 11 21 0 26 -3 18 -11z m-3486 -125 c-3 -3 -12 -4 -19 -1 -8 3 -5 6 6 6 11
1 17 -2 13 -5z m2630 -44 c-1 -22 -17 -28 -17 -7 0 12 9 27 16 27 2 0 2 -9 1
-20z m-2852 -60 c3 -5 1 -10 -4 -10 -6 0 -11 5 -11 10 0 6 2 10 4 10 3 0 8 -4
11 -10z m3042 -156 c-3 -3 -12 -4 -19 -1 -8 3 -5 6 6 6 11 1 17 -2 13 -5z
m-207 -248 c0 -11 -19 -15 -25 -6 -3 5 1 10 9 10 9 0 16 -2 16 -4z m-15 -36
c-3 -5 -11 -10 -16 -10 -6 0 -7 5 -4 10 3 6 11 10 16 10 6 0 7 -4 4 -10z m-75
-20 c0 -5 -5 -10 -11 -10 -5 0 -7 5 -4 10 3 6 8 10 11 10 2 0 4 -4 4 -10z
m270 -71 c0 -4 -7 -6 -15 -3 -8 4 -15 10 -15 15 0 4 7 6 15 3 8 -4 15 -10 15
-15z m-4093 -45 c-3 -3 -12 -4 -19 -1 -8 3 -5 6 6 6 11 1 17 -2 13 -5z m4108
-22 c-3 -3 -11 0 -18 7 -9 10 -8 11 6 5 10 -3 15 -9 12 -12z m-4355 -102 c-13
-11 -30 -20 -39 -20 -10 0 -4 8 14 19 40 26 54 26 25 1z m-80 -50 c0 -5 -2
-10 -4 -10 -3 0 -8 5 -11 10 -3 6 -1 10 4 10 6 0 11 -4 11 -10z m-74 -50 c0
-12 -4 -16 -9 -11 -5 5 -6 14 -3 20 10 15 12 14 12 -9z m-46 -39 c0 -5 -7 -11
-15 -15 -15 -5 -20 5 -8 17 9 10 23 9 23 -2z m-40 -58 c0 -2 -11 -3 -24 -3
-22 0 -26 9 -17 37 1 3 41 -30 41 -34z m-170 -67 c-25 -15 -45 -12 -35 5 4 5
18 9 33 9 l27 -1 -25 -13z m-89 -61 c0 -5 -5 -11 -12 -14 -6 -2 -9 1 -5 7 3 6
0 13 -6 16 -7 3 -5 5 5 3 10 -1 18 -6 18 -12z m99 -15 c0 -5 -5 -10 -11 -10
-5 0 -7 5 -4 10 3 6 8 10 11 10 2 0 4 -4 4 -10z m-41 -51 c-22 -13 -31 -11
-17 5 7 8 17 12 22 9 4 -3 2 -9 -5 -14z m-106 -11 c3 -9 -8 -13 -34 -13 -41
-1 -41 10 1 18 14 2 26 5 26 6 1 0 4 -5 7 -11z m-178 -78 c-3 -5 -13 -10 -21
-10 -8 0 -14 -5 -14 -12 0 -6 -3 -8 -7 -4 -5 4 1 14 11 22 23 16 40 19 31 4z"/>
<path d="M4871 6064 c0 -11 3 -14 6 -6 3 7 2 16 -1 19 -3 4 -6 -2 -5 -13z"/>
<path d="M3705 5810 c-3 -5 -4 -13 -1 -18 2 -4 -6 -12 -19 -18 -20 -10 -22 -9
-17 5 5 14 3 14 -11 2 -9 -7 -14 -17 -11 -22 3 -5 0 -9 -5 -9 -6 0 -11 -7 -11
-16 0 -9 -5 -12 -12 -8 -10 5 -10 4 -1 -6 14 -15 50 -3 93 29 20 16 22 22 11
35 -7 8 -10 20 -6 26 3 5 4 10 1 10 -3 0 -8 -4 -11 -10z"/>
<path d="M7900 5118 c0 -8 30 -13 60 -9 8 0 44 1 79 1 35 1 61 3 58 6 -9 9
-197 11 -197 2z"/>
<path d="M8116 5122 c-3 -5 8 -9 25 -10 16 0 27 4 24 9 -8 11 -42 12 -49 1z"/>
<path d="M8182 5124 c9 -8 41 -10 268 -19 168 -6 214 -1 80 9 -157 11 -355 17
-348 10z"/>
<path d="M7678 5115 c-3 -4 -50 -11 -105 -16 -54 -5 -109 -12 -123 -15 -14 -3
-56 -7 -95 -10 -38 -3 -100 -11 -137 -19 -37 -8 -84 -15 -105 -16 -40 -1 -129
-26 -103 -29 25 -3 -22 -19 -55 -18 l-30 0 33 9 c43 13 41 23 -4 14 -20 -3
-63 -8 -96 -11 -33 -2 -72 -11 -87 -19 -15 -7 -63 -17 -107 -21 -43 -3 -104
-14 -134 -24 -30 -10 -85 -24 -122 -31 -38 -7 -68 -16 -68 -20 0 -4 15 -3 32
2 44 12 48 12 42 -6 -7 -17 9 -19 41 -5 17 7 17 9 3 9 -10 1 -18 6 -18 11 0
13 33 13 46 0 12 -12 76 -1 68 11 -3 5 -10 7 -15 4 -5 -4 -9 -2 -9 3 0 5 15
13 33 17 55 13 107 15 107 6 0 -6 -8 -10 -17 -10 -33 -1 -83 -13 -83 -21 0 -4
42 1 93 11 94 19 117 23 200 34 26 4 47 10 47 14 0 3 17 7 38 7 69 2 276 34
286 45 8 7 7 10 -4 9 -8 -1 -24 -1 -35 0 -25 3 59 18 139 25 60 5 73 -2 20
-11 -47 -9 -42 -17 6 -11 25 3 62 6 84 6 29 1 37 4 33 16 -8 20 2 25 77 29 37
3 76 8 89 11 22 6 22 6 2 -10 -11 -8 -25 -13 -32 -11 -7 3 -13 1 -13 -4 0 -6
13 -10 29 -10 20 0 32 6 36 19 8 25 62 34 142 23 41 -6 60 -5 56 1 -4 7 1 8
13 3 10 -4 15 -4 11 0 -9 10 -201 17 -209 9z m-220 -50 c-3 -3 -18 -8 -34 -11
-22 -3 -25 -2 -14 6 15 10 58 14 48 5z m-291 -41 c-4 -4 -22 -8 -41 -10 -20
-1 -50 -5 -68 -9 -23 -5 -30 -4 -23 3 10 10 47 17 109 20 16 1 26 -1 23 -4z
m-262 -33 c-15 -13 -85 -23 -85 -12 0 5 19 12 43 14 23 2 44 4 47 5 2 1 0 -2
-5 -7z m-105 -20 c0 -13 -25 -20 -40 -11 -10 6 -8 9 6 13 31 8 34 7 34 -2z
m-85 -21 c-27 -12 -43 -12 -25 0 8 5 22 9 30 9 10 0 8 -3 -5 -9z m-195 -34 c0
-11 -19 -15 -25 -6 -3 5 1 10 9 10 9 0 16 -2 16 -4z"/>
<path d="M8638 5093 c12 -2 32 -2 45 0 12 2 2 4 -23 4 -25 0 -35 -2 -22 -4z"/>
<path d="M7710 5086 c0 -2 7 -7 16 -10 8 -3 12 -2 9 4 -6 10 -25 14 -25 6z"/>
<path d="M7768 5073 c12 -2 32 -2 45 0 12 2 2 4 -23 4 -25 0 -35 -2 -22 -4z"/>
<path d="M7868 5073 c7 -3 16 -2 19 1 4 3 -2 6 -13 5 -11 0 -14 -3 -6 -6z"/>
<path d="M7510 5060 c-11 -7 -4 -10 28 -10 23 0 42 5 42 10 0 13 -50 13 -70 0z"/>
<path d="M7698 5063 c7 -3 16 -2 19 1 4 3 -2 6 -13 5 -11 0 -14 -3 -6 -6z"/>
<path d="M7255 5032 c-3 -3 -5 -8 -5 -12 0 -9 49 0 55 10 5 8 -41 10 -50 2z"/>
<path d="M6350 4870 c-12 -8 -9 -10 13 -10 15 0 27 5 27 10 0 13 -20 13 -40 0z"/>
<path d="M6237 4848 c-7 -4 4 -8 23 -8 19 0 42 5 50 10 11 7 5 9 -23 7 -21 -1
-44 -5 -50 -9z"/>
<path d="M1910 4530 c0 -5 5 -10 10 -10 6 0 10 5 10 10 0 6 -4 10 -10 10 -5 0
-10 -4 -10 -10z"/>
<path d="M2275 4350 c-3 -5 -1 -10 4 -10 6 0 11 5 11 10 0 6 -2 10 -4 10 -3 0
-8 -4 -11 -10z"/>
<path d="M7648 6754 c-36 -11 -18 -27 21 -20 24 4 42 2 46 -5 4 -6 24 -9 44
-7 40 3 131 -20 131 -33 0 -5 9 -9 20 -9 31 0 24 17 -10 24 -16 3 -30 10 -30
16 0 5 3 9 8 9 17 -3 32 2 32 10 0 6 -8 10 -17 10 -10 0 -65 2 -123 5 -58 2
-113 2 -122 0z"/>
<path d="M7440 6740 c-25 -6 -25 -6 -3 -12 13 -3 26 -2 29 4 9 14 2 16 -26 8z"/>
<path d="M7510 6739 c0 -5 9 -9 20 -9 11 0 20 -4 20 -10 0 -5 -6 -7 -14 -4 -8
3 -17 1 -21 -5 -4 -7 4 -11 19 -11 26 0 44 -16 25 -22 -6 -2 1 -10 14 -17 27
-14 57 -9 57 10 0 6 -7 9 -15 5 -16 -6 -41 29 -37 55 2 11 -7 15 -33 16 -19 1
-35 -3 -35 -8z"/>
<path d="M7605 6740 c3 -5 8 -10 11 -10 2 0 4 5 4 10 0 6 -5 10 -11 10 -5 0
-7 -4 -4 -10z"/>
<path d="M7948 6738 c-15 -11 -14 -13 9 -25 14 -7 30 -10 37 -6 6 4 18 6 27 5
9 -2 35 1 58 7 22 5 41 6 41 2 0 -8 56 -8 65 1 10 9 -29 19 -90 23 -42 2 -55
-1 -60 -14 -6 -14 -7 -14 -16 2 -11 19 -46 22 -71 5z"/>
<path d="M7230 6729 c0 -5 5 -7 10 -4 6 3 10 8 10 11 0 2 -4 4 -10 4 -5 0 -10
-5 -10 -11z"/>
<path d="M7327 6725 c-21 -20 -10 -55 17 -55 17 0 18 2 6 10 -13 8 -13 10 2
10 9 0 20 -5 23 -10 3 -6 18 -7 32 -4 20 6 24 4 18 -7 -6 -11 -5 -11 5 -2 19
18 -6 48 -27 32 -18 -15 -29 -4 -15 14 7 8 9 17 5 20 -12 12 -51 7 -66 -8z"/>
<path d="M7114 6720 c-5 -5 -22 -11 -36 -12 -22 -2 -25 -5 -17 -21 6 -10 17
-21 25 -24 8 -3 14 -11 14 -19 0 -16 36 -19 45 -5 3 5 -3 12 -12 14 -16 4 -16
5 1 6 12 1 16 6 12 17 -6 16 4 17 53 3 7 -2 16 2 18 9 3 6 -3 12 -12 12 -11 0
-15 5 -11 15 4 12 -3 15 -32 15 -21 0 -42 -4 -48 -10z"/>
<path d="M7280 6720 c0 -5 4 -10 9 -10 6 0 13 5 16 10 3 6 -1 10 -9 10 -9 0
-16 -4 -16 -10z"/>
<path d="M6822 6705 c-60 -6 -96 -15 -102 -24 -7 -12 -12 -12 -34 3 -14 9 -26
12 -26 6 0 -10 -8 -11 -80 -10 -20 0 -45 -6 -55 -14 -17 -12 -18 -17 -6 -28
12 -11 13 -11 6 2 -6 12 -5 13 5 3 12 -11 11 -16 -6 -29 -16 -13 -16 -15 -1
-10 10 3 17 0 17 -8 0 -10 13 -14 43 -14 23 0 51 -1 62 -2 11 0 27 8 37 20 9
11 23 20 32 20 8 0 20 9 26 19 7 14 19 19 37 17 24 -3 27 -8 27 -34 -1 -22 3
-29 12 -25 8 3 12 9 9 13 -9 15 15 22 31 9 8 -6 17 -9 21 -5 3 3 0 6 -8 7 -8
0 2 6 21 13 21 8 40 10 46 5 7 -6 16 -3 25 7 10 13 10 17 -1 24 -8 5 -18 6
-22 4 -4 -3 -5 2 -2 10 7 17 16 20 27 9 4 -3 19 -8 33 -9 14 -2 24 0 20 3 -3
3 2 12 12 20 15 11 10 13 -35 11 -29 -2 -53 -7 -53 -12 0 -5 -6 -4 -12 1 -8 5
-49 5 -106 -2z m-22 -25 c0 -5 -4 -10 -10 -10 -5 0 -10 5 -10 10 0 6 5 10 10
10 6 0 10 -4 10 -10z m-217 -39 c3 -14 1 -18 -9 -14 -15 6 -18 16 -7 26 9 10
10 9 16 -12z m87 11 c0 -5 -16 -13 -35 -19 -44 -14 -45 -7 -2 12 39 17 37 17
37 7z m35 -2 c3 -5 2 -10 -4 -10 -5 0 -13 5 -16 10 -3 6 -2 10 4 10 5 0 13 -4
16 -10z m-55 -40 c0 -5 -2 -10 -4 -10 -3 0 -8 5 -11 10 -3 6 -1 10 4 10 6 0
11 -4 11 -10z"/>
<path d="M7245 6700 c3 -5 8 -10 11 -10 2 0 4 5 4 10 0 6 -5 10 -11 10 -5 0
-7 -4 -4 -10z"/>
<path d="M7277 6669 c-9 -5 -22 -7 -27 -4 -6 3 -10 -1 -10 -9 0 -9 3 -16 8
-17 4 0 24 -2 45 -4 20 -2 37 0 37 5 0 7 -28 41 -33 40 -1 0 -10 -5 -20 -11z"/>
<path d="M6437 6664 c-4 -4 -21 -7 -38 -8 -23 -1 -34 -7 -40 -23 -6 -17 -5
-23 5 -23 7 0 18 10 25 23 11 21 11 21 8 -6 -4 -23 -1 -27 14 -22 11 4 34 -3
54 -15 19 -12 43 -19 52 -17 15 4 15 6 -4 12 -13 4 -23 13 -23 20 0 7 -6 16
-12 18 -8 3 -7 6 4 6 10 1 16 9 15 21 -1 22 -22 27 -30 8 -4 -10 -7 -10 -14 0
-5 7 -12 9 -16 6z"/>
<path d="M7061 6636 c-7 -8 -8 -17 -3 -20 6 -3 15 1 21 8 7 8 8 17 3 20 -6 3
-15 -1 -21 -8z"/>
<path d="M7340 6639 c0 -5 5 -7 10 -4 6 3 10 8 10 11 0 2 -4 4 -10 4 -5 0 -10
-5 -10 -11z"/>
<path d="M7505 6640 c3 -5 13 -10 21 -10 8 0 12 5 9 10 -3 6 -13 10 -21 10 -8
0 -12 -4 -9 -10z"/>
<path d="M6920 6610 c-23 -7 -23 -8 -3 -9 12 -1 25 4 28 9 3 6 5 10 3 9 -2 -1
-14 -5 -28 -9z"/>
<path d="M6345 6550 c3 -5 8 -10 11 -10 2 0 4 5 4 10 0 6 -5 10 -11 10 -5 0
-7 -4 -4 -10z"/>
<path d="M6560 6529 l-55 -6 68 0 c37 0 67 1 67 2 0 8 -32 10 -80 4z"/>
<path d="M6650 6530 c0 -5 14 -10 32 -10 36 0 35 4 -4 14 -17 4 -28 2 -28 -4z"/>
<path d="M6325 6520 c-3 -5 -1 -10 4 -10 6 0 11 5 11 10 0 6 -2 10 -4 10 -3 0
-8 -4 -11 -10z"/>
<path d="M6378 6523 c12 -2 30 -2 40 0 9 3 -1 5 -23 4 -22 0 -30 -2 -17 -4z"/>
<path d="M6444 6521 c5 -8 56 -3 56 5 0 2 -14 4 -31 4 -16 0 -28 -4 -25 -9z"/>
<path d="M6728 6523 c6 -2 18 -2 25 0 6 3 1 5 -13 5 -14 0 -19 -2 -12 -5z"/>
<path d="M6848 6523 c28 -2 76 -2 105 0 28 2 5 3 -53 3 -58 0 -81 -1 -52 -3z"/>
<path d="M7048 6523 c7 -3 16 -2 19 1 4 3 -2 6 -13 5 -11 0 -14 -3 -6 -6z"/>
<path d="M7110 6520 c0 -4 37 -8 83 -8 45 -1 78 1 72 3 -21 7 -155 12 -155 5z"/>
<path d="M3829 6503 c0 -5 -2 -15 -4 -24 -15 -80 -16 -84 -6 -68 12 19 26 99
17 99 -3 0 -6 -3 -7 -7z"/>
<path d="M6468 6493 c7 -3 16 -2 19 1 4 3 -2 6 -13 5 -11 0 -14 -3 -6 -6z"/>
<path d="M6203 6483 c9 -2 23 -2 30 0 6 3 -1 5 -18 5 -16 0 -22 -2 -12 -5z"/>
<path d="M4610 6372 c0 -5 7 -9 15 -9 8 0 15 4 15 9 0 4 -7 8 -15 8 -8 0 -15
-4 -15 -8z"/>
<path d="M5070 6360 c0 -5 5 -10 11 -10 5 0 7 5 4 10 -3 6 -8 10 -11 10 -2 0
-4 -4 -4 -10z"/>
<path d="M9185 6320 c-3 -5 -1 -10 4 -10 6 0 11 5 11 10 0 6 -2 10 -4 10 -3 0
-8 -4 -11 -10z"/>
<path d="M9315 6293 c11 -3 29 -11 39 -19 17 -12 18 -14 3 -20 -9 -3 -22 -2
-29 2 -9 5 -10 4 -3 -4 6 -6 22 -14 38 -17 24 -6 27 -4 27 18 0 31 -4 34 -55
41 -22 3 -31 3 -20 -1z"/>
<path d="M4580 6235 c-19 -7 -28 -13 -20 -13 8 0 31 6 50 13 19 7 28 13 20 13
-8 0 -31 -6 -50 -13z"/>
<path d="M3933 6140 c-23 -10 -32 -30 -12 -30 17 0 49 20 49 30 0 12 -8 12
-37 0z"/>
<path d="M9360 5236 c0 -2 8 -10 18 -17 15 -13 16 -12 3 4 -13 16 -21 21 -21
13z"/>
<path d="M9687 4979 c12 -12 24 -21 27 -18 2 2 -8 13 -22 23 l-27 19 22 -24z"/>
<path d="M9844 4862 c23 -26 26 -27 26 -5 0 9 -3 13 -7 10 -3 -4 -13 -1 -22 5
-10 8 -9 4 3 -10z"/>
<path d="M9910 4815 c0 -2 9 -9 20 -15 16 -9 18 -8 14 5 -5 13 -34 22 -34 10z"/>
<path d="M10000 4751 c0 -6 4 -11 8 -11 11 0 129 -77 137 -90 3 -5 12 -10 18
-10 14 0 -20 29 -88 73 -73 48 -75 49 -75 38z"/>
<path d="M7618 4713 c7 -3 16 -2 19 1 4 3 -2 6 -13 5 -11 0 -14 -3 -6 -6z"/>
<path d="M10260 4586 c0 -4 159 -117 198 -140 6 -4 12 -3 12 2 0 5 -11 14 -25
20 -14 6 -25 17 -25 25 0 7 -9 13 -20 14 -12 1 -42 17 -68 35 -58 42 -72 50
-72 44z"/>
<path d="M7155 4540 c-3 -5 -1 -10 4 -10 6 0 11 5 11 10 0 6 -2 10 -4 10 -3 0
-8 -4 -11 -10z"/>
<path d="M7195 4540 c-19 -8 -19 -9 3 -9 12 -1 22 4 22 9 0 6 -1 10 -2 9 -2 0
-12 -4 -23 -9z"/>
<path d="M10529 4516 c13 -14 33 -28 44 -32 16 -5 17 -8 6 -16 -12 -8 -11 -9
1 -5 8 2 28 -5 44 -16 16 -12 26 -16 23 -10 -4 7 -38 33 -75 59 -43 30 -59 37
-43 20z"/>
<path d="M6725 4520 c-3 -5 -5 -10 -3 -11 29 -7 36 -5 31 7 -6 16 -19 18 -28
4z"/>
<path d="M7000 4520 c0 -5 5 -10 11 -10 5 0 7 5 4 10 -3 6 -8 10 -11 10 -2 0
-4 -4 -4 -10z"/>
<path d="M7068 4523 c7 -3 16 -2 19 1 4 3 -2 6 -13 5 -11 0 -14 -3 -6 -6z"/>
<path d="M6646 4491 c-9 -14 23 -34 55 -34 52 0 54 24 2 27 -15 1 -33 5 -40 9
-6 4 -14 3 -17 -2z m64 -21 c0 -5 -5 -10 -11 -10 -5 0 -7 5 -4 10 3 6 8 10 11
10 2 0 4 -4 4 -10z"/>
<path d="M7065 4460 c-3 -5 -2 -10 4 -10 5 0 13 5 16 10 3 6 2 10 -4 10 -5 0
-13 -4 -16 -10z"/>
<path d="M6770 4445 c0 -21 30 -31 41 -14 14 23 11 29 -16 29 -16 0 -25 -6
-25 -15z"/>
<path d="M6667 4433 c-9 -2 -15 -9 -12 -14 4 -5 2 -9 -3 -9 -5 0 -9 -7 -9 -16
0 -15 1 -15 12 0 7 9 17 16 24 16 6 0 11 7 11 15 0 8 -1 14 -2 14 -2 -1 -11
-3 -21 -6z"/>
<path d="M10485 4430 c3 -6 10 -10 15 -10 6 0 25 -16 43 -36 32 -35 123 -80
96 -48 -9 11 -9 14 0 14 7 0 9 5 5 11 -3 6 -9 7 -13 3 -16 -23 -69 -4 -54 19
3 6 1 7 -6 3 -6 -4 -18 -2 -27 4 -12 11 -12 15 3 27 17 14 17 14 0 9 -9 -3
-29 -1 -43 4 -17 7 -23 7 -19 0z"/>
<path d="M10660 4426 c0 -5 8 -14 17 -21 20 -15 26 -45 11 -62 -9 -11 -6 -12
13 -5 34 13 33 24 -6 62 -19 19 -35 30 -35 26z"/>
<path d="M6750 4410 c0 -5 5 -10 10 -10 6 0 10 5 10 10 0 6 -4 10 -10 10 -5 0
-10 -4 -10 -10z"/>
<path d="M6365 4350 c3 -5 11 -10 16 -10 6 0 7 5 4 10 -3 6 -11 10 -16 10 -6
0 -7 -4 -4 -10z"/>
<path d="M6255 4340 c3 -5 13 -10 21 -10 8 0 12 5 9 10 -3 6 -13 10 -21 10 -8
0 -12 -4 -9 -10z"/>
<path d="M10414 4032 c-33 -37 -70 -88 -83 -114 -12 -26 -35 -58 -50 -71 -15
-13 -32 -30 -37 -39 -5 -9 -33 -43 -61 -75 -84 -94 -116 -133 -111 -138 3 -3
29 23 58 57 29 35 62 72 72 83 81 89 106 120 153 190 30 44 73 101 95 128 23
26 38 47 34 47 -5 0 -36 -31 -70 -68z"/>
<path d="M7450 3439 c0 -5 5 -7 10 -4 6 3 10 8 10 11 0 2 -4 4 -10 4 -5 0 -10
-5 -10 -11z"/>
<path d="M7215 3374 c-38 -14 -85 -30 -102 -36 -18 -6 -33 -15 -33 -19 0 -4
33 5 73 21 39 15 87 31 104 34 18 4 35 12 38 17 9 13 -1 11 -80 -17z"/>
<path d="M7040 3310 c0 -5 7 -7 15 -4 8 4 15 8 15 10 0 2 -7 4 -15 4 -8 0 -15
-4 -15 -10z"/>
<path d="M7003 3303 c-13 -2 -23 -8 -23 -12 0 -5 11 -6 25 -3 14 2 25 8 25 13
0 5 -1 8 -2 8 -2 -1 -13 -4 -25 -6z"/>
<path d="M6913 3268 c-18 -6 -33 -15 -33 -19 0 -12 17 -11 25 1 3 6 15 10 26
10 10 0 19 5 19 10 0 6 -1 10 -2 9 -2 -1 -18 -6 -35 -11z"/>
<path d="M6840 3230 c-8 -5 -30 -15 -47 -22 -34 -13 -48 -33 -15 -21 18 7 84
42 91 49 8 7 -14 3 -29 -6z"/>
<path d="M6724 3180 c-12 -5 -25 -13 -28 -18 -9 -15 31 -2 45 14 13 16 12 16
-17 4z"/>
<path d="M6646 3145 c-11 -8 -15 -15 -10 -15 6 0 19 7 30 15 10 8 15 14 9 14
-5 0 -19 -6 -29 -14z"/>
<path d="M6571 3110 c-13 -11 -18 -20 -13 -20 6 0 14 5 17 11 4 6 17 14 29 19
12 5 15 9 6 9 -8 0 -26 -9 -39 -19z"/>
<path d="M6510 3069 c0 -5 5 -7 10 -4 6 3 10 8 10 11 0 2 -4 4 -10 4 -5 0 -10
-5 -10 -11z"/>
<path d="M6443 3047 c-23 -12 -42 -25 -43 -29 0 -10 29 2 69 29 42 29 30 28
-26 0z"/>
<path d="M4320 3046 c0 -3 21 -17 48 -32 26 -15 54 -34 62 -41 8 -8 25 -22 38
-32 20 -17 21 -22 10 -47 l-12 -29 -3 26 c-3 22 -8 26 -26 21 -12 -3 -30 -15
-41 -26 -13 -15 -20 -17 -23 -8 -3 6 -9 12 -14 12 -5 0 -2 -11 7 -25 12 -18
25 -25 48 -25 47 0 126 31 126 49 -1 9 -29 37 -63 62 -62 47 -157 104 -157 95z"/>
<path d="M6330 2980 c-8 -5 -12 -12 -9 -15 4 -3 12 1 19 10 14 17 11 19 -10 5z"/>
<path d="M4156 2967 c3 -10 9 -15 12 -12 3 3 0 11 -7 18 -10 9 -11 8 -5 -6z"/>
<path d="M4163 2918 c1 -16 5 -28 9 -28 4 0 8 2 8 4 0 2 3 12 7 22 4 11 3 15
-4 11 -6 -4 -14 -1 -16 5 -3 7 -5 1 -4 -14z"/>
<path d="M6220 2925 c-7 -8 -19 -15 -26 -15 -8 0 -14 -5 -14 -11 0 -5 5 -7 10
-4 6 3 22 12 36 20 14 7 21 16 16 19 -5 3 -15 -1 -22 -9z"/>
<path d="M4376 2918 c3 -4 9 -8 15 -8 5 0 9 4 9 8 0 5 -7 9 -15 9 -8 0 -12 -4
-9 -9z"/>
<path d="M6138 2884 c-16 -8 -28 -17 -28 -19 0 -10 16 -4 40 15 30 23 25 25
-12 4z"/>
<path d="M6064 2844 c-18 -14 -18 -14 6 -3 31 14 36 19 24 19 -6 0 -19 -7 -30
-16z"/>
<path d="M4185 2830 c3 -5 11 -10 16 -10 6 0 7 5 4 10 -3 6 -11 10 -16 10 -6
0 -7 -4 -4 -10z"/>
<path d="M5985 2800 c-3 -5 1 -10 9 -10 8 0 18 5 21 10 3 6 -1 10 -9 10 -8 0
-18 -4 -21 -10z"/>
<path d="M4235 2780 c-3 -5 -1 -10 4 -10 6 0 11 5 11 10 0 6 -2 10 -4 10 -3 0
-8 -4 -11 -10z"/>
<path d="M5925 2771 c-22 -10 -49 -26 -60 -35 -11 -9 8 -3 43 15 34 17 62 33
62 35 0 6 -1 5 -45 -15z"/>
<path d="M4250 2750 c0 -5 5 -10 11 -10 5 0 7 5 4 10 -3 6 -8 10 -11 10 -2 0
-4 -4 -4 -10z"/>
<path d="M5770 2680 c0 -5 5 -10 10 -10 6 0 10 5 10 10 0 6 -4 10 -10 10 -5 0
-10 -4 -10 -10z"/>
<path d="M5696 2644 c-11 -8 -16 -14 -10 -14 13 0 39 18 34 24 -3 2 -14 -2
-24 -10z"/>
<path d="M8740 1940 c0 -5 5 -10 11 -10 5 0 7 5 4 10 -3 6 -8 10 -11 10 -2 0
-4 -4 -4 -10z"/>
<path d="M4186 1389 c2 -4 -10 -9 -26 -13 -19 -3 -30 -12 -30 -22 0 -13 5 -15
28 -8 15 4 40 7 55 7 19 0 24 3 15 8 -10 7 -9 11 5 21 15 12 14 13 -17 13 -19
0 -32 -3 -30 -6z"/>
<path d="M4032 1308 c-19 -19 -14 -30 8 -18 11 6 20 7 20 2 0 -6 9 -12 20 -15
26 -7 27 19 1 33 -25 13 -34 13 -49 -2z"/>
<path d="M4110 1304 c0 -13 28 -23 48 -17 22 8 13 21 -18 25 -19 3 -30 0 -30
-8z"/>
<path d="M3576 1292 c-3 -5 1 -9 9 -9 8 0 12 4 9 9 -3 4 -7 8 -9 8 -2 0 -6 -4
-9 -8z"/>
<path d="M3987 1286 c-9 -9 -26 -19 -37 -21 -11 -2 -28 -12 -38 -21 -19 -20
-25 -76 -9 -86 15 -9 5 -19 -20 -21 -29 -2 -17 -37 12 -37 26 0 50 24 40 40
-3 5 0 10 7 10 11 0 11 2 0 9 -7 4 -12 12 -11 17 1 5 1 11 -1 14 -13 34 -7 47
26 59 31 11 38 11 55 -5 24 -21 38 -11 17 13 -9 10 -17 24 -20 32 -3 11 -7 10
-21 -3z"/>
<path d="M3990 1229 c0 -5 5 -7 10 -4 6 3 10 8 10 11 0 2 -4 4 -10 4 -5 0 -10
-5 -10 -11z"/>
<path d="M3947 1223 c-4 -3 -7 -11 -7 -17 0 -6 5 -5 12 2 6 6 9 14 7 17 -3 3
-9 2 -12 -2z"/>
<path d="M3439 1175 c-56 -38 -59 -64 -8 -91 27 -13 31 -13 53 3 22 16 52 63
41 63 -11 0 -43 -39 -37 -45 4 -4 -4 -4 -17 0 -18 5 -22 4 -16 -5 5 -9 4 -11
-3 -6 -17 10 -15 39 2 33 9 -4 13 0 11 11 -1 9 -8 16 -13 15 -6 -2 -9 4 -6 12
4 8 10 15 16 15 5 0 6 -4 3 -10 -3 -5 -2 -10 4 -10 5 0 9 9 8 20 -1 11 -2 20
-2 20 0 0 -17 -11 -36 -25z m-9 -35 c0 -5 -4 -10 -10 -10 -5 0 -10 5 -10 10 0
6 5 10 10 10 6 0 10 -4 10 -10z"/>
<path d="M3977 1180 c-3 -12 0 -20 7 -20 6 0 12 9 12 20 0 11 -3 20 -7 20 -4
0 -9 -9 -12 -20z"/>
<path d="M3810 1109 c0 -5 5 -7 10 -4 6 3 10 8 10 11 0 2 -4 4 -10 4 -5 0 -10
-5 -10 -11z"/>
<path d="M3767 1086 c-10 -14 -16 -26 -15 -27 21 -6 59 -4 81 6 25 10 26 13
13 25 -9 7 -16 8 -16 2 0 -15 -34 -9 -41 7 -4 10 -10 6 -22 -13z"/>
<path d="M3692 1050 c-40 -9 -46 -15 -36 -31 5 -9 10 -7 20 6 9 12 20 16 37
11 17 -4 24 -1 24 9 0 8 -3 15 -6 14 -3 -1 -21 -5 -39 -9z"/>
<path d="M3740 1000 c0 -5 5 -10 11 -10 5 0 7 5 4 10 -3 6 -8 10 -11 10 -2 0
-4 -4 -4 -10z"/>
<path d="M3658 973 c7 -3 16 -2 19 1 4 3 -2 6 -13 5 -11 0 -14 -3 -6 -6z"/>
<path d="M3730 970 c0 -5 5 -10 10 -10 6 0 10 5 10 10 0 6 -4 10 -10 10 -5 0
-10 -4 -10 -10z"/>
<path d="M3577 962 c-9 -2 -17 -9 -17 -17 0 -7 -7 -16 -15 -19 -27 -10 15 -69
58 -80 25 -6 27 -4 27 22 0 15 -6 34 -12 42 -11 12 -10 12 3 2 12 -9 20 -9 35
3 10 8 27 15 36 15 10 0 15 5 12 13 -3 8 -17 11 -41 9 -23 -3 -33 -1 -29 6 6
9 -19 11 -57 4z"/>
</g>
</svg>
