<?xml version="1.0" standalone="no"?>
<!DOCTYPE svg PUBLIC "-//W3C//DTD SVG 20010904//EN"
 "http://www.w3.org/TR/2001/REC-SVG-20010904/DTD/svg10.dtd">
<svg version="1.0" xmlns="http://www.w3.org/2000/svg"
 width="1280.000000pt" height="1280.000000pt" viewBox="0 0 1280.000000 1280.000000"
 preserveAspectRatio="xMidYMid meet">
<metadata>
Created by potrace 1.15, written by Peter Selinger 2001-2017
</metadata>
<g transform="translate(0.000000,1280.000000) scale(0.100000,-0.100000)"
fill="#000000" stroke="none">
<path d="M4270 8745 l0 -2695 -1145 -2 -1145 -3 192 -165 c327 -279 4373
-3706 4385 -3713 5 -3 28 9 51 28 48 42 65 46 31 7 l-24 -27 27 24 c16 14 26
27 23 29 -7 7 36 52 48 52 6 0 2 -10 -9 -22 -17 -21 -16 -21 9 1 15 14 25 27
22 29 -7 7 36 52 48 52 6 0 0 -12 -14 -28 -23 -26 -23 -26 8 2 18 16 31 32 28
34 -7 7 25 42 38 42 6 0 2 -10 -9 -22 -10 -13 -4 -10 14 6 34 32 43 47 15 25
-10 -7 -5 1 11 19 33 36 60 44 30 10 -17 -21 -16 -21 9 1 15 14 25 27 22 29
-7 7 25 42 38 42 6 0 2 -10 -9 -22 -17 -21 -16 -21 9 1 15 14 25 27 22 29 -7
7 36 52 48 52 6 0 2 -10 -9 -22 -17 -21 -16 -21 9 1 15 14 25 27 22 29 -7 7
25 42 38 42 6 0 2 -10 -9 -22 -17 -21 -16 -21 9 1 15 14 25 27 22 29 -7 7 36
52 48 52 6 0 2 -10 -9 -22 -17 -21 -16 -21 9 1 15 14 25 27 22 29 -7 7 25 42
38 42 6 0 2 -10 -9 -22 -17 -21 -16 -21 9 1 15 14 25 27 22 29 -7 7 36 52 48
52 6 0 2 -10 -9 -22 -17 -21 -16 -21 9 1 15 14 25 27 22 29 -7 7 25 42 38 42
5 0 3 -8 -4 -17 -7 -10 -1 -7 14 6 30 27 37 41 10 20 -10 -7 -5 1 11 19 33 36
60 44 30 10 -10 -13 -4 -10 14 6 34 32 44 47 15 25 -10 -7 -7 -1 6 14 27 30
52 38 30 10 -7 -10 -1 -7 14 6 30 27 37 41 10 20 -10 -7 -5 1 11 19 33 36 60
44 30 10 -17 -21 -16 -21 9 1 15 14 25 27 22 29 -7 7 36 52 48 52 6 0 2 -10
-9 -22 l-19 -23 23 19 c12 11 20 22 17 24 -7 7 35 52 48 52 6 0 2 -10 -9 -22
-17 -21 -16 -21 9 1 15 14 25 27 22 29 -7 7 36 52 48 52 6 0 2 -10 -9 -22
l-19 -23 23 19 c12 11 20 22 17 24 -7 7 35 52 48 52 6 0 2 -10 -9 -22 -10 -13
-4 -10 14 6 34 32 43 47 14 25 -9 -7 -4 1 12 19 33 36 60 44 30 10 -17 -21
-16 -21 9 1 15 14 25 27 22 29 -7 7 25 42 38 42 5 0 3 -8 -4 -18 -7 -9 -1 -6
14 7 30 27 37 41 10 20 -10 -7 -5 1 11 19 33 36 60 44 30 10 -17 -21 -16 -21
9 1 15 14 25 27 22 29 -7 7 25 42 38 42 5 0 3 -8 -4 -17 -11 -15 -9 -14 9 1
12 11 20 22 17 24 -7 7 35 52 48 52 6 0 2 -10 -9 -22 -17 -21 -16 -21 9 1 15
14 25 27 22 29 -7 7 25 42 38 42 5 0 3 -8 -4 -17 -11 -15 -9 -14 9 1 12 11 20
22 17 24 -7 7 35 52 48 52 6 0 2 -10 -9 -22 -17 -21 -16 -21 9 1 15 14 25 27
22 29 -7 7 36 52 48 52 6 0 0 -12 -14 -28 l-24 -27 27 24 c16 14 26 27 23 29
-7 7 36 52 48 52 6 0 2 -10 -9 -22 -17 -21 -16 -21 9 1 15 14 25 27 22 29 -7
7 36 52 48 52 6 0 2 -10 -9 -22 -17 -21 -16 -21 9 1 15 14 25 27 22 29 -7 7
25 42 38 42 5 0 3 -8 -4 -17 -11 -15 -9 -14 9 1 12 11 20 22 17 24 -7 7 35 52
48 52 6 0 2 -10 -9 -22 -17 -21 -16 -21 9 1 15 14 25 27 22 29 -7 7 25 42 38
42 6 0 2 -10 -9 -22 -17 -21 -16 -21 9 1 15 14 25 27 22 29 -7 7 36 52 48 52
6 0 2 -10 -9 -22 -17 -21 -16 -21 9 1 15 14 25 27 22 29 -7 7 25 42 38 42 6 0
2 -10 -9 -22 -17 -21 -16 -21 9 1 15 14 25 27 22 29 -7 7 36 52 48 52 6 0 2
-10 -9 -22 -17 -21 -16 -21 9 1 15 14 25 27 22 29 -7 7 25 42 38 42 5 0 3 -8
-4 -17 -11 -15 -9 -14 9 1 12 11 20 22 17 24 -7 7 35 52 48 52 6 0 2 -10 -9
-22 -17 -21 -16 -21 9 1 15 14 25 27 22 29 -7 7 25 42 38 42 5 0 3 -8 -4 -18
-7 -9 -1 -6 14 7 30 27 37 41 10 20 -10 -7 -5 1 11 19 33 36 60 44 30 10 -17
-21 -16 -21 9 1 15 14 25 27 22 29 -7 7 25 42 38 42 5 0 3 -8 -4 -17 -7 -10
-1 -7 14 6 30 27 37 41 10 20 -10 -7 -5 1 11 19 33 36 60 44 30 10 -17 -21
-16 -21 9 1 15 14 25 27 22 29 -7 7 36 52 48 52 6 0 2 -10 -9 -22 l-19 -23 23
19 c12 11 20 22 17 24 -7 7 35 52 48 52 6 0 2 -10 -9 -22 -17 -21 -16 -21 9 1
15 14 25 27 22 29 -7 7 36 52 48 52 6 0 0 -12 -14 -28 l-24 -27 27 24 c16 14
26 27 23 29 -7 7 36 52 48 52 6 0 2 -10 -9 -22 -17 -21 -16 -21 9 1 15 14 25
27 22 29 -7 7 36 52 48 52 6 0 0 -12 -14 -27 -23 -27 -23 -27 8 1 18 16 31 32
28 34 -7 7 25 42 38 42 5 0 3 -8 -4 -18 -7 -9 -1 -6 14 7 30 27 37 41 10 20
-10 -7 -5 1 11 19 33 36 60 44 30 10 -17 -21 -16 -21 9 1 15 14 25 27 22 29
-7 7 25 42 38 42 5 0 3 -8 -4 -18 -7 -9 -1 -6 14 7 30 27 37 41 10 20 -10 -7
-5 1 11 19 33 36 60 44 30 10 -17 -21 -16 -21 9 1 15 14 25 27 22 29 -7 7 25
42 38 42 6 0 2 -10 -9 -23 -17 -20 -16 -20 9 2 15 14 25 27 22 29 -7 7 36 52
48 52 6 0 2 -10 -9 -22 -17 -21 -16 -21 9 1 15 14 25 27 22 29 -7 7 25 42 38
42 6 0 2 -10 -9 -23 -17 -20 -16 -20 9 2 15 14 25 27 22 29 -7 7 36 52 48 52
6 0 2 -10 -9 -22 -10 -13 -4 -10 14 6 34 32 43 47 15 25 -10 -7 -5 1 11 19 33
36 60 44 30 10 -17 -21 -16 -21 9 1 15 14 25 27 22 29 -7 7 25 42 38 42 6 0 2
-10 -9 -22 -10 -13 -4 -10 14 6 34 32 43 47 15 25 -10 -7 -5 1 11 19 33 36 60
44 30 10 -17 -21 -16 -21 9 1 15 14 25 27 22 29 -7 7 25 42 38 42 6 0 2 -10
-9 -22 -17 -21 -16 -21 9 1 15 14 25 27 22 29 -7 7 36 52 48 52 6 0 2 -10 -9
-22 -17 -21 -16 -21 9 1 15 14 25 27 22 29 -7 7 25 42 38 42 6 0 2 -10 -9 -22
-17 -21 -16 -21 9 1 15 14 25 27 22 29 -7 7 36 52 48 52 6 0 2 -10 -9 -22 -17
-21 -16 -21 9 1 15 14 25 27 22 29 -7 7 25 42 38 42 6 0 2 -10 -9 -22 -17 -21
-16 -21 9 1 15 14 25 27 22 29 -7 7 36 52 48 52 6 0 2 -10 -9 -22 -10 -13 -4
-10 14 6 34 32 44 47 15 25 -10 -7 -7 -1 6 14 27 30 52 38 30 10 -7 -10 -1 -7
14 6 30 27 37 41 10 20 -10 -7 -5 1 11 19 33 36 60 44 30 10 -10 -13 -4 -10
14 6 34 32 44 47 15 25 -10 -7 -7 -1 6 14 27 29 52 38 30 10 -8 -10 0 -6 17 7
17 14 30 27 28 29 -2 2 -12 -2 -21 -10 -52 -40 44 52 134 128 l103 88 -1145 3
-1145 2 0 2695 0 2695 -2295 0 -2295 0 0 -2695z"/>
<path d="M8942 6160 c0 -14 2 -19 5 -12 2 6 2 18 0 25 -3 6 -5 1 -5 -13z"/>
<path d="M10489 5303 c-13 -16 -12 -17 4 -4 9 7 17 15 17 17 0 8 -8 3 -21 -13z"/>
<path d="M10229 5083 c-13 -16 -12 -17 4 -4 16 13 21 21 13 21 -2 0 -10 -8
-17 -17z"/>
<path d="M10029 4913 c-13 -16 -12 -17 4 -4 9 7 17 15 17 17 0 8 -8 3 -21 -13z"/>
<path d="M8519 3633 c-13 -16 -12 -17 4 -4 16 13 21 21 13 21 -2 0 -10 -8 -17
-17z"/>
<path d="M7479 2753 c-13 -16 -12 -17 4 -4 16 13 21 21 13 21 -2 0 -10 -8 -17
-17z"/>
<path d="M7089 2423 c-13 -16 -12 -17 4 -4 16 13 21 21 13 21 -2 0 -10 -8 -17
-17z"/>
</g>
</svg>
