<?xml version="1.0" standalone="no"?>
<!DOCTYPE svg PUBLIC "-//W3C//DTD SVG 20010904//EN"
 "http://www.w3.org/TR/2001/REC-SVG-20010904/DTD/svg10.dtd">
<svg version="1.0" xmlns="http://www.w3.org/2000/svg"
 width="1280.000000pt" height="1204.000000pt" viewBox="0 0 1280.000000 1204.000000"
 preserveAspectRatio="xMidYMid meet">
<metadata>
Created by potrace 1.15, written by Peter Selinger 2001-2017
</metadata>
<g transform="translate(0.000000,1204.000000) scale(0.100000,-0.100000)"
fill="#000000" stroke="none">
<path d="M5888 12030 c-2477 -135 -4606 -1354 -5477 -3135 -212 -433 -337
-864 -393 -1355 -17 -150 -16 -611 0 -755 50 -421 147 -790 305 -1155 466
-1079 1421 -2013 2666 -2606 290 -139 559 -244 941 -370 140 -46 269 -89 285
-95 17 -6 39 -12 50 -12 11 0 23 -4 26 -9 12 -18 493 -146 721 -192 93 -19 92
-19 76 -3 -7 8 -19 13 -28 12 -8 -1 -9 0 -2 2 6 3 12 8 12 12 0 11 -220 42
-250 36 -22 -5 -23 -4 -5 5 17 9 14 10 -13 5 -23 -3 -31 -1 -26 7 5 8 -2 9
-25 5 -23 -5 -30 -3 -25 5 5 7 0 9 -14 6 -12 -4 -25 -2 -28 4 -3 5 -15 8 -25
5 -10 -3 -22 -1 -25 4 -3 5 -14 9 -26 9 -26 0 -260 62 -254 67 2 2 40 -5 83
-16 108 -28 394 -86 526 -107 101 -16 110 -20 130 -48 11 -17 24 -33 27 -36 4
-3 339 -480 745 -1060 406 -580 752 -1070 770 -1088 44 -46 97 -57 150 -32 32
16 50 36 91 107 29 49 303 561 609 1138 307 578 569 1065 582 1083 13 17 32
32 41 32 19 0 296 69 407 101 449 130 813 270 1210 463 856 418 1536 966 2035
1641 430 582 716 1276 809 1960 36 262 42 626 16 876 -51 487 -183 936 -406
1381 -39 77 -64 137 -57 133 7 -3 4 1 -7 10 -11 9 -19 18 -17 21 5 8 -247 384
-348 520 -491 659 -1187 1227 -2016 1644 -846 426 -1768 677 -2814 765 -219
19 -809 27 -1032 15z m-1551 -9496 c-3 -3 -12 -4 -19 -1 -8 3 -5 6 6 6 11 1
17 -2 13 -5z m563 -144 c20 -6 21 -8 5 -8 -11 0 -29 3 -40 8 -25 11 1 11 35 0z
m95 -20 c25 -11 -1 -11 -35 0 -20 6 -21 8 -5 8 11 0 29 -3 40 -8z"/>
<path d="M12172 8965 c23 -44 46 -82 50 -83 5 -2 6 -8 2 -13 -3 -5 0 -9 6 -9
6 0 8 -5 4 -12 -4 -6 -3 -8 3 -5 6 4 11 -3 11 -16 0 -12 16 -56 35 -97 55
-118 134 -337 182 -503 270 -941 174 -1917 -280 -2842 -414 -845 -1106 -1564
-2019 -2099 -580 -340 -1191 -583 -1960 -778 l-128 -33 -242 -455 c-748 -1407
-929 -1746 -938 -1758 -12 -13 8 -46 22 -37 5 3 12 0 16 -6 5 -8 3 -9 -6 -4
-8 5 -11 3 -8 -6 3 -8 10 -14 15 -14 6 0 15 -4 20 -9 5 -5 3 -6 -4 -2 -19 10
-16 -2 8 -35 11 -16 24 -27 29 -24 5 3 18 -9 30 -27 l22 -33 -26 30 c-31 36
-35 25 -6 -15 20 -28 33 -32 57 -17 9 6 11 3 7 -8 -4 -9 -13 -14 -20 -11 -17
7 -18 -6 -2 -22 9 -9 51 64 179 306 148 278 195 374 158 322 -9 -13 -10 -13
-6 0 2 8 9 14 15 13 9 -2 642 1174 657 1222 6 17 5 18 -5 5 -10 -13 -11 -13
-7 0 2 8 9 14 15 13 6 -1 41 55 78 125 37 70 87 165 112 210 l45 84 -39 -2
c-97 -5 -76 3 151 58 570 139 1025 293 1477 502 270 125 664 342 653 360 -3 5
0 12 6 16 8 4 9 3 5 -4 -11 -18 3 -15 40 9 19 11 32 25 29 29 -3 5 0 12 6 16
8 5 9 3 4 -6 -5 -8 -3 -11 6 -8 8 3 14 10 14 16 0 5 4 14 9 19 6 5 6 2 1 -6
-12 -21 15 -9 85 39 33 23 58 45 55 50 -3 5 9 18 27 30 l33 22 -30 -26 c-36
-31 -25 -34 16 -5 16 11 27 24 24 29 -3 5 0 12 6 16 8 5 9 3 4 -6 -5 -8 -3
-11 6 -8 8 3 14 10 14 16 0 6 7 17 15 24 12 11 12 11 1 -4 -7 -10 -9 -18 -3
-18 12 0 34 25 27 32 -3 3 3 11 12 19 16 13 17 12 4 -3 -7 -10 -9 -18 -3 -18
12 0 34 25 27 32 -3 3 3 11 12 19 16 13 17 12 4 -3 -7 -10 -9 -18 -3 -18 12 0
34 25 27 32 -3 3 3 11 12 19 16 13 17 12 4 -3 -20 -26 2 -22 25 4 12 13 13 18
4 13 -9 -5 -8 0 4 13 21 25 36 31 16 7 -20 -24 5 -17 26 7 12 13 13 18 4 13
-9 -5 -8 0 4 13 21 25 36 31 16 7 -7 -8 -8 -15 -3 -15 13 0 45 35 38 42 -3 3
5 13 17 24 l23 19 -19 -22 c-11 -13 -15 -23 -9 -23 12 0 55 45 48 52 -3 2 7
15 22 29 25 22 26 22 9 2 -11 -13 -15 -23 -9 -23 12 0 65 55 58 61 -2 3 17 25
43 50 l47 44 -40 -42 c-21 -24 -35 -43 -29 -43 17 0 95 86 87 95 -5 4 -3 5 3
2 13 -7 354 336 354 355 0 6 -10 3 -22 -8 l-23 -19 19 23 c11 12 22 20 24 17
7 -7 52 35 52 48 0 6 -10 2 -22 -9 -21 -17 -21 -16 1 9 26 29 37 35 25 15 -4
-7 5 -2 19 11 33 30 36 52 5 25 l-23 -19 19 23 c11 12 21 20 24 17 7 -6 32 15
32 27 0 5 -6 6 -12 2 -7 -5 -1 8 14 27 15 18 31 33 37 32 5 -1 26 20 45 47 38
52 44 66 24 54 -7 -4 -8 -3 -4 5 4 6 11 9 16 6 5 -3 36 35 70 85 66 98 82 129
60 115 -9 -5 -11 -4 -6 4 4 6 11 9 16 6 12 -7 33 32 25 45 -4 6 -1 9 6 8 6 -2
49 63 94 144 297 532 483 1172 502 1731 l6 177 -86 0 c-55 0 -87 4 -87 11 0 7
30 9 86 7 l87 -3 -6 165 c-8 204 -23 325 -69 555 -81 407 -261 864 -485 1232
-89 146 -114 177 -61 78z m118 -195 c6 -11 8 -20 6 -20 -3 0 -10 9 -16 20 -6
11 -8 20 -6 20 3 0 10 -9 16 -20z m24 -46 c3 -8 2 -12 -4 -9 -6 3 -10 10 -10
16 0 14 7 11 14 -7z m66 -125 c12 -23 20 -43 18 -45 -3 -2 -14 17 -26 41 -27
56 -20 60 8 4z m54 -115 c3 -8 2 -12 -4 -9 -6 3 -10 10 -10 16 0 14 7 11 14
-7z m26 -59 c0 -5 -5 -3 -10 5 -5 8 -10 20 -10 25 0 6 5 3 10 -5 5 -8 10 -19
10 -25z m29 -70 c0 -5 -6 1 -14 15 -8 14 -14 30 -14 35 0 6 6 -1 14 -15 8 -14
14 -29 14 -35z m24 -55 c3 -11 1 -18 -4 -14 -5 3 -9 12 -9 20 0 20 7 17 13 -6z
m47 -125 c0 -5 -5 -3 -10 5 -5 8 -10 20 -10 25 0 6 5 3 10 -5 5 -8 10 -19 10
-25z m19 -60 c0 -5 -4 -3 -9 5 -5 8 -9 22 -9 30 0 16 17 -16 18 -35z m20 -60
c0 -5 -4 -3 -9 5 -5 8 -9 22 -9 30 0 16 17 -16 18 -35z m20 -60 c0 -5 -4 -3
-9 5 -5 8 -9 22 -9 30 0 16 17 -16 18 -35z m20 -65 c0 -10 -3 -8 -9 5 -12 27
-12 43 0 25 5 -8 9 -22 9 -30z m15 -55 c5 -22 4 -26 -4 -15 -5 8 -10 24 -10
34 0 26 6 18 14 -19z m25 -95 c0 -9 -4 -8 -9 5 -5 11 -9 27 -9 35 0 9 4 8 9
-5 5 -11 9 -27 9 -35z m19 -90 c0 -9 -3 -7 -8 5 -5 11 -8 29 -8 40 0 16 2 15
8 -5 4 -14 8 -32 8 -40z m20 -95 c0 -16 -2 -15 -8 5 -4 14 -8 34 -8 45 0 16 2
15 8 -5 4 -14 8 -34 8 -45z m20 -115 c0 -22 -1 -22 -8 5 -4 17 -8 39 -8 50 0
16 2 15 8 -5 4 -14 8 -36 8 -50z m20 -155 c0 -22 -3 -19 -9 15 -10 60 -9 108
2 55 4 -22 8 -53 7 -70z m9 -142 c-2 -16 -4 -3 -4 27 0 30 2 43 4 28 2 -16 2
-40 0 -55z m10 -125 c-2 -18 -4 -4 -4 32 0 36 2 50 4 33 2 -18 2 -48 0 -65z
m0 -335 c-2 -21 -4 -4 -4 37 0 41 2 58 4 38 2 -21 2 -55 0 -75z m-10 -120 c-2
-16 -4 -3 -4 27 0 30 2 43 4 28 2 -16 2 -40 0 -55z m-12 -138 c-4 -31 -9 -54
-12 -51 -3 2 -1 30 2 61 4 31 9 54 12 51 3 -2 1 -30 -2 -61z m-20 -140 c-4
-25 -9 -44 -12 -41 -2 2 -1 25 2 51 4 25 9 44 12 41 2 -2 1 -25 -2 -51z m-21
-114 c-4 -23 -9 -40 -11 -37 -3 3 -2 23 2 46 4 23 9 39 11 37 3 -2 2 -23 -2
-46z m-20 -95 c-3 -15 -8 -25 -11 -23 -2 3 -1 17 3 31 3 15 8 25 11 23 2 -3 1
-17 -3 -31z m-17 -68 c-3 -8 -6 -5 -6 6 -1 11 2 17 5 13 3 -3 4 -12 1 -19z
m-23 -92 c-3 -15 -8 -25 -11 -23 -2 3 -1 17 3 31 3 15 8 25 11 23 2 -3 1 -17
-3 -31z m-23 -77 c-5 -13 -10 -19 -10 -12 -1 15 10 45 15 40 3 -2 0 -15 -5
-28z m-20 -70 c-5 -13 -10 -19 -10 -12 -1 15 10 45 15 40 3 -2 0 -15 -5 -28z
m-21 -66 c-11 -17 -11 -17 -6 0 3 10 6 24 7 30 0 9 2 9 5 0 3 -7 0 -20 -6 -30z
m-19 -60 c-12 -20 -14 -14 -5 12 4 9 9 14 11 11 3 -2 0 -13 -6 -23z m-40 -110
c-12 -20 -14 -14 -5 12 4 9 9 14 11 11 3 -2 0 -13 -6 -23z m-20 -50 c-12 -20
-14 -14 -5 12 4 9 9 14 11 11 3 -2 0 -13 -6 -23z m-18 -48 c-3 -9 -8 -14 -10
-11 -3 3 -2 9 2 15 9 16 15 13 8 -4z m-22 -52 c-12 -20 -14 -14 -5 12 4 9 9
14 11 11 3 -2 0 -13 -6 -23z m-18 -48 c-3 -9 -8 -14 -10 -11 -3 3 -2 9 2 15 9
16 15 13 8 -4z m-42 -92 c-12 -20 -14 -14 -5 12 4 9 9 14 11 11 3 -2 0 -13 -6
-23z m-18 -38 c-3 -9 -8 -14 -10 -11 -3 3 -2 9 2 15 9 16 15 13 8 -4z m-20
-40 c-3 -9 -8 -14 -10 -11 -3 3 -2 9 2 15 9 16 15 13 8 -4z m-20 -40 c-3 -9
-8 -14 -10 -11 -3 3 -2 9 2 15 9 16 15 13 8 -4z m-20 -40 c-3 -9 -8 -14 -10
-11 -3 3 -2 9 2 15 9 16 15 13 8 -4z m-33 -65 c-11 -22 -23 -40 -25 -40 -3 0
4 18 15 40 11 22 23 40 25 40 3 0 -4 -18 -15 -40z m-47 -85 c-3 -9 -8 -14 -10
-11 -3 3 -2 9 2 15 9 16 15 13 8 -4z m-43 -75 c-6 -11 -13 -20 -16 -20 -2 0 0
9 6 20 6 11 13 20 16 20 2 0 0 -9 -6 -20z m-76 -122 c-23 -39 -105 -158 -109
-158 -3 0 20 38 51 85 32 47 59 85 61 85 2 0 1 -6 -3 -12z m-160 -233 c-14
-19 -29 -35 -31 -35 -5 0 7 18 36 53 26 31 23 18 -5 -18z m-284 -350 c-24 -25
-46 -45 -49 -45 -3 0 15 20 39 45 24 25 46 45 49 45 3 0 -15 -20 -39 -45z
m-60 -68 c0 -1 -46 -47 -102 -102 l-103 -100 100 103 c93 95 105 107 105 99z
m-1030 -842 c0 -2 -10 -9 -22 -15 -22 -11 -22 -10 -4 4 21 17 26 19 26 11z
m-80 -50 c0 -2 -10 -9 -22 -15 -22 -11 -22 -10 -4 4 21 17 26 19 26 11z m-50
-30 c0 -2 -10 -9 -22 -15 -22 -11 -22 -10 -4 4 21 17 26 19 26 11z m-50 -30
c0 -2 -13 -11 -30 -20 -38 -19 -40 -11 -2 9 31 17 32 18 32 11z m-70 -40 c0
-2 -13 -11 -30 -20 -38 -19 -40 -11 -2 9 31 17 32 18 32 11z m-90 -50 c0 -2
-18 -14 -40 -25 -22 -11 -40 -18 -40 -15 0 2 17 13 38 24 42 23 42 23 42 16z
m-90 -49 c0 -2 -7 -7 -16 -10 -8 -3 -12 -2 -9 4 6 10 25 14 25 6z m-160 -80
c0 -2 -7 -7 -16 -10 -8 -3 -12 -2 -9 4 6 10 25 14 25 6z m-40 -20 c0 -2 -7 -7
-16 -10 -8 -3 -12 -2 -9 4 6 10 25 14 25 6z m-40 -20 c0 -2 -7 -7 -16 -10 -8
-3 -12 -2 -9 4 6 10 25 14 25 6z m-50 -26 c-8 -5 -19 -10 -25 -10 -5 0 -3 5 5
10 8 5 20 10 25 10 6 0 3 -5 -5 -10z m-40 -14 c0 -2 -7 -7 -16 -10 -8 -3 -12
-2 -9 4 6 10 25 14 25 6z m-50 -26 c-8 -5 -19 -10 -25 -10 -5 0 -3 5 5 10 8 5
20 10 25 10 6 0 3 -5 -5 -10z m-90 -40 c-8 -5 -19 -10 -25 -10 -5 0 -3 5 5 10
8 5 20 10 25 10 6 0 3 -5 -5 -10z m-50 -20 c-8 -5 -19 -10 -25 -10 -5 0 -3 5
5 10 8 5 20 10 25 10 6 0 3 -5 -5 -10z m-50 -20 c-8 -5 -19 -10 -25 -10 -5 0
-3 5 5 10 8 5 20 10 25 10 6 0 3 -5 -5 -10z m-40 -14 c0 -2 -7 -7 -16 -10 -8
-3 -12 -2 -9 4 6 10 25 14 25 6z m-60 -26 c-8 -5 -19 -10 -25 -10 -5 0 -3 5 5
10 8 5 20 10 25 10 6 0 3 -5 -5 -10z m-50 -20 c-8 -5 -19 -10 -25 -10 -5 0 -3
5 5 10 8 5 20 10 25 10 6 0 3 -5 -5 -10z m-50 -20 c-8 -5 -19 -10 -25 -10 -5
0 -3 5 5 10 8 5 20 10 25 10 6 0 3 -5 -5 -10z m-55 -20 c-27 -12 -43 -12 -25
0 8 5 22 9 30 9 10 0 8 -3 -5 -9z m-55 -20 c-8 -5 -19 -10 -25 -10 -5 0 -3 5
5 10 8 5 20 10 25 10 6 0 3 -5 -5 -10z m-60 -20 c-8 -5 -19 -10 -25 -10 -5 0
-3 5 5 10 8 5 20 10 25 10 6 0 3 -5 -5 -10z m-55 -20 c-27 -12 -43 -12 -25 0
8 5 22 9 30 9 10 0 8 -3 -5 -9z m-60 -20 c-27 -12 -43 -12 -25 0 8 5 22 9 30
9 10 0 8 -3 -5 -9z m-60 -20 c-27 -12 -43 -12 -25 0 8 5 22 9 30 9 10 0 8 -3
-5 -9z m-65 -20 c-8 -5 -22 -9 -30 -9 -10 0 -8 3 5 9 27 12 43 12 25 0z m-65
-20 c-11 -5 -27 -9 -35 -9 -9 0 -8 4 5 9 11 5 27 9 35 9 9 0 8 -4 -5 -9z m-70
-20 c-27 -12 -43 -12 -25 0 8 5 22 9 30 9 10 0 8 -3 -5 -9z m-70 -20 c-27 -12
-43 -12 -25 0 8 5 22 9 30 9 10 0 8 -3 -5 -9z m-70 -20 c-11 -5 -27 -9 -35 -9
-9 0 -8 4 5 9 11 5 27 9 35 9 9 0 8 -4 -5 -9z m-80 -20 c-11 -5 -27 -9 -35 -9
-9 0 -8 4 5 9 11 5 27 9 35 9 9 0 8 -4 -5 -9z m-58 -16 c-3 -3 -12 -4 -19 -1
-8 3 -5 6 6 6 11 1 17 -2 13 -5z m-97 -24 c-34 -11 -60 -11 -35 0 11 5 29 8
40 8 16 0 15 -2 -5 -8z m-73 -16 c-3 -3 -12 -4 -19 -1 -8 3 -5 6 6 6 11 1 17
-2 13 -5z m-40 -10 c-3 -3 -12 -4 -19 -1 -8 3 -5 6 6 6 11 1 17 -2 13 -5z
m-57 -8 c0 -2 -7 -7 -16 -10 -8 -3 -12 -2 -9 4 6 10 25 14 25 6z m-77 -141
c-3 -9 -8 -14 -10 -11 -3 3 -2 9 2 15 9 16 15 13 8 -4z m-20 -40 c-3 -9 -8
-14 -10 -11 -3 3 -2 9 2 15 9 16 15 13 8 -4z m-40 -70 c-3 -9 -8 -14 -10 -11
-3 3 -2 9 2 15 9 16 15 13 8 -4z m-20 -40 c-3 -9 -8 -14 -10 -11 -3 3 -2 9 2
15 9 16 15 13 8 -4z m-33 -65 c-11 -22 -23 -40 -25 -40 -3 0 4 18 15 40 11 22
23 40 25 40 3 0 -4 -18 -15 -40z m-90 -170 c-6 -11 -13 -20 -16 -20 -2 0 0 9
6 20 6 11 13 20 16 20 2 0 0 -9 -6 -20z m-37 -65 c-3 -9 -8 -14 -10 -11 -3 3
-2 9 2 15 9 16 15 13 8 -4z m-33 -65 c-11 -22 -23 -40 -25 -40 -3 0 4 18 15
40 11 22 23 40 25 40 3 0 -4 -18 -15 -40z m-67 -125 c-3 -9 -8 -14 -10 -11 -3
3 -2 9 2 15 9 16 15 13 8 -4z m-28 -55 c-9 -16 -18 -30 -21 -30 -2 0 2 14 11
30 9 17 18 30 21 30 2 0 -2 -13 -11 -30z m-32 -55 c-3 -9 -8 -14 -10 -11 -3 3
-2 9 2 15 9 16 15 13 8 -4z m-38 -75 c-14 -27 -28 -50 -30 -50 -3 0 6 23 20
50 14 28 28 50 30 50 3 0 -6 -22 -20 -50z m-62 -115 c-3 -9 -8 -14 -10 -11 -3
3 -2 9 2 15 9 16 15 13 8 -4z m-28 -55 c-9 -16 -18 -30 -21 -30 -2 0 2 14 11
30 9 17 18 30 21 30 2 0 -2 -13 -11 -30z m-32 -55 c-3 -9 -8 -14 -10 -11 -3 3
-2 9 2 15 9 16 15 13 8 -4z m-38 -75 c-14 -27 -28 -50 -30 -50 -3 0 6 23 20
50 14 28 28 50 30 50 3 0 -6 -22 -20 -50z m-62 -115 c-3 -9 -8 -14 -10 -11 -3
3 -2 9 2 15 9 16 15 13 8 -4z m-20 -40 c-3 -9 -8 -14 -10 -11 -3 3 -2 9 2 15
9 16 15 13 8 -4z m-29 -55 c-10 -16 -20 -28 -22 -26 -4 5 28 56 35 56 2 0 -4
-13 -13 -30z m-31 -55 c-3 -9 -8 -14 -10 -11 -3 3 -2 9 2 15 9 16 15 13 8 -4z
m-33 -65 c-11 -22 -23 -40 -25 -40 -3 0 4 18 15 40 11 22 23 40 25 40 3 0 -4
-18 -15 -40z m-90 -170 c-6 -11 -13 -20 -16 -20 -2 0 0 9 6 20 6 11 13 20 16
20 2 0 0 -9 -6 -20z m-37 -65 c-3 -9 -8 -14 -10 -11 -3 3 -2 9 2 15 9 16 15
13 8 -4z m-33 -65 c-11 -22 -23 -40 -25 -40 -3 0 4 18 15 40 11 22 23 40 25
40 3 0 -4 -18 -15 -40z m-67 -125 c-3 -9 -8 -14 -10 -11 -3 3 -2 9 2 15 9 16
15 13 8 -4z m-28 -55 c-9 -16 -18 -30 -21 -30 -2 0 2 14 11 30 9 17 18 30 21
30 2 0 -2 -13 -11 -30z m-32 -55 c-3 -9 -8 -14 -10 -11 -3 3 -2 9 2 15 9 16
15 13 8 -4z m-38 -75 c-14 -27 -28 -50 -30 -50 -3 0 6 23 20 50 14 28 28 50
30 50 3 0 -6 -22 -20 -50z"/>
<path d="M11923 4478 c-23 -30 -24 -41 -2 -21 12 12 20 25 17 28 -3 3 -10 0
-15 -7z"/>
</g>
</svg>
