<?xml version="1.0" standalone="no"?>
<!DOCTYPE svg PUBLIC "-//W3C//DTD SVG 20010904//EN"
 "http://www.w3.org/TR/2001/REC-SVG-20010904/DTD/svg10.dtd">
<svg version="1.0" xmlns="http://www.w3.org/2000/svg"
 width="1280.000000pt" height="1256.000000pt" viewBox="0 0 1280.000000 1256.000000"
 preserveAspectRatio="xMidYMid meet">
<metadata>
Created by potrace 1.15, written by Peter Selinger 2001-2017
</metadata>
<g transform="translate(0.000000,1256.000000) scale(0.100000,-0.100000)"
fill="#000000" stroke="none">
<path d="M1946 12544 c-64 -20 -111 -51 -167 -110 -81 -85 -1686 -1920 -1717
-1963 -41 -57 -66 -155 -59 -228 12 -116 20 -126 787 -975 1087 -1203 1017
-1128 1083 -1162 80 -41 196 -48 279 -16 80 30 157 102 194 182 l29 63 3 527
3 527 36 7 c89 17 410 -15 618 -62 274 -61 630 -217 895 -391 360 -237 725
-592 1025 -998 87 -118 188 -265 182 -265 -3 0 -272 168 -599 374 -328 206
-610 382 -629 392 -48 24 -134 24 -181 -1 -61 -32 -3559 -2857 -3580 -2890
-54 -88 -43 -180 31 -254 25 -26 434 -318 909 -650 l862 -603 0 -1933 c0
-1445 3 -1941 12 -1966 18 -52 55 -96 102 -118 42 -21 48 -21 2792 -21 1886
-1 2759 3 2778 10 15 5 878 682 1918 1502 1353 1068 1898 1503 1917 1532 l26
41 5 1950 5 1950 626 945 c344 520 634 960 643 978 9 18 20 55 23 82 10 86
-58 185 -144 209 -54 15 -5613 15 -5667 0 -21 -6 -56 -27 -77 -47 -21 -20
-135 -183 -253 -361 -187 -283 -215 -321 -221 -300 -19 58 -131 312 -200 449
-412 827 -1005 1441 -1780 1841 -561 290 -1220 459 -1893 485 l-172 7 0 491
c0 521 -2 544 -49 620 -80 129 -255 195 -395 150z"/>
</g>
</svg>
