<?xml version="1.0" standalone="no"?>
<!DOCTYPE svg PUBLIC "-//W3C//DTD SVG 20010904//EN"
 "http://www.w3.org/TR/2001/REC-SVG-20010904/DTD/svg10.dtd">
<svg version="1.0" xmlns="http://www.w3.org/2000/svg"
 width="1218.000000pt" height="1280.000000pt" viewBox="0 0 1218.000000 1280.000000"
 preserveAspectRatio="xMidYMid meet">
<metadata>
Created by potrace 1.15, written by Peter Selinger 2001-2017
</metadata>
<g transform="translate(0.000000,1280.000000) scale(0.100000,-0.100000)"
fill="#000000" stroke="none">
<path d="M6243 12782 c-172 -61 -252 -254 -174 -417 52 -112 152 -175 274
-175 l59 0 -27 -32 c-15 -18 -31 -43 -37 -57 l-10 -26 -16 25 c-28 41 -73 80
-126 107 -42 21 -65 26 -126 26 -114 0 -203 -49 -257 -140 l-26 -46 -21 29
c-26 36 -44 54 -79 79 l-27 20 72 0 c60 0 83 5 130 28 138 68 202 217 159 368
-33 118 -155 210 -279 210 -125 1 -225 -60 -279 -169 -24 -48 -28 -69 -27
-137 0 -66 5 -89 26 -130 25 -48 84 -112 120 -131 12 -7 -8 -10 -60 -9 -142 0
-242 -72 -292 -209 l-11 -30 -30 37 c-17 20 -50 49 -75 63 -24 14 -44 27 -44
27 0 1 29 2 64 3 163 2 291 140 289 308 -1 58 -7 80 -35 135 -113 222 -419
220 -536 -3 -23 -44 -27 -63 -26 -136 0 -72 4 -93 26 -135 28 -54 85 -113 133
-138 l30 -16 -57 -1 c-82 0 -154 -30 -210 -87 -48 -49 -87 -121 -88 -160 0
-29 -11 -29 -36 -2 -10 12 -39 33 -64 48 -40 23 -55 26 -140 26 -78 0 -102 -4
-135 -22 -68 -37 -126 -104 -150 -177 l-22 -65 -23 23 c-12 14 -35 30 -51 36
-16 7 -29 15 -29 19 0 3 22 14 49 24 61 21 129 85 161 152 20 40 25 66 25 125
l0 76 26 -42 c80 -125 251 -171 387 -103 90 44 140 113 163 220 12 57 1 137
-28 192 -25 49 -85 108 -137 135 -43 22 -64 26 -131 26 -93 0 -150 -22 -210
-82 -62 -62 -89 -125 -89 -212 l-1 -75 -31 45 c-105 154 -327 175 -456 43 -65
-66 -91 -130 -91 -218 0 -114 48 -199 151 -265 l42 -28 -34 -6 c-18 -4 -53
-20 -76 -37 -23 -17 -43 -29 -45 -27 -1 2 0 23 4 48 42 289 -303 465 -509 260
-80 -81 -112 -211 -76 -312 l13 -37 -40 34 c-78 67 -217 88 -310 47 -130 -58
-214 -219 -178 -346 6 -22 9 -41 7 -43 -1 -2 -25 7 -52 19 -147 66 -336 -16
-395 -172 -17 -44 -20 -70 -16 -130 2 -41 8 -83 12 -92 7 -17 5 -17 -31 -1
-61 26 -177 23 -239 -7 -69 -34 -129 -99 -155 -168 -28 -73 -25 -177 7 -240
l21 -44 -21 7 c-103 31 -158 29 -243 -9 -60 -28 -115 -82 -146 -145 -19 -37
-23 -62 -23 -131 1 -77 11 -118 42 -170 2 -3 -27 -5 -65 -6 -83 -1 -149 -30
-209 -92 -86 -88 -109 -239 -52 -349 l27 -50 -53 -6 c-234 -24 -358 -276 -234
-472 16 -25 29 -47 29 -48 0 -1 -23 -3 -50 -4 -111 -4 -199 -63 -250 -167 -27
-53 -32 -76 -32 -134 0 -108 47 -201 129 -252 l43 -27 -83 -5 c-98 -5 -144
-26 -204 -91 -62 -67 -76 -101 -81 -195 -4 -77 -2 -87 27 -146 29 -60 62 -98
121 -138 l25 -17 -31 0 c-45 -1 -149 -57 -184 -99 -54 -66 -74 -119 -74 -202
0 -56 6 -88 23 -126 24 -54 86 -122 136 -147 l30 -15 -30 -7 c-109 -24 -187
-82 -232 -173 -23 -48 -28 -69 -27 -132 2 -155 94 -267 245 -300 64 -14 138
-2 197 31 18 10 35 19 36 19 2 0 0 -19 -5 -42 -4 -24 -6 -53 -3 -65 2 -13 6
-34 9 -48 5 -25 5 -25 -39 9 -59 45 -107 60 -186 60 -113 0 -211 -62 -268
-169 -22 -42 -27 -63 -27 -130 0 -67 4 -89 28 -137 53 -108 151 -170 269 -172
57 0 76 5 134 34 45 23 79 49 100 77 l32 42 -5 -58 c-13 -143 85 -290 214
-323 l43 -10 -42 -27 c-24 -15 -57 -44 -75 -64 -38 -44 -42 -45 -36 -12 7 35
-15 123 -43 171 -76 133 -250 187 -387 120 -64 -31 -120 -89 -150 -155 -30
-65 -30 -177 1 -247 90 -200 357 -241 502 -77 l40 46 0 -55 c0 -74 24 -138 72
-193 110 -125 298 -139 425 -30 l40 34 7 -45 c24 -176 221 -297 387 -239 63
22 115 59 148 105 l28 39 6 -60 c4 -33 16 -78 27 -101 11 -23 20 -42 20 -43 0
-1 -24 6 -52 16 -111 38 -216 17 -301 -61 -99 -90 -129 -219 -81 -343 5 -14 1
-15 -33 -5 -51 14 -170 5 -211 -16 -53 -28 -112 -86 -140 -140 -23 -43 -27
-64 -27 -136 0 -80 5 -101 43 -172 2 -4 -12 -3 -30 3 -125 35 -275 -28 -342
-144 -49 -84 -51 -209 -6 -298 27 -51 111 -124 167 -143 204 -70 415 90 400
304 -2 36 -13 87 -25 113 l-21 47 27 -7 c15 -5 53 -8 85 -8 31 0 57 -3 57 -6
0 -3 -13 -18 -29 -33 -47 -45 -75 -120 -75 -201 0 -67 9 -97 62 -197 2 -4 -14
-2 -35 4 -120 33 -279 -51 -334 -176 -34 -77 -33 -183 4 -258 73 -150 252
-213 402 -143 55 27 112 82 138 135 22 43 26 48 32 30 4 -11 21 -40 40 -64
l33 -43 -51 -6 c-203 -25 -330 -244 -245 -427 35 -78 70 -114 140 -149 74 -38
168 -42 246 -13 l48 19 -30 -56 c-28 -50 -31 -65 -31 -141 0 -73 4 -92 27
-135 34 -65 90 -118 153 -146 67 -31 172 -31 233 -1 38 18 43 19 37 4 -31 -75
-37 -109 -33 -170 16 -214 232 -346 424 -258 48 22 55 23 49 8 -50 -120 -17
-253 86 -346 90 -81 222 -98 328 -43 l47 24 0 -81 c0 -94 20 -149 79 -214 116
-129 324 -129 440 0 42 46 71 105 81 165 l6 41 38 -17 38 -16 -44 -38 c-117
-103 -132 -285 -35 -413 73 -96 208 -140 328 -105 94 26 183 127 205 231 l12
58 28 -10 c16 -6 27 -13 25 -17 -53 -98 -62 -129 -61 -201 1 -88 27 -153 86
-212 131 -131 357 -112 457 38 l29 44 7 -37 c18 -100 80 -184 170 -231 42 -22
63 -26 130 -26 93 0 143 20 211 85 l41 40 18 -41 c24 -54 103 -124 162 -144
60 -21 147 -20 209 1 35 11 66 34 109 77 l61 62 18 -40 c26 -53 82 -107 142
-137 67 -33 189 -34 251 -1 55 29 107 74 134 119 l22 35 46 -46 c25 -25 66
-54 91 -65 56 -25 157 -28 223 -5 52 18 130 82 153 126 l15 29 35 -30 c92 -81
218 -98 332 -44 48 23 113 88 135 136 10 20 20 37 23 37 3 0 19 -9 34 -20 99
-71 250 -64 353 14 41 31 92 107 103 151 10 45 12 46 50 20 139 -94 350 -37
429 115 8 16 21 55 28 85 l12 55 45 -30 c196 -129 460 20 460 260 l0 59 48
-29 c92 -57 202 -58 304 -3 96 53 152 151 151 270 l-1 72 42 -21 c59 -31 172
-31 242 0 108 49 177 154 178 274 l1 68 35 -8 c157 -33 292 33 358 176 21 46
23 64 20 130 -3 42 -8 84 -11 92 -6 13 3 14 62 12 120 -6 222 56 283 170 18
35 23 59 23 128 0 82 -6 105 -53 192 -2 3 19 0 45 -9 134 -41 293 37 356 175
33 73 30 180 -6 254 -53 108 -158 172 -278 171 l-57 -1 28 45 c100 158 36 367
-138 446 -63 29 -169 29 -233 0 -60 -27 -120 -82 -149 -136 l-23 -44 -29 58
c-53 106 -151 169 -264 169 l-53 0 27 52 c23 45 27 64 27 138 0 68 -4 94 -22
129 -12 25 -21 46 -20 47 1 0 25 4 53 7 l52 6 -15 -47 c-42 -137 30 -298 165
-364 71 -35 188 -33 259 4 28 15 71 50 94 77 l43 50 27 -48 c34 -59 77 -96
147 -129 45 -20 65 -24 128 -20 76 3 85 0 58 -23 -35 -29 -57 -93 -62 -175 -4
-72 -1 -89 20 -136 34 -75 79 -122 146 -155 48 -23 69 -28 132 -27 122 1 217
60 271 170 20 40 24 64 24 134 0 72 -4 93 -27 136 -28 54 -86 111 -140 141
-25 13 -56 18 -125 18 -51 0 -93 3 -93 6 0 3 9 14 19 23 66 60 86 222 38 317
-14 29 -25 55 -23 56 2 2 22 1 44 -3 38 -6 40 -8 31 -31 -14 -39 -11 -145 8
-199 25 -73 110 -154 187 -178 144 -45 288 13 362 146 26 48 29 62 29 143 0
81 -3 95 -29 143 -52 93 -137 150 -237 159 -56 6 -57 6 -48 30 5 13 9 58 9 99
l0 75 29 -34 c16 -18 54 -46 83 -63 47 -26 62 -29 138 -29 69 0 93 5 127 23
63 33 106 74 139 134 26 48 29 62 29 143 0 100 -16 143 -80 213 -56 63 -116
87 -215 87 -79 0 -106 -7 -171 -42 -4 -2 -12 23 -17 57 -14 76 -56 154 -103
192 l-37 29 48 45 c63 59 93 129 94 214 1 36 -2 77 -7 93 -7 26 -6 27 27 27
109 0 245 107 271 213 4 15 8 27 10 27 1 0 22 -7 45 -15 179 -63 380 69 397
263 20 217 -191 385 -396 317 -72 -23 -153 -99 -182 -171 -17 -41 -27 -53 -38
-48 -9 3 -36 12 -60 18 l-45 12 35 14 c91 38 168 149 177 257 l5 62 41 -22
c60 -32 203 -32 263 1 61 32 112 87 141 151 68 146 5 322 -142 399 -71 37
-188 38 -260 3 -99 -49 -162 -142 -173 -255 l-5 -62 -48 24 c-74 37 -172 34
-256 -8 -35 -17 -72 -43 -84 -57 -23 -29 -21 -30 -44 15 -9 18 -35 51 -58 73
l-40 39 38 43 c22 24 44 52 49 62 10 17 14 16 57 -17 111 -85 278 -73 382 28
41 40 80 112 90 165 l6 36 58 -20 c144 -48 297 15 367 154 97 191 -32 422
-244 437 -168 11 -286 -83 -325 -261 l-6 -27 -33 16 c-17 10 -62 19 -98 22
-114 8 -212 -39 -271 -130 l-32 -48 -25 24 c-73 70 -216 92 -312 49 -62 -28
-120 -81 -147 -136 -23 -45 -44 -136 -36 -149 10 -15 -14 -8 -27 9 -8 9 -41
29 -74 45 -118 55 -242 33 -336 -61 -66 -66 -89 -124 -89 -220 0 -81 38 -170
94 -219 l37 -32 -35 -34 c-56 -52 -90 -137 -90 -221 0 -86 27 -152 86 -212
l41 -42 -50 -54 c-85 -94 -107 -230 -54 -336 12 -24 21 -44 19 -45 -2 -2 -18
-8 -36 -16 -18 -7 -52 -31 -76 -54 -107 -104 -125 -265 -44 -392 l30 -48 -29
-20 c-44 -32 -81 -76 -105 -126 -32 -65 -32 -197 -1 -257 l23 -41 -33 -7 c-86
-19 -164 -85 -205 -174 -36 -77 -36 -178 -1 -249 l24 -49 -61 -10 c-159 -27
-253 -129 -262 -283 -4 -70 2 -100 32 -171 6 -15 0 -16 -57 -12 -100 8 -167
-16 -237 -85 -39 -39 -62 -73 -73 -106 -21 -62 -22 -160 -2 -216 8 -24 13 -45
11 -47 -2 -3 -19 3 -37 13 -19 9 -63 19 -99 21 -122 9 -234 -58 -290 -172 -34
-69 -35 -187 -2 -260 l23 -50 -28 27 c-79 74 -202 97 -307 58 -169 -64 -247
-271 -161 -429 54 -99 138 -151 253 -159 63 -4 72 -7 66 -21 -4 -9 -12 -35
-18 -58 l-11 -41 -39 23 c-53 32 -143 48 -197 36 -24 -6 -47 -11 -50 -11 -4 0
-2 19 3 43 29 127 -44 272 -169 333 -71 35 -174 38 -244 7 -99 -44 -171 -141
-185 -250 l-7 -52 -44 39 c-25 22 -70 48 -99 60 -164 61 -346 -33 -394 -203
l-12 -44 -44 47 c-65 70 -127 93 -229 88 -55 -3 -93 -11 -121 -26 -54 -28
-131 -114 -145 -163 -7 -21 -15 -39 -18 -39 -3 0 -15 14 -26 31 -30 47 -102
98 -164 115 -129 38 -264 -14 -344 -135 l-16 -23 -10 38 c-33 121 -142 212
-267 222 -92 7 -165 -19 -231 -83 -48 -46 -53 -49 -58 -31 -29 110 -74 175
-153 219 -61 34 -160 47 -227 28 -96 -26 -179 -108 -207 -206 -6 -22 -12 -41
-13 -42 -3 -6 -76 19 -73 25 32 59 42 98 46 164 3 66 1 84 -20 130 -34 75 -79
122 -146 155 -47 23 -70 28 -132 28 -122 0 -213 -56 -272 -168 -19 -35 -23
-58 -23 -135 0 -78 -2 -91 -15 -86 -8 3 -43 11 -76 17 -60 10 -110 1 -195 -37
-12 -5 -19 2 -28 31 -7 21 -14 43 -17 48 -2 6 29 10 84 10 105 1 147 19 215
95 138 154 87 397 -102 484 -72 32 -179 29 -254 -8 -69 -33 -127 -101 -152
-177 -21 -62 -17 -168 8 -215 l16 -32 -69 2 -69 1 1 50 c1 62 -9 109 -33 157
l-19 38 27 5 c109 24 177 76 224 170 29 60 31 70 27 147 -7 128 -63 213 -172
264 -77 36 -185 34 -258 -5 l-55 -28 31 56 c28 50 31 65 31 141 0 72 -4 92
-27 136 -66 126 -200 189 -340 161 l-37 -8 27 52 c34 68 42 173 18 247 -22 65
-85 136 -150 170 -42 22 -65 26 -127 27 l-76 0 28 35 c97 121 95 289 -5 407
-39 47 -138 93 -198 93 -26 0 -48 2 -48 5 0 3 17 22 38 43 118 118 117 316 -3
434 -45 44 -103 75 -162 84 l-43 7 45 32 c162 115 180 331 41 470 -61 61 -121
85 -215 85 -71 0 -126 -20 -185 -65 l-33 -25 -1 60 c-2 160 -133 290 -293 290
-84 0 -147 -22 -202 -71 -25 -21 -47 -39 -50 -39 -2 0 -7 12 -10 28 -8 40 -61
108 -112 144 l-44 31 39 44 c22 23 48 58 57 78 l16 35 53 -59 c116 -127 282
-141 420 -36 l33 25 -10 -32 c-32 -114 23 -259 126 -329 111 -76 265 -65 372
25 18 15 47 57 65 93 59 120 40 247 -51 346 -59 64 -127 92 -221 91 -83 -1
-130 -17 -182 -63 l-33 -29 0 102 c0 94 -2 105 -30 155 -35 63 -108 125 -168
143 -143 42 -301 -24 -365 -152 l-18 -38 -41 53 -41 53 46 18 c99 37 180 146
189 255 l6 58 32 -35 c50 -52 137 -88 215 -88 38 1 81 8 104 17 36 16 38 16
31 -1 -61 -147 8 -322 154 -394 65 -32 187 -33 252 0 233 114 232 437 -1 557
-48 25 -163 31 -218 12 -43 -15 -44 -15 -37 6 4 12 9 48 12 80 l5 57 32 -31
c85 -86 229 -109 338 -56 107 52 171 158 170 280 0 59 -5 80 -34 136 -21 42
-48 76 -75 97 l-42 32 67 4 c166 9 286 137 286 303 0 106 -44 189 -139 260
-17 12 -13 12 20 -1 51 -21 185 -15 233 10 54 28 112 86 140 140 23 43 27 64
27 136 0 86 -15 135 -61 197 -16 22 -16 22 17 13 54 -16 134 -12 192 10 136
51 222 216 185 355 l-14 50 91 0 c81 0 95 3 143 29 97 54 152 139 160 246 2
36 0 81 -6 102 l-10 36 52 -26 c139 -71 325 -2 398 147 26 53 36 163 20 211
-13 36 -10 37 31 7 52 -38 97 -52 172 -52 169 0 297 132 296 306 l0 71 30 -42
c102 -141 307 -159 443 -39 54 47 96 140 96 212 l0 60 31 -46 c110 -167 345
-182 477 -32 23 26 48 69 57 96 l17 50 19 -39 c41 -82 135 -150 232 -168 102
-18 237 48 292 143 17 29 32 52 35 53 3 0 14 -13 23 -30 27 -46 75 -89 131
-117 41 -22 65 -27 126 -27 95 -1 157 26 223 96 35 37 47 45 47 32 0 -34 46
-118 85 -156 63 -63 117 -83 215 -83 91 0 133 15 198 70 l31 26 6 -28 c29
-135 114 -223 243 -253 181 -42 375 128 360 316 -2 24 -3 44 -3 44 35 -20 103
-50 114 -50 10 0 7 -6 -9 -17 -92 -61 -141 -143 -148 -248 -8 -127 55 -237
166 -292 48 -24 69 -28 137 -28 69 1 87 5 133 30 29 16 67 45 84 64 l30 34 -7
-32 c-10 -47 -8 -133 5 -166 6 -15 9 -29 7 -31 -1 -2 -23 4 -47 12 -59 21
-154 14 -215 -16 -216 -104 -231 -419 -27 -538 l48 -27 -33 -65 c-18 -36 -33
-56 -33 -45 0 28 -42 114 -74 152 -15 17 -54 46 -88 62 -109 55 -242 39 -332
-40 -89 -79 -126 -211 -91 -324 23 -70 95 -153 162 -186 66 -31 179 -33 244
-2 83 37 145 109 175 198 5 16 9 10 18 -25 40 -155 195 -252 348 -220 73 16
141 60 183 117 16 23 32 42 35 42 3 1 13 -19 23 -42 22 -55 86 -120 146 -149
37 -19 63 -23 131 -23 76 0 91 3 139 30 56 31 126 108 137 151 6 24 24 34 24
14 0 -21 86 -103 135 -128 42 -22 63 -26 130 -26 67 0 88 4 131 26 57 30 119
93 142 147 l16 36 7 -47 c9 -58 53 -141 94 -175 155 -132 380 -89 472 91 l25
48 22 -48 c85 -180 322 -233 468 -104 119 104 141 272 53 406 -34 52 -107 107
-158 120 l-29 7 46 46 c97 99 119 230 58 354 -34 68 -74 107 -146 144 l-39 20
37 22 c44 28 94 98 112 159 49 161 -48 340 -206 383 -25 7 -47 13 -49 15 -1 1
9 15 23 31 52 55 71 110 71 203 0 72 -4 92 -27 136 -27 52 -91 117 -134 136
-13 6 -24 14 -23 17 0 3 21 20 47 36 155 100 182 315 58 462 -42 50 -138 93
-208 93 -32 0 -58 2 -58 4 0 2 7 21 16 42 23 54 15 174 -15 232 -20 40 -21 43
-4 48 60 20 108 52 147 95 59 65 80 129 74 223 -8 116 -65 203 -166 253 -47
23 -70 28 -132 28 -122 0 -213 -56 -272 -168 -33 -60 -33 -202 0 -266 12 -25
21 -45 19 -46 -1 -1 -23 -9 -48 -18 -107 -40 -179 -141 -187 -263 -7 -103 16
-163 87 -235 63 -62 124 -89 204 -89 39 0 48 -3 44 -14 -3 -8 -11 -33 -17 -55
l-10 -40 -46 49 c-91 98 -224 122 -344 63 -58 -29 -61 -29 -55 -9 4 11 9 53
12 91 6 92 -21 166 -83 230 -62 64 -121 88 -214 88 -118 1 -205 -49 -262 -149
l-30 -54 -43 30 c-24 17 -48 30 -54 30 -16 0 -14 8 10 42 101 142 39 362 -125
439 -135 64 -296 21 -377 -100 l-31 -46 8 40 c28 142 -36 278 -160 343 -68 36
-186 38 -257 5 -184 -84 -235 -327 -102 -483 129 -150 375 -127 485 45 16 25
18 26 13 6 -13 -43 -8 -136 9 -188 20 -61 83 -136 138 -164 l39 -20 -21 -29
c-35 -49 -51 -110 -49 -184 l2 -69 -45 -12 c-25 -6 -59 -20 -74 -30 l-29 -19
18 25 c9 13 24 34 33 47 29 39 43 95 44 168 0 59 -5 81 -30 132 -56 111 -145
166 -270 167 -83 0 -144 -23 -200 -75 l-30 -28 0 47 c0 144 -96 269 -232 301
l-51 13 36 19 c94 48 157 157 157 271 -1 146 -88 256 -230 293 -71 18 -121 13
-196 -21 -105 -47 -165 -135 -172 -255 -5 -95 20 -167 79 -229 43 -45 127 -91
167 -91 28 0 29 -16 1 -25 -12 -4 -38 -22 -59 -41 l-37 -34 -23 62 c-43 119
-153 198 -274 198 l-50 0 45 28 c96 61 143 147 143 262 1 62 -4 85 -27 132
-74 152 -253 217 -399 145 -141 -69 -209 -227 -160 -372 11 -33 20 -61 19 -62
-1 -1 -25 3 -52 8 -28 5 -62 7 -77 3 -34 -7 -35 -1 -3 40 37 48 55 110 55 186
0 204 -206 350 -397 282z m722 -669 l44 -6 -42 -28 c-23 -15 -46 -27 -52 -26
-5 0 -18 19 -27 40 l-18 39 25 -6 c14 -4 45 -9 70 -13z m-588 -416 c-79 -25
-168 -110 -189 -181 l-14 -47 -32 46 c-18 25 -55 60 -82 77 -28 17 -50 32 -50
32 0 1 26 2 58 3 36 0 79 10 110 23 52 23 132 98 153 144 l12 25 47 -52 48
-52 -61 -18z m-554 43 c16 -23 52 -54 80 -70 l52 -30 -66 0 c-87 0 -174 -42
-227 -109 l-37 -47 -52 57 -53 56 45 7 c25 3 59 13 76 22 46 23 115 90 129
124 7 17 15 30 19 30 3 0 19 -18 34 -40z m1037 -34 c7 -21 33 -60 59 -87 l46
-47 -51 -21 c-27 -12 -70 -41 -94 -66 l-44 -45 -18 59 c-12 40 -33 75 -63 109
-25 27 -45 53 -45 56 0 3 9 6 20 6 26 0 97 34 135 64 34 28 38 26 55 -28z
m-1554 -69 c-107 -29 -188 -94 -226 -179 l-21 -48 -53 30 c-126 72 -273 53
-367 -47 -38 -40 -79 -111 -79 -138 0 -19 -14 -19 -29 -1 -6 8 -35 24 -64 37
-78 34 -175 32 -250 -4 -59 -29 -114 -85 -142 -144 -9 -19 -20 -33 -23 -31 -4
2 -29 14 -56 27 l-49 23 35 13 c54 18 103 52 132 90 34 44 65 113 66 142 0 22
2 21 45 -12 173 -131 409 -52 474 159 l17 56 25 -26 c90 -97 271 -109 386 -24
44 32 97 107 108 153 l7 27 48 -47 47 -48 -31 -8z m2074 -24 c0 -34 48 -118
89 -159 l42 -41 -55 -27 c-31 -15 -71 -46 -91 -68 -33 -39 -35 -40 -35 -17 0
51 -33 120 -81 173 l-49 54 27 6 c32 8 133 74 133 87 0 5 5 9 10 9 6 0 10 -8
10 -17z m-4117 -109 c26 -10 47 -21 47 -24 0 -3 -20 -13 -44 -23 -24 -10 -52
-27 -62 -38 -24 -27 -31 -24 -26 14 3 31 -7 91 -24 132 -6 16 0 13 28 -11 19
-17 56 -39 81 -50z m320 -15 l-5 -66 -47 23 c-25 13 -55 26 -66 29 -16 5 -10
11 31 26 28 11 59 28 69 39 10 11 19 19 21 18 1 -2 0 -33 -3 -69z m4360 -205
c26 -52 85 -112 134 -138 76 -39 192 -37 274 4 l44 22 -26 -28 c-15 -16 -36
-48 -48 -71 l-21 -42 -50 34 c-96 65 -235 62 -340 -8 l-25 -16 3 62 c5 86 -25
163 -87 225 l-48 48 42 17 c23 10 57 30 76 46 l34 29 6 -67 c4 -41 16 -86 32
-117z m-1677 -100 c36 -36 64 -51 154 -81 11 -4 8 -8 -10 -13 -70 -20 -141
-82 -177 -154 l-20 -38 -27 46 c-23 40 -74 86 -125 115 -10 6 0 20 37 55 33
31 59 67 74 103 22 55 23 55 37 32 8 -13 34 -43 57 -65z m498 -62 c24 -47 86
-106 134 -128 23 -10 42 -21 42 -24 0 -3 -13 -13 -28 -22 -16 -10 -47 -37 -69
-61 l-40 -43 -11 40 c-25 96 -113 182 -209 209 l-42 11 59 28 c34 17 74 46 92
68 l33 39 11 -42 c6 -23 18 -57 28 -75z m-3674 44 l0 -63 -52 14 c-97 26 -200
-2 -280 -75 l-43 -40 3 64 c2 36 -1 78 -7 94 -5 17 -9 30 -7 30 2 0 23 -9 47
-19 100 -43 203 -35 286 24 27 18 49 33 51 34 1 1 2 -28 2 -63z m6094 45 c33
-36 113 -63 189 -63 57 0 80 6 129 30 44 22 57 25 52 13 -4 -9 -9 -54 -11
-101 -5 -81 -3 -88 29 -150 22 -42 48 -75 75 -95 23 -16 42 -32 42 -35 1 -4
-16 -12 -36 -19 -56 -21 -126 -97 -152 -167 -18 -46 -22 -73 -18 -124 2 -36 8
-73 12 -84 6 -13 -6 -8 -38 17 -61 47 -108 62 -192 61 -86 0 -150 -30 -213
-98 -38 -41 -42 -43 -35 -18 5 15 8 61 8 102 -1 61 -6 85 -27 126 -26 50 -85
111 -130 135 -12 6 -24 13 -26 14 -1 1 9 26 23 56 20 44 25 70 25 137 0 80 1
82 24 82 65 0 164 70 207 145 17 30 34 55 38 55 5 0 16 -9 25 -19z m-5430 -21
c32 -17 53 -30 46 -30 -6 0 -34 -11 -62 -25 -27 -14 -50 -25 -51 -25 -1 0 0
25 1 55 2 30 5 55 5 55 1 0 29 -14 61 -30z m1996 -120 c16 -7 30 -13 30 -14 0
-1 -27 -30 -60 -63 -44 -45 -63 -74 -72 -108 -14 -51 -23 -57 -32 -19 -10 37
-98 127 -145 149 l-39 17 59 30 c53 26 129 98 129 121 0 5 22 -16 50 -46 27
-30 63 -60 80 -67z m-540 -3 l60 -34 -41 -13 c-98 -33 -178 -145 -187 -263
l-5 -70 -18 34 c-32 62 -131 137 -184 140 -11 1 7 5 40 10 118 17 211 86 252
185 10 24 19 44 20 44 2 0 30 -15 63 -33z m2084 -18 c9 -55 36 -106 83 -153
39 -40 123 -85 158 -86 11 -1 -3 -10 -31 -21 -28 -10 -69 -35 -91 -53 l-40
-35 -12 52 c-22 94 -90 177 -177 213 l-37 15 52 35 c28 19 57 44 64 54 17 29
24 25 31 -21z m2973 -114 l35 -17 -50 -29 c-163 -93 -193 -323 -63 -471 35
-40 121 -88 158 -88 13 0 23 -2 23 -5 0 -3 -16 -28 -35 -57 -19 -28 -38 -61
-41 -73 -5 -20 -11 -17 -67 40 -60 59 -127 95 -179 95 -22 0 -22 8 -2 35 38
50 46 173 18 258 -12 37 -33 68 -74 109 l-57 56 36 17 c73 33 141 115 162 193
l12 48 44 -47 c24 -26 60 -55 80 -64z m-5587 -6 c15 -12 52 -29 80 -39 l52
-18 -68 -3 c-46 -3 -84 -12 -112 -27 l-42 -22 25 50 c14 27 25 56 25 65 0 20
5 19 40 -6z m-1108 -48 l-4 -49 -52 5 c-69 7 -149 -17 -207 -61 l-45 -33 1 77
0 77 45 -14 c60 -19 147 -10 208 21 26 14 49 25 52 26 3 0 3 -22 2 -49z m-907
-57 l0 -75 -35 6 c-129 25 -253 -22 -318 -119 l-27 -42 3 73 c3 40 -1 87 -7
104 -6 18 -10 34 -8 36 2 2 19 -5 38 -14 54 -27 171 -24 234 7 36 19 111 79
120 99 1 1 1 -33 0 -75z m5121 -9 c-1 -36 -1 -65 -1 -65 0 5 -105 50 -117 50
-27 0 -13 17 21 25 15 3 43 17 62 30 19 13 34 24 35 25 0 0 0 -29 0 -65z
m-3565 -82 c70 -35 170 -37 243 -5 27 12 50 22 51 22 1 0 -11 -25 -27 -56 -23
-47 -28 -70 -28 -127 l0 -71 -25 35 c-63 85 -149 124 -263 117 l-78 -4 34 58
c19 32 36 58 38 58 1 0 26 -12 55 -27z m4227 -63 c4 0 13 -4 20 -8 10 -7 7
-21 -14 -66 -51 -112 -28 -246 59 -342 l34 -39 -46 -41 -46 -41 3 73 c8 153
-71 266 -223 318 l-20 7 20 11 c39 21 97 84 121 131 l25 48 30 -25 c17 -15 34
-26 37 -26z m-5253 -133 l0 -84 -35 15 c-20 9 -66 16 -106 16 -61 0 -81 -4
-132 -31 l-60 -31 -4 55 -3 54 35 -8 c98 -23 221 9 280 72 13 14 24 25 24 25
1 0 1 -38 1 -83z m768 11 c-57 -63 -88 -189 -65 -270 6 -21 9 -38 7 -38 -2 0
-20 11 -40 24 -35 24 -69 37 -129 51 l-29 6 21 22 c11 12 27 36 35 52 18 36
37 133 30 152 -4 9 14 12 72 12 42 0 79 2 83 5 3 3 12 6 20 6 12 0 11 -5 -5
-22z m-1701 -63 c-4 -57 -12 -64 -54 -47 -15 6 -12 13 20 55 20 26 37 47 37
47 0 0 -2 -25 -3 -55z m-317 -105 c14 0 25 -4 25 -10 0 -5 -4 -10 -8 -10 -5 0
-21 -17 -35 -37 -23 -32 -27 -34 -32 -17 -4 10 -15 38 -25 61 l-19 42 34 -15
c19 -8 46 -14 60 -14z m7034 -116 c-17 -58 -6 -151 24 -210 46 -90 146 -160
237 -166 22 -1 40 -3 40 -5 0 -2 -11 -20 -25 -41 -13 -20 -30 -61 -38 -90
l-13 -52 -24 25 c-31 33 -113 73 -167 81 l-41 6 14 40 c34 97 4 226 -70 304
l-42 44 35 25 c20 13 45 38 56 54 11 17 21 29 22 27 1 -1 -2 -20 -8 -42z m691
-33 c25 -11 56 -21 69 -21 18 0 22 -4 16 -17 -49 -111 -56 -185 -26 -270 l18
-52 -38 34 c-52 47 -92 66 -154 72 l-52 5 34 67 c36 70 45 137 30 214 l-8 39
33 -25 c19 -15 54 -35 78 -46z m-6214 -1 c28 0 31 -12 8 -31 -49 -40 -81 -196
-56 -268 13 -36 12 -37 -36 -12 -21 11 -55 23 -76 26 l-37 7 25 27 c46 48 70
118 71 202 l0 76 39 -13 c21 -8 49 -14 62 -14z m-703 -34 c-7 -34 23 -143 49
-180 l22 -31 -35 27 c-61 46 -108 61 -189 61 -51 0 -85 -5 -107 -16 -18 -9
-34 -17 -36 -17 -1 0 1 27 7 60 l10 59 56 -6 c64 -6 149 15 190 47 33 26 38
25 33 -4z m-877 -198 c-6 -4 -19 -8 -29 -8 -34 0 -112 -45 -154 -88 -89 -91
-106 -218 -48 -354 6 -15 2 -18 -24 -18 -92 0 -208 -85 -252 -185 -33 -73 -32
-171 3 -246 l26 -57 -50 -6 c-197 -26 -317 -236 -243 -427 4 -12 -5 -18 -40
-26 -41 -9 -45 -9 -39 6 50 118 43 232 -22 318 -13 17 -24 33 -24 35 0 2 24 5
53 6 64 3 164 49 203 95 84 99 102 234 46 345 l-30 62 56 0 c109 0 222 81 262
187 28 76 27 173 -3 238 l-24 50 63 1 c81 1 178 46 225 106 l33 41 12 -34 c8
-25 8 -36 0 -41z m1112 -114 c23 -4 42 -8 42 -10 0 -2 -15 -23 -33 -47 -19
-24 -39 -65 -46 -90 -13 -45 -11 -166 3 -197 5 -13 -7 -15 -82 -15 l-88 0 33
33 c56 55 76 107 81 202 3 78 1 90 -25 141 l-29 56 51 -33 c27 -18 69 -36 93
-40z m7454 -70 l49 -25 -39 -28 c-44 -33 -98 -108 -107 -152 l-7 -30 -20 38
c-26 49 -83 109 -119 124 -16 6 -29 13 -29 15 0 2 22 24 49 49 27 26 58 66 68
90 l18 44 44 -50 c24 -27 66 -61 93 -75z m-8140 -18 c-6 -94 17 -162 78 -229
65 -71 130 -100 225 -100 l70 0 -32 -33 c-17 -19 -39 -52 -49 -74 -10 -22 -21
-40 -24 -40 -4 0 -12 17 -18 39 -17 54 -83 125 -146 156 -62 30 -145 42 -198
27 l-38 -10 17 31 c19 35 25 189 9 240 -7 23 -5 27 10 28 11 0 35 6 54 13 19
8 37 14 40 15 3 0 4 -28 2 -63z m7580 -49 c8 -3 -1 -17 -27 -40 l-40 -35 -6
47 c-4 25 -12 58 -18 73 l-10 27 44 -33 c24 -19 50 -36 57 -39z m-1215 -107
c22 0 24 -3 18 -22 -4 -13 -9 -55 -12 -95 -7 -96 14 -157 78 -227 l48 -53 -26
-24 c-14 -13 -34 -37 -43 -53 l-18 -28 -20 44 c-25 57 -74 112 -127 143 l-42
25 28 55 c35 70 44 144 26 211 l-14 52 40 -14 c22 -8 51 -14 64 -14z m721
-242 c102 -45 220 -30 310 41 l49 39 6 -48 c10 -87 75 -183 148 -220 l38 -20
-35 -51 c-19 -28 -34 -55 -34 -60 0 -5 -4 -9 -10 -9 -5 0 -10 13 -10 28 0 41
-55 146 -93 178 -83 71 -206 94 -310 58 -61 -21 -129 -82 -160 -145 l-25 -50
-31 44 c-16 24 -40 51 -53 59 l-23 16 31 34 c38 40 70 100 79 151 l7 37 36
-31 c20 -18 56 -41 80 -51z m-7399 -50 c-68 -198 71 -406 275 -410 43 0 46 -2
32 -17 -8 -9 -27 -43 -42 -75 l-27 -59 -19 36 c-46 91 -135 148 -244 155 -103
7 -163 -16 -235 -88 l-57 -56 -18 35 c-10 20 -20 39 -22 44 -2 4 12 7 32 7 97
0 208 76 256 175 31 63 34 177 8 243 -10 23 -18 44 -18 47 0 2 19 6 43 8 23 2
45 4 48 5 3 1 -2 -22 -12 -50z m8371 44 c0 -5 13 -28 28 -51 32 -48 110 -107
153 -116 16 -4 29 -8 29 -9 0 -1 -22 -25 -49 -53 -27 -28 -54 -67 -61 -88
l-13 -38 -23 50 c-27 55 -83 117 -129 140 -41 21 -41 20 -18 46 25 26 63 96
63 114 0 7 5 13 10 13 6 0 10 -4 10 -8z m-7746 -338 c14 -21 24 -39 23 -41 -2
-1 -19 2 -38 7 -18 6 -49 10 -66 10 -18 0 -33 2 -33 5 0 2 11 21 25 41 14 21
28 49 32 63 6 24 7 24 19 -11 7 -21 24 -54 38 -74z m-293 -551 c37 -38 40 -44
19 -37 -14 5 -57 9 -96 9 l-71 0 23 37 c13 21 24 40 24 42 0 3 5 17 11 33 l11
28 17 -34 c10 -18 37 -53 62 -78z m-653 42 c18 -47 87 -116 147 -145 39 -19
66 -25 122 -25 68 0 86 -6 64 -19 -18 -12 -51 -98 -57 -152 l-7 -56 -13 37
c-40 118 -194 210 -317 190 -59 -10 -131 -42 -158 -71 l-23 -25 -12 53 c-7 29
-15 63 -19 76 -7 20 -4 22 28 22 53 0 155 57 192 107 16 23 32 42 35 42 4 1
12 -15 18 -34z m-837 -168 l-17 -57 -25 26 c-13 15 -42 40 -64 56 l-40 30 45
-6 c25 -3 61 -2 80 2 19 5 36 8 37 7 1 0 -6 -27 -16 -58z m76 -356 c-54 -36
-125 -119 -140 -166 -41 -120 -10 -249 83 -336 l48 -45 -42 -13 c-69 -20 -136
-78 -173 -150 -29 -55 -33 -72 -33 -139 0 -87 24 -152 80 -215 20 -24 27 -37
18 -37 -8 0 -35 -10 -59 -22 l-44 -23 0 80 c0 122 -42 201 -143 265 l-42 28
37 7 c54 10 123 48 165 92 127 131 109 353 -37 455 l-45 32 62 21 c106 34 179
108 208 210 l13 45 33 -37 33 -38 -22 -14z m1097 -33 c10 -16 37 -42 60 -59
40 -31 41 -31 11 -26 -37 7 -130 -10 -168 -29 -88 -46 -156 -147 -164 -245
l-6 -58 -31 31 c-38 38 -115 74 -178 83 -46 7 -148 -15 -175 -36 -8 -8 -10 10
-6 69 7 102 -12 163 -74 232 -25 27 -40 50 -35 50 6 0 31 15 55 34 l45 34 6
-41 c16 -101 90 -198 185 -240 58 -26 168 -27 225 -2 97 42 158 117 184 225
l16 70 16 -32 c9 -18 24 -45 34 -60z m-798 -530 c-3 -13 -6 -43 -6 -67 l0 -44
-49 44 c-27 24 -49 46 -50 49 -1 4 80 35 103 39 4 0 6 -9 2 -21z m9454 -676
c0 -3 -16 -23 -36 -45 -45 -49 -73 -111 -81 -176 l-6 -50 -31 25 -31 25 41 44
c46 47 84 135 84 191 l0 35 30 -23 c17 -12 30 -24 30 -26z m-10023 -402 c18
-16 38 -30 44 -30 16 0 8 -12 -42 -68 l-46 -51 9 44 c6 29 6 61 0 90 -5 25 -7
45 -5 45 3 0 21 -13 40 -30z m10509 -138 c36 -42 123 -92 160 -92 13 0 26 -4
29 -10 3 -5 0 -10 -8 -10 -27 0 -107 -62 -134 -105 -31 -50 -43 -56 -43 -22
-1 64 -82 173 -159 211 l-45 23 39 21 c22 11 53 34 69 51 l30 31 14 -29 c7
-16 29 -47 48 -69z m-433 9 l39 -19 -35 -17 c-70 -33 -144 -129 -161 -211 l-7
-31 -37 36 -37 36 37 38 c50 50 86 123 94 190 l6 54 32 -29 c17 -15 48 -37 69
-47z m-9521 -502 c108 -105 272 -116 391 -25 l44 34 0 -52 c0 -146 110 -278
251 -301 l43 -7 -43 -30 c-24 -17 -57 -48 -73 -70 l-30 -40 -6 64 c-7 83 -39
147 -100 202 -112 100 -282 103 -392 6 l-44 -39 -6 44 c-14 95 -80 183 -172
227 -33 15 -67 28 -75 28 -8 0 8 13 35 29 28 16 59 38 69 50 l20 22 24 -52
c14 -29 42 -69 64 -90z m9948 44 c0 -10 3 -27 6 -38 4 -18 0 -21 -31 -23 -20
-2 -35 1 -33 5 13 28 44 73 51 73 4 0 7 -8 7 -17z m-420 -124 c29 -15 71 -25
118 -28 l73 -6 -25 -35 c-14 -19 -33 -65 -42 -101 l-17 -65 -51 27 c-95 51
-208 47 -298 -10 l-45 -29 -18 36 c-16 35 -16 37 0 47 108 63 168 135 182 218
l6 38 36 -34 c20 -19 56 -45 81 -58z m258 -503 c-1 -1 -11 -8 -20 -15 -16 -12
-18 -11 -18 13 0 24 2 26 21 16 11 -7 19 -13 17 -14z m-599 -130 c76 -136 250
-188 390 -118 l59 29 4 -66 c6 -76 33 -138 85 -193 l35 -36 -29 -15 c-16 -9
-43 -29 -61 -45 l-31 -29 -21 61 c-29 77 -104 155 -174 179 -81 28 -165 22
-260 -18 -16 -7 -17 -5 -11 23 9 43 -19 148 -54 198 l-29 42 27 20 c14 12 29
21 33 21 3 1 20 -23 37 -53z m-8367 -224 l59 -5 -39 -41 c-67 -69 -87 -118
-87 -216 0 -68 5 -94 23 -129 12 -25 22 -46 22 -47 0 -1 -21 3 -47 7 -96 18
-206 -21 -273 -98 -52 -59 -74 -117 -74 -201 l-1 -73 -29 5 c-16 3 -50 6 -77
6 l-49 0 34 44 c54 71 69 123 64 213 -3 43 -9 86 -13 97 -7 16 -5 17 16 10 13
-5 60 -9 104 -9 70 0 87 4 134 30 59 33 100 77 133 145 31 64 31 187 0 249
-12 25 -22 46 -22 48 0 2 14 -4 32 -13 17 -9 58 -19 90 -22z m9308 -212 l0
-50 -29 32 -30 33 22 17 c33 26 37 23 37 -32z m-1094 -83 c2 -85 30 -153 88
-212 118 -121 300 -125 419 -10 l36 35 12 -42 c6 -24 19 -56 29 -73 l18 -30
-71 0 c-106 -1 -193 -48 -248 -135 l-16 -25 -22 42 c-30 59 -85 111 -148 140
-45 21 -65 24 -128 21 -64 -2 -74 -1 -69 12 31 75 29 167 -4 244 -19 42 -19
46 -4 46 9 0 35 9 57 19 22 11 42 20 45 20 3 1 6 -23 6 -52z m-7952 -314 c-74
-97 -84 -233 -26 -336 l31 -54 -67 -5 c-159 -12 -273 -120 -289 -273 l-6 -53
-39 20 c-21 11 -59 23 -84 26 -24 2 -44 7 -44 10 0 3 10 26 22 51 18 36 23 64
23 123 l0 77 25 -7 c14 -4 53 -7 87 -6 111 2 217 74 266 183 29 65 30 179 1
242 l-21 46 76 -1 77 -1 -32 -42z m314 -540 c-48 -98 -41 -214 19 -303 l23
-35 -27 -8 c-113 -32 -165 -64 -208 -129 -16 -24 -36 -69 -45 -101 l-16 -59
-30 25 c-60 50 -94 61 -187 62 -68 0 -86 3 -82 13 3 8 8 38 11 67 l7 53 51
-24 c143 -67 324 4 393 154 42 91 30 221 -27 303 l-21 29 63 1 c35 0 72 4 83
8 11 5 21 8 22 7 1 -1 -12 -29 -29 -63z m7004 -100 c22 6 23 10 -8 -57 -87
-191 40 -411 250 -433 l56 -6 -31 -31 c-18 -17 -43 -56 -57 -86 l-26 -55 -7
45 c-20 136 -126 240 -262 256 l-54 6 31 60 c43 84 48 171 14 255 l-24 60 49
-9 c28 -5 58 -7 69 -5z m-8096 -157 c1 -1 -8 -20 -20 -43 l-21 -41 -28 49 -27
49 48 -7 c26 -3 48 -6 48 -7z m1536 -144 c-58 -81 -67 -216 -21 -309 l24 -50
-45 -10 c-25 -6 -53 -13 -62 -18 -17 -7 -17 -5 -2 30 19 46 21 149 4 201 -7
22 -23 55 -36 76 l-23 36 47 12 c26 6 65 21 87 34 22 13 41 25 43 25 2 1 -6
-11 -16 -27z m7215 -139 c56 -51 122 -75 203 -75 l58 0 -29 -46 c-58 -93 -61
-205 -11 -306 l28 -54 -39 14 c-22 8 -56 14 -77 14 l-37 0 18 53 c66 189 -61
389 -256 405 l-63 5 34 35 c18 19 42 52 51 72 l18 38 27 -57 c16 -33 47 -74
75 -98z m-1047 -23 c46 0 47 -3 20 -37 -46 -59 -63 -184 -35 -262 l14 -41 -30
16 c-17 8 -52 18 -78 21 l-49 6 26 55 c31 68 35 174 8 236 -9 21 -16 40 -16
41 0 2 23 -5 50 -16 28 -10 68 -19 90 -19z m-7381 -202 c-5 -18 -9 -51 -9 -73
l-1 -40 -18 37 c-10 20 -29 50 -41 65 l-22 28 34 6 c67 13 68 12 57 -23z
m7978 -188 c23 -66 115 -154 184 -174 29 -9 68 -16 86 -16 18 0 33 -2 33 -4 0
-2 -7 -23 -15 -46 -17 -48 -20 -156 -5 -194 l10 -26 -78 0 -77 0 0 83 c-1 69
-5 90 -27 133 -48 92 -155 164 -242 164 l-30 0 43 43 c44 43 80 102 82 134 1
10 5 2 11 -17 5 -19 17 -55 25 -80z m-7339 60 c20 -16 57 -36 81 -45 55 -19
161 -19 206 -1 19 8 35 14 35 12 0 -2 -7 -23 -15 -46 -8 -23 -15 -61 -15 -84
l0 -41 -29 36 c-16 19 -53 48 -82 64 -50 28 -62 30 -152 30 -82 0 -96 2 -91
15 3 8 8 32 11 53 3 20 8 37 10 37 2 0 21 -13 41 -30z m6203 -61 c22 -11 59
-22 84 -26 37 -5 45 -9 39 -22 -32 -73 -46 -131 -42 -179 l5 -54 -36 7 c-20 4
-59 7 -87 6 l-52 0 20 52 c26 69 22 183 -8 244 l-21 42 30 -25 c16 -14 47 -34
68 -45z m-6764 -106 c21 -21 59 -49 83 -61 l45 -23 -40 8 c-63 13 -139 7 -188
-15 l-44 -20 29 57 c17 33 31 80 35 114 l6 58 18 -40 c9 -21 35 -57 56 -78z
m7542 -13 l35 0 -43 -42 c-64 -64 -84 -109 -89 -204 -4 -73 -1 -88 23 -143 30
-66 79 -117 147 -153 34 -17 60 -22 126 -22 64 -1 81 -4 77 -14 -3 -8 -5 -40
-5 -73 l0 -59 -26 10 c-37 15 -150 12 -188 -4 l-33 -14 -7 59 c-6 67 -33 128
-76 181 -35 42 -139 98 -183 98 l-30 0 39 29 c129 94 172 233 118 374 -5 15
-1 15 37 -3 24 -11 60 -20 78 -20z m-7235 -112 c-8 -29 -14 -68 -14 -86 l0
-34 -32 48 c-18 27 -54 63 -81 81 l-47 32 52 -6 c29 -3 69 -1 88 5 19 6 38 11
41 11 3 1 0 -22 -7 -51z m742 -167 c31 -12 79 -21 110 -21 47 0 55 -3 50 -16
-3 -9 -6 -26 -6 -39 0 -23 0 -23 -51 10 -66 45 -118 58 -202 52 -55 -3 -67 -2
-63 9 3 8 8 36 12 62 l6 49 44 -43 c26 -25 67 -51 100 -63z m-668 -122 c24
-26 61 -56 82 -66 l39 -18 -72 -1 c-52 0 -84 -6 -114 -21 -24 -12 -43 -20 -43
-18 0 1 9 23 21 49 11 26 21 71 22 102 2 43 4 51 12 38 6 -10 29 -39 53 -65z
m6700 8 l44 -13 -41 -27 c-36 -24 -41 -25 -41 -10 0 10 -3 28 -6 41 -4 12 -5
22 -3 22 2 0 24 -6 47 -13z m-1340 -150 c49 -21 144 -28 193 -15 l26 8 -10
-49 -9 -48 -55 33 c-31 18 -76 36 -100 40 -60 9 -143 -1 -181 -20 l-31 -16 14
41 c8 23 15 62 15 87 l0 45 46 -43 c25 -23 67 -51 92 -63z m-3381 48 c1 0 -7
-21 -19 -45 -12 -24 -24 -70 -26 -102 -4 -57 -5 -58 -34 -58 -27 0 -30 3 -24
23 12 40 25 128 21 140 -2 7 -6 26 -9 43 l-5 31 47 -15 c26 -8 48 -16 49 -17z
m-1671 -17 c-3 -13 -6 -38 -6 -57 l0 -33 -41 36 c-22 20 -52 42 -67 49 -25 11
-24 12 28 18 98 10 93 11 86 -13z m652 -105 c2 -1 -10 -9 -27 -18 l-31 -16 0
42 0 42 28 -24 c15 -13 29 -25 30 -26z m1984 -100 c15 -19 4 -27 -20 -14 -11
6 -45 13 -75 17 l-55 7 56 52 57 53 13 -51 c7 -28 18 -57 24 -64z m-1642 82
c0 -31 49 -112 90 -149 48 -43 112 -75 151 -76 36 0 38 -5 24 -53 -11 -39 -14
-42 -41 -37 -16 3 -60 4 -99 4 l-70 -2 -2 54 c-2 69 -39 150 -92 201 l-40 40
32 16 c41 20 47 20 47 2z m3454 -86 c20 -12 25 -20 15 -22 -111 -34 -179 -84
-218 -162 l-23 -47 -34 33 -33 32 60 38 c66 43 113 107 131 177 l11 43 30 -37
c17 -20 44 -45 61 -55z m1855 -106 c63 -124 229 -193 356 -148 21 8 40 13 41
12 1 -1 4 -25 7 -54 l6 -51 -42 18 c-94 42 -206 33 -289 -23 l-35 -24 0 67 c0
112 -64 219 -160 269 l-37 19 40 20 c22 11 47 28 54 37 12 15 15 10 26 -43 7
-32 21 -77 33 -99z m-398 106 l41 -20 -41 -21 c-85 -42 -161 -165 -161 -260
l0 -40 -40 36 c-22 19 -57 43 -77 52 l-38 16 48 13 c93 24 186 113 209 201 7
24 14 44 15 44 2 0 22 -9 44 -21z m-2688 -94 c33 -61 98 -116 162 -138 l38
-13 -52 -26 -51 -25 -17 36 c-31 64 -100 123 -177 151 l-29 11 25 27 c14 15
34 40 44 56 l18 28 11 -38 c6 -22 19 -52 28 -69z m-901 78 l57 -6 -40 -29
c-35 -25 -56 -53 -104 -133 -10 -16 -12 -16 -47 1 l-37 17 25 36 c13 19 31 57
40 84 13 38 20 47 33 42 9 -4 42 -9 73 -12z m1530 -75 l37 -37 -54 -30 c-53
-30 -88 -68 -119 -128 l-16 -32 -36 24 c-19 13 -51 29 -70 35 l-34 12 60 29
c70 36 124 94 148 162 17 48 17 48 32 25 8 -13 31 -40 52 -60z m913 55 c-3
-10 -9 -30 -12 -45 -3 -16 -7 -28 -9 -28 -3 0 -23 12 -45 27 l-41 27 48 17
c63 22 67 22 59 2z m-4679 -54 c10 -12 32 -30 48 -40 l29 -18 -29 -7 c-16 -4
-47 -16 -68 -26 -37 -19 -39 -19 -32 -1 4 10 10 39 13 66 6 53 12 56 39 26z
m2753 -66 c5 -4 -20 -33 -29 -33 -6 0 -30 44 -30 55 0 4 47 -14 59 -22z
m-2386 -58 l5 -70 -20 28 c-11 15 -36 39 -56 52 l-35 24 29 11 c16 6 38 14 49
19 11 5 21 8 21 7 1 0 4 -32 7 -71z m5014 -5 c8 0 11 -4 8 -10 -3 -5 -15 -10
-26 -10 -22 0 -95 -35 -121 -58 -22 -18 -23 -10 -4 26 8 15 17 48 21 73 l7 46
50 -33 c27 -19 57 -34 65 -34z m-4864 -238 l47 -30 -37 -7 c-21 -3 -56 -17
-79 -30 l-41 -24 10 50 c7 35 7 66 -1 97 l-10 47 31 -37 c18 -20 53 -50 80
-66z m4320 23 l30 -12 -39 -7 c-53 -11 -123 -48 -161 -88 -40 -42 -83 -133
-83 -178 l0 -35 -36 43 c-20 23 -50 50 -68 59 l-31 16 50 12 c62 14 86 27 137
73 42 38 81 105 93 160 l7 33 36 -32 c19 -17 49 -37 65 -44z m313 13 c-8 -19
-18 -58 -22 -87 l-7 -52 -26 25 c-14 13 -45 35 -68 48 l-43 24 50 13 c27 7 66
25 87 40 21 16 39 27 41 26 1 -1 -4 -18 -12 -37z m-4386 -84 c0 -12 -6 -15
-22 -10 -13 3 -27 6 -33 6 -5 0 -3 5 5 10 23 15 50 12 50 -6z m1892 -96 c-76
-11 -135 -40 -187 -94 -46 -46 -46 -47 -61 -26 -19 27 -87 74 -134 92 -19 7
-36 14 -38 15 -5 4 21 55 29 55 4 0 26 -9 50 -20 66 -29 175 -27 243 5 29 13
63 36 76 50 l24 25 25 -47 26 -48 -53 -7z m3180 13 l37 -18 -40 -18 c-86 -39
-155 -133 -166 -226 -3 -27 -8 -49 -10 -49 -2 0 -19 11 -36 24 -18 14 -45 30
-62 36 l-29 11 51 29 c87 50 137 127 149 232 l6 55 32 -29 c17 -15 48 -37 68
-47z m-1621 51 c8 -9 30 -29 48 -43 l33 -26 -43 -7 c-90 -14 -182 -94 -217
-188 l-18 -48 -23 30 c-12 17 -40 44 -61 59 l-40 29 47 7 c26 4 66 16 89 27
50 23 131 106 146 148 12 35 18 37 39 12z m1952 -131 c-2 -2 -11 3 -20 11 -10
9 -33 23 -52 33 l-34 17 49 28 49 28 5 -57 c3 -31 4 -58 3 -60z m-4791 69
c-19 -23 -26 -19 -17 9 3 12 12 18 20 15 11 -5 11 -9 -3 -24z m1772 -96 c14
-26 26 -48 26 -49 0 -1 -18 -5 -41 -9 -46 -7 -109 -37 -128 -60 -17 -21 -31
-20 -31 1 0 9 -11 35 -25 58 l-24 42 51 6 c39 5 123 37 145 56 1 0 13 -20 27
-45z m575 -7 c-49 -10 -53 -7 -38 26 l12 26 33 -22 33 -22 -40 -8z m-2436 -74
c-5 -40 -6 -41 -32 -30 -14 6 -28 12 -29 13 -2 2 11 16 30 32 18 17 34 30 35
28 1 -1 -1 -20 -4 -43z m4006 -32 l54 -29 -40 -20 c-68 -35 -153 -150 -153
-208 0 -16 -16 -19 -25 -4 -4 6 -24 19 -46 30 l-39 20 38 35 c55 49 93 124 99
196 l6 60 26 -25 c14 -14 50 -38 80 -55z m-3379 45 c0 -2 -3 -11 -6 -20 -9
-23 -24 -20 -24 4 0 11 7 20 15 20 8 0 15 -2 15 -4z m1570 -117 l-14 -32 -18
23 c-24 30 -23 38 10 42 36 5 37 4 22 -33z m1257 -145 c21 -10 40 -20 42 -21
2 -2 -16 -23 -40 -47 -25 -24 -53 -62 -63 -84 l-18 -40 -45 28 c-25 16 -58 32
-74 35 l-30 7 31 34 c39 45 58 82 71 143 l10 49 39 -42 c22 -23 56 -51 77 -62z
m-2843 -13 c4 -6 5 -11 3 -11 -9 0 -77 30 -77 35 0 2 10 21 22 41 l22 38 12
-46 c6 -25 14 -51 18 -57z m2313 -157 l52 -18 -33 -37 c-19 -20 -35 -42 -38
-50 -3 -10 -17 -4 -48 21 -24 19 -66 42 -94 51 -28 10 -51 21 -50 26 0 4 13
35 28 68 l28 60 52 -51 c34 -34 68 -58 103 -70z m-1651 15 c59 -29 70 -31 141
-27 80 5 128 22 170 61 13 11 24 19 26 16 4 -5 37 -79 37 -82 0 -1 -35 -2 -77
-2 -65 0 -87 -5 -135 -28 -31 -15 -70 -43 -87 -62 l-30 -35 -18 38 c-24 51
-89 113 -143 136 -25 11 -47 21 -49 22 -2 2 7 17 18 33 l22 31 30 -35 c17 -19
60 -49 95 -66z m945 5 c24 -46 99 -103 159 -122 l57 -17 -24 -38 -24 -38 -40
41 c-46 48 -129 90 -176 90 l-32 0 27 54 c15 30 30 55 33 55 3 1 12 -11 20
-25z m-1413 -47 c1 -4 -9 -24 -22 -44 l-25 -36 -6 29 c-4 16 -11 42 -16 58 -5
16 -9 30 -9 32 0 6 76 -31 78 -39z m1069 -135 c23 -7 23 -7 4 -36 l-19 -29
-16 31 c-23 45 -21 49 31 34z"/>
<path d="M9152 11126 c-219 -72 -282 -347 -118 -511 115 -116 305 -115 421 0
144 145 105 399 -77 491 -62 31 -164 40 -226 20z"/>
<path d="M11665 5597 c-94 -31 -158 -88 -197 -172 -35 -76 -32 -182 7 -259 76
-151 253 -210 403 -135 109 54 166 147 166 269 1 92 -26 158 -87 218 -76 75
-202 109 -292 79z"/>
<path d="M395 5351 c-88 -24 -161 -84 -203 -166 -21 -41 -26 -64 -26 -130 -1
-68 3 -89 27 -137 34 -69 101 -131 164 -152 26 -9 77 -16 114 -16 56 0 77 5
130 33 39 20 75 48 95 74 l31 41 6 -60 c3 -33 16 -81 30 -109 13 -27 23 -49
22 -49 -2 0 -20 7 -41 16 -22 9 -67 16 -106 16 -117 1 -214 -60 -274 -172 -15
-27 -19 -56 -19 -130 0 -87 3 -100 30 -149 56 -101 148 -155 265 -155 87 0
154 28 214 90 61 62 81 117 81 214 -1 80 -6 101 -43 172 -2 4 14 0 35 -9 23
-10 65 -17 108 -17 83 0 141 23 203 79 130 117 130 333 0 450 -60 55 -120 78
-203 79 -90 1 -166 -34 -227 -104 l-43 -49 -1 58 c-4 149 -129 277 -281 286
-32 2 -71 0 -88 -4z"/>
</g>
</svg>
