<?xml version="1.0" standalone="no"?>
<!DOCTYPE svg PUBLIC "-//W3C//DTD SVG 20010904//EN"
 "http://www.w3.org/TR/2001/REC-SVG-20010904/DTD/svg10.dtd">
<svg version="1.0" xmlns="http://www.w3.org/2000/svg"
 width="1280.000000pt" height="752.000000pt" viewBox="0 0 1280.000000 752.000000"
 preserveAspectRatio="xMidYMid meet">
<metadata>
Created by potrace 1.15, written by Peter Selinger 2001-2017
</metadata>
<g transform="translate(0.000000,752.000000) scale(0.100000,-0.100000)"
fill="#000000" stroke="none">
<path d="M6380 7505 c0 -12 46 -94 99 -180 54 -85 75 -125 67 -125 -2 0 -25
34 -51 75 -25 41 -51 77 -57 81 -12 7 6 -28 35 -69 10 -16 17 -30 15 -33 -3
-2 -35 41 -72 97 -37 55 -70 99 -73 96 -8 -8 12 -41 149 -240 71 -103 128
-193 126 -199 -3 -7 -19 9 -37 35 -18 26 -41 55 -52 65 -10 10 -35 41 -54 68
-19 27 -35 42 -35 33 0 -10 25 -50 56 -90 75 -99 84 -112 41 -64 -20 22 -36
36 -37 32 0 -5 -21 17 -46 48 -25 31 -48 54 -51 51 -3 -3 21 -38 54 -78 99
-123 126 -159 121 -164 -3 -2 -26 23 -53 56 -27 33 -50 59 -52 57 -7 -7 23
-54 66 -105 53 -64 46 -68 -10 -7 -23 25 -43 44 -45 42 -6 -5 34 -85 46 -92 5
-3 10 -11 10 -18 0 -6 -22 11 -50 38 -30 29 -50 43 -50 34 0 -8 16 -30 35 -49
19 -19 35 -39 35 -46 0 -6 18 -28 40 -48 52 -47 51 -63 -1 -30 -54 34 -62 23
-13 -21 41 -36 34 -49 -9 -15 -14 11 -29 20 -34 20 -5 0 -27 13 -49 30 -41 31
-54 36 -54 20 0 -5 52 -46 115 -90 63 -45 115 -86 115 -91 0 -6 -15 1 -32 14
-54 40 -168 99 -168 87 0 -6 29 -29 65 -51 36 -23 65 -43 65 -45 0 -1 -16 4
-35 12 -19 8 -35 10 -35 6 0 -14 32 -38 88 -66 28 -14 52 -31 52 -36 0 -6 -31
6 -70 25 -96 48 -158 46 -95 -3 14 -11 25 -24 25 -30 0 -11 72 -47 114 -58 14
-3 26 -12 26 -19 0 -9 -16 -7 -57 8 -32 11 -76 19 -98 19 -32 0 -231 54 -400
109 -28 9 -27 6 20 -40 l50 -49 175 -41 c264 -63 315 -77 304 -84 -15 -9 -51
-9 -176 -1 -135 9 -164 0 -88 -26 30 -11 76 -19 101 -20 48 0 149 -26 149 -38
0 -4 -30 -5 -66 -4 -36 2 -76 1 -90 -2 -44 -12 -25 -26 35 -26 33 0 63 -4 66
-10 4 -6 -5 -10 -20 -10 -15 0 -24 -4 -20 -10 3 -5 15 -10 26 -10 10 0 19 -4
19 -9 0 -10 -14 -15 -70 -26 -19 -4 -43 -12 -54 -17 -27 -15 -2 -28 54 -28 25
-1 63 -5 85 -9 33 -7 23 -9 -53 -10 -97 -1 -131 -14 -118 -46 4 -12 24 -15 84
-15 59 0 83 -4 92 -15 7 -8 21 -15 31 -15 11 0 19 -4 19 -10 0 -5 -18 -10 -39
-10 -22 0 -43 -4 -46 -10 -4 -6 -62 -10 -142 -10 -123 0 -134 -1 -122 -16 12
-15 6 -16 -66 -10 -128 10 -57 -9 130 -34 94 -13 177 -27 185 -32 10 -6 2 -7
-25 -4 -22 3 -67 8 -100 11 -53 6 -58 5 -42 -8 9 -8 44 -20 77 -27 33 -7 65
-19 71 -26 6 -7 24 -16 40 -19 16 -4 29 -11 29 -16 0 -14 -6 -12 -150 36 -208
70 -201 53 15 -34 134 -55 185 -80 185 -92 0 -4 -39 6 -86 22 -47 16 -88 29
-91 29 -14 0 31 -39 58 -50 16 -7 29 -17 29 -22 0 -5 -15 0 -34 11 -42 26 -49
26 -34 0 7 -11 38 -35 69 -54 61 -38 93 -68 87 -85 -2 -6 -32 10 -68 35 -36
26 -74 51 -85 57 l-20 11 20 -23 c15 -17 105 -91 154 -127 2 -2 1 -6 -2 -10
-4 -3 -15 2 -26 11 -10 9 -21 13 -22 7 -2 -5 -48 28 -102 75 -54 46 -102 84
-105 84 -4 -1 22 -29 58 -63 36 -35 96 -96 135 -137 l69 -75 -77 75 c-42 41
-77 70 -77 63 0 -6 7 -17 17 -24 15 -13 13 -14 -12 -19 l-28 -5 47 -51 c25
-29 46 -55 46 -58 0 -3 -16 -6 -35 -6 -33 0 -40 6 -123 119 -51 71 -94 120
-104 120 -28 1 -22 -32 16 -95 31 -52 33 -59 19 -69 -10 -7 -14 -19 -10 -29 4
-9 2 -16 -4 -16 -5 0 -26 35 -47 78 -38 80 -67 101 -67 50 1 -22 -4 -28 -21
-28 -18 0 -24 10 -38 67 -21 83 -32 98 -53 77 -15 -15 -15 -33 3 -216 l6 -58
-61 0 -61 0 0 45 c0 38 -3 45 -20 45 -17 0 -20 7 -20 45 l0 45 -40 0 -40 0 0
-80 c0 -73 -2 -80 -20 -80 -17 0 -20 7 -20 44 0 45 -10 56 -50 56 -15 0 -19 9
-22 48 -3 45 -4 47 -33 47 -23 0 -30 -5 -32 -20 -1 -11 -5 -50 -8 -87 -6 -67
-7 -68 -36 -68 -29 0 -29 1 -29 55 0 54 0 55 -30 55 -16 0 -30 -4 -30 -10 0
-5 -9 -10 -20 -10 -17 0 -20 -7 -20 -46 0 -44 -1 -45 -27 -42 -26 3 -28 7 -31
52 l-3 48 -32 -6 c-18 -4 -47 -10 -66 -13 -21 -3 -35 -12 -38 -24 -4 -13 -14
-19 -34 -19 -28 0 -29 2 -29 50 l0 50 -45 0 c-43 0 -45 -1 -45 -29 0 -26 -4
-30 -32 -33 -31 -3 -33 -6 -36 -45 -3 -41 -4 -43 -37 -43 -24 0 -42 9 -64 31
-17 17 -31 37 -31 45 0 9 -11 14 -30 14 -25 0 -30 -4 -30 -24 0 -13 -7 -29
-15 -36 -25 -21 -65 6 -65 42 0 21 -5 28 -20 28 -17 0 -20 7 -20 50 l0 50 -35
0 -35 0 0 -115 0 -115 -30 0 c-29 0 -30 1 -30 49 0 30 -5 53 -14 61 -8 6 -16
28 -18 48 -3 34 -6 37 -35 40 l-32 3 -3 -67 c-2 -43 -8 -69 -15 -72 -9 -2 -13
7 -13 25 0 41 -39 62 -75 43 -22 -12 -25 -20 -25 -72 l0 -58 -36 0 -35 0 2 70
2 70 -37 25 c-37 25 -86 34 -86 15 0 -5 -7 -10 -15 -10 -9 0 -18 -7 -21 -15
-4 -8 -17 -15 -30 -15 -13 0 -24 -4 -24 -10 0 -5 -7 -10 -15 -10 -12 0 -15
-13 -15 -60 l0 -60 -35 0 c-33 0 -35 2 -35 34 0 18 -3 54 -6 79 -6 40 -10 46
-33 49 l-26 3 -3 208 c-1 114 -5 207 -8 207 -3 0 -29 -19 -59 -41 l-55 -41 0
-184 c0 -111 -4 -185 -10 -189 -5 -3 -10 -33 -10 -66 0 -70 -12 -75 -71 -28
-37 29 -39 33 -39 90 0 56 -12 95 -35 111 -5 4 -14 24 -20 45 -12 44 -48 55
-53 16 -2 -13 -8 -23 -14 -23 -5 0 -8 -7 -5 -15 4 -8 2 -17 -3 -20 -6 -4 -10
-40 -10 -81 0 -57 -4 -76 -15 -80 -8 -4 -15 -12 -15 -20 0 -8 -8 -14 -19 -14
-10 0 -24 -7 -31 -15 -24 -29 -30 -15 -30 66 0 86 -10 109 -50 109 -33 0 -49
-23 -52 -76 -3 -42 -6 -49 -25 -52 -19 -3 -23 1 -23 23 0 27 -31 48 -38 27 -2
-7 -10 -12 -18 -12 -8 0 -14 -9 -14 -20 0 -16 -7 -20 -34 -20 -33 0 -86 32
-86 51 0 17 -43 69 -57 69 -7 0 -13 5 -13 10 0 16 -38 12 -59 -6 -14 -13 -18
-25 -14 -55 4 -30 2 -40 -11 -45 -9 -3 -16 -16 -16 -29 0 -12 -8 -29 -18 -38
-36 -33 -42 -22 -42 83 l0 100 -30 0 c-16 0 -30 5 -30 10 0 6 -24 10 -53 10
-73 0 -87 -16 -87 -103 0 -48 -4 -67 -13 -67 -27 0 -67 -26 -67 -42 0 -14 -9
-18 -39 -18 -40 0 -40 0 -43 43 -3 38 -6 42 -30 45 l-28 3 0 135 0 134 -36 0
c-58 0 -74 -14 -74 -65 0 -38 -3 -45 -20 -45 -19 0 -20 7 -20 119 l0 120 -37
3 c-29 2 -38 8 -43 25 -5 21 -6 21 -52 -14 l-48 -35 0 -189 0 -189 -30 0 c-27
0 -30 3 -30 33 0 19 -3 37 -7 40 -3 4 -6 27 -6 52 1 37 -3 45 -18 45 -10 0
-21 5 -24 10 -7 11 -64 14 -89 4 -13 -5 -16 -22 -16 -80 l0 -74 -30 0 c-28 0
-30 -3 -30 -36 0 -35 -1 -35 -38 -32 l-37 3 -3 148 -3 147 -54 0 c-42 0 -55
-3 -55 -15 0 -8 -4 -15 -10 -15 -6 0 -10 -55 -10 -145 0 -122 -2 -145 -15
-145 -8 0 -15 -7 -15 -15 0 -9 -9 -15 -25 -15 -22 0 -30 9 -26 33 1 4 -6 10
-14 13 -9 4 -15 19 -15 40 0 19 -4 34 -10 34 -5 0 -10 7 -10 15 0 8 -7 15 -15
15 -8 0 -15 7 -15 15 0 10 -10 15 -30 15 -16 0 -30 -4 -30 -10 0 -5 -9 -10
-20 -10 -16 0 -20 -7 -20 -35 0 -28 -4 -35 -20 -35 -17 0 -20 7 -20 41 0 41 0
41 -32 35 -18 -3 -50 -8 -70 -12 l-38 -6 0 -60 c0 -74 -12 -88 -78 -88 l-49 0
-5 70 c-3 38 -11 77 -18 85 -14 17 -70 21 -70 5 0 -5 -7 -10 -16 -10 -14 0
-16 -8 -10 -47 3 -27 9 -60 12 -75 6 -26 4 -28 -24 -28 -23 0 -31 5 -36 24 -5
21 -13 25 -53 28 l-47 3 -50 96 c-51 97 -74 119 -124 119 -13 0 -30 -7 -39
-16 -14 -14 -12 -20 21 -68 20 -29 36 -56 36 -59 0 -4 -12 -7 -26 -7 l-26 0
39 -47 c52 -63 57 -73 40 -73 -9 0 -45 36 -83 80 -68 81 -84 91 -109 66 -11
-11 -3 -23 50 -76 36 -35 62 -66 59 -69 -2 -3 -34 24 -69 59 -50 50 -65 60
-65 44 0 -11 28 -47 65 -84 56 -56 79 -90 60 -90 -3 0 -58 45 -123 101 -64 55
-118 95 -120 89 -8 -24 32 -77 95 -124 36 -27 69 -60 74 -73 5 -13 16 -26 24
-29 8 -4 15 -10 15 -15 0 -5 -33 13 -72 41 -61 43 -74 49 -77 34 -2 -11 8 -27
24 -40 15 -12 25 -28 23 -37 -2 -13 -14 -9 -61 19 -81 48 -100 46 -75 -7 9
-19 46 -42 145 -89 125 -59 133 -65 133 -91 0 -34 4 -33 -51 -14 -29 11 -45
12 -49 5 -5 -8 -15 -8 -34 0 -43 16 -56 13 -56 -15 0 -26 -1 -25 122 -56 27
-6 48 -15 48 -20 0 -8 -22 -6 -72 8 -12 3 -21 -4 -27 -20 -9 -22 -13 -24 -55
-17 -44 6 -46 6 -46 -17 0 -19 5 -23 32 -23 52 0 138 -23 138 -37 0 -9 -17
-13 -55 -13 -58 0 -65 -8 -38 -40 12 -13 30 -20 55 -20 27 0 38 -4 38 -15 0
-11 -12 -15 -50 -15 -53 0 -55 -1 -41 -28 5 -9 12 -25 15 -34 3 -10 15 -18 27
-18 42 0 12 -25 -34 -28 -42 -3 -47 -6 -47 -28 0 -20 5 -24 30 -24 23 0 30 -4
30 -20 0 -17 7 -20 46 -20 41 0 45 -2 42 -22 -2 -17 -15 -26 -51 -38 -55 -18
-61 -43 -9 -48 52 -5 36 -42 -19 -42 -10 0 -19 -4 -19 -10 0 -5 -25 -10 -55
-10 -48 0 -55 -2 -55 -20 0 -19 7 -20 120 -20 100 0 120 -2 120 -15 0 -11 -13
-15 -53 -15 -29 0 -57 -4 -62 -9 -6 -5 -28 -11 -50 -13 -27 -2 -40 -8 -40 -18
0 -11 17 -16 70 -21 39 -3 58 -6 44 -7 -14 -1 -33 -10 -42 -20 -26 -28 -3 -42
70 -42 49 0 63 -3 63 -15 0 -12 -15 -15 -73 -15 -68 0 -75 -2 -101 -29 -26
-27 -27 -31 -13 -45 9 -9 20 -16 26 -16 6 0 11 -5 11 -11 0 -23 36 -38 93 -39
50 0 57 -2 57 -20 0 -17 -7 -20 -39 -20 -71 0 -131 -12 -131 -26 0 -11 -40
-14 -212 -14 l-212 0 50 -35 49 -35 242 0 c133 0 244 -4 247 -9 3 -5 -11 -20
-32 -35 -30 -20 -50 -26 -93 -26 -68 0 -189 -30 -189 -47 0 -8 13 -13 33 -13
18 0 37 -4 42 -9 6 -5 49 -11 96 -13 68 -2 91 -7 108 -22 12 -11 21 -23 21
-27 0 -4 -36 -7 -79 -7 -91 0 -123 -11 -102 -36 9 -11 30 -16 67 -16 41 0 54
-4 54 -15 0 -9 -10 -15 -26 -15 -31 0 -28 -23 4 -28 34 -5 30 -49 -5 -63 -73
-29 -98 -46 -98 -64 0 -17 8 -20 58 -23 31 -2 57 -7 57 -12 0 -5 14 -10 32
-12 17 -2 33 -9 36 -15 3 -10 -20 -13 -92 -13 -79 0 -96 -3 -96 -15 0 -8 -7
-15 -15 -15 -23 0 -20 -57 4 -70 11 -5 50 -10 88 -10 61 0 69 -2 78 -23 6 -12
20 -23 33 -25 14 -2 22 -10 22 -23 0 -16 -7 -19 -45 -19 -33 0 -45 -4 -45 -15
0 -13 -22 -15 -136 -15 l-135 0 3 -27 c3 -25 8 -28 51 -33 26 -3 49 -9 50 -15
1 -6 -45 -11 -121 -13 -112 -2 -122 -4 -122 -22 0 -12 -8 -20 -22 -22 -21 -3
-20 -5 13 -25 34 -22 47 -23 223 -23 172 0 186 -1 186 -18 0 -12 -8 -18 -22
-18 -137 -1 -145 -3 -158 -33 -6 -17 -9 -35 -5 -40 3 -6 39 -11 79 -11 65 0
74 -2 79 -20 4 -15 14 -20 36 -20 24 0 31 -4 31 -20 0 -18 -8 -20 -147 -22
l-148 -3 -3 -26 c-4 -35 12 -39 181 -39 84 0 137 -4 137 -10 0 -5 9 -10 20
-10 11 0 20 -6 20 -14 0 -10 -19 -16 -65 -21 -36 -4 -65 -11 -65 -16 0 -5 -5
-9 -11 -9 -6 0 -18 -7 -26 -16 -12 -12 -14 -22 -7 -42 8 -23 14 -27 43 -24 44
5 38 -20 -8 -29 -42 -9 -48 -16 -33 -39 7 -11 12 -27 12 -35 0 -19 5 -19 71 3
66 22 89 19 89 -13 0 -21 -12 -30 -75 -59 -79 -37 -105 -56 -105 -78 0 -25 42
-18 105 17 69 39 75 41 75 22 0 -7 -13 -21 -30 -30 -20 -12 -30 -26 -30 -42 0
-19 -18 -38 -77 -82 -109 -80 -133 -103 -133 -130 0 -34 18 -29 80 22 38 31
56 41 62 32 5 -8 20 0 50 29 24 22 52 46 63 53 11 7 -17 -23 -63 -67 -45 -45
-82 -86 -82 -91 0 -12 26 -15 32 -3 2 4 33 34 68 67 l65 60 -65 -68 -64 -67
39 1 c36 0 45 6 90 60 42 50 55 59 82 59 18 0 33 -1 33 -3 0 -2 -38 -54 -84
-117 l-84 -115 31 -3 c55 -6 100 23 136 89 23 42 42 63 64 73 18 7 38 20 46
29 30 37 28 13 -5 -59 -19 -42 -32 -79 -30 -82 3 -2 21 -1 41 2 25 5 39 14 45
32 7 18 17 24 41 24 35 0 34 11 13 -104 -7 -40 9 -50 71 -40 l42 6 7 60 c3 34
6 87 6 119 0 85 3 89 66 89 l54 0 0 -45 c0 -38 3 -45 20 -45 17 0 20 -7 20
-45 l0 -45 46 0 46 0 -4 80 c-3 71 -1 80 15 80 14 0 17 -9 17 -44 0 -46 9 -56
56 -56 22 0 24 -4 24 -50 0 -49 1 -50 30 -50 30 0 30 1 31 58 2 94 10 117 42
120 27 3 27 2 27 -52 0 -56 0 -56 30 -56 17 0 30 5 30 10 0 6 9 10 19 10 16 0
20 8 23 43 3 38 6 42 31 45 26 3 27 2 27 -47 0 -50 1 -51 29 -51 17 0 33 5 36
10 3 5 19 10 36 10 18 0 33 7 41 20 7 11 23 20 35 20 21 0 23 -5 23 -50 l0
-50 45 0 c43 0 45 1 45 29 0 26 4 30 33 33 30 3 32 6 35 46 l3 42 45 0 c32 0
44 -4 44 -15 0 -8 9 -20 20 -27 11 -7 20 -21 20 -30 0 -13 8 -18 30 -18 25 0
30 4 30 24 0 35 25 52 55 38 17 -8 25 -20 25 -38 0 -17 6 -28 20 -31 17 -4 20
-14 20 -54 l0 -49 35 0 35 0 0 115 0 115 30 0 c29 0 30 -1 30 -49 0 -30 5 -53
14 -61 8 -6 16 -28 18 -48 3 -34 6 -37 35 -40 l32 -3 3 67 c2 43 8 69 16 72 8
2 12 -7 12 -25 0 -41 39 -62 75 -43 22 12 25 20 25 72 l0 58 35 0 35 0 0 -72
c1 -72 1 -73 36 -95 36 -24 84 -31 84 -13 0 6 9 10 20 10 11 0 20 7 20 15 0 9
9 15 25 15 14 0 25 5 25 10 0 6 7 10 15 10 12 0 15 13 15 60 l0 60 35 0 35 0
0 -49 c0 -28 4 -53 10 -56 6 -3 10 -19 10 -34 0 -25 3 -28 25 -23 l25 4 0
-211 c0 -116 3 -211 8 -211 4 0 33 21 65 46 l58 46 -1 180 c-1 99 1 182 4 185
3 4 6 33 6 65 0 69 12 74 71 27 38 -30 39 -33 39 -91 0 -47 5 -66 23 -91 13
-18 28 -48 33 -67 7 -25 16 -36 32 -38 14 -2 22 2 22 11 0 8 7 29 17 47 11 23
15 54 14 102 -2 60 1 72 21 93 13 14 28 25 34 25 6 0 17 7 24 15 24 29 30 15
30 -66 0 -86 10 -109 50 -109 33 0 49 23 52 76 3 42 6 49 26 52 18 3 22 -1 22
-23 0 -27 31 -48 38 -27 2 7 10 12 18 12 8 0 14 9 14 20 0 42 119 9 120 -33 1
-16 46 -67 60 -67 5 0 10 -4 10 -10 0 -5 11 -10 25 -10 14 0 25 5 25 10 0 6 7
10 15 10 11 0 15 12 15 50 0 28 5 50 10 50 6 0 10 11 10 24 0 22 32 56 52 56
5 0 8 -45 8 -100 l0 -100 30 0 c17 0 30 -4 30 -10 0 -5 24 -10 53 -10 73 0 87
16 87 103 0 60 2 67 19 67 11 0 23 5 26 10 3 6 15 10 26 10 12 0 19 7 19 20 0
16 7 20 34 20 34 0 35 -1 38 -42 3 -39 6 -43 31 -46 l27 -3 0 -135 0 -134 43
0 c54 0 67 13 67 68 0 39 2 43 23 40 21 -3 22 -6 22 -118 l0 -115 35 -5 c25
-4 36 -11 40 -28 5 -24 5 -24 50 12 l45 35 5 188 5 188 28 3 c25 3 27 1 27
-32 0 -20 5 -36 10 -36 6 0 10 -21 10 -47 0 -42 3 -50 27 -60 29 -14 72 -17
97 -7 13 5 16 22 16 80 l0 74 30 0 c28 0 30 3 30 35 0 34 1 35 40 35 l40 0 0
-150 0 -150 55 0 c42 0 55 3 55 15 0 8 5 15 10 15 6 0 10 55 10 145 0 122 2
145 15 145 8 0 15 7 15 15 0 10 10 15 30 15 25 0 30 -4 30 -25 0 -14 5 -25 10
-25 6 0 10 -13 10 -29 0 -36 57 -101 89 -101 11 0 21 5 21 10 0 6 9 10 20 10
16 0 20 7 20 35 0 28 4 35 19 35 16 0 20 -8 23 -37 3 -33 6 -38 32 -41 16 -2
33 1 39 7 6 6 24 11 39 11 28 0 28 1 28 61 0 74 13 88 83 89 l47 0 0 -69 c0
-82 6 -101 30 -101 28 0 56 43 70 109 13 60 13 61 47 61 31 0 33 -2 27 -25 -6
-23 -4 -25 30 -25 20 0 36 -5 36 -11 0 -6 -20 -50 -45 -98 -48 -93 -53 -111
-31 -111 19 0 56 37 96 97 24 36 42 53 57 53 14 0 37 20 69 60 28 36 55 60 66
60 15 0 6 -16 -42 -72 -53 -63 -69 -88 -57 -88 21 0 77 43 123 96 31 35 64 64
72 64 10 0 -8 -26 -48 -67 -59 -61 -53 -58 33 16 15 14 27 20 27 15 0 -6 -54
-59 -119 -119 -120 -110 -160 -160 -55 -69 76 66 104 87 110 82 2 -3 -23 -26
-56 -53 -33 -27 -58 -50 -55 -53 2 -3 11 1 20 8 9 7 17 11 20 8 2 -2 -27 -28
-66 -57 -39 -29 -69 -55 -66 -57 3 -3 64 38 136 90 101 74 131 91 131 77 0
-12 -18 -30 -45 -48 -25 -15 -45 -31 -45 -35 0 -3 -20 -19 -45 -35 -25 -15
-45 -31 -45 -35 0 -13 7 -10 62 26 65 41 98 58 98 52 0 -3 -20 -17 -45 -32
-25 -14 -48 -32 -53 -38 -4 -7 -28 -25 -54 -40 -27 -16 -48 -29 -48 -31 0 -2
39 14 86 36 95 44 129 46 40 2 -62 -30 -57 -51 6 -26 21 9 41 13 44 10 3 -3
-17 -14 -45 -24 -28 -10 -51 -21 -51 -25 0 -4 15 -11 33 -16 l32 -9 -48 -13
c-54 -14 -74 -33 -31 -29 16 2 34 0 40 -3 5 -4 27 -3 47 2 55 12 48 -14 -8
-31 -55 -16 -58 -29 -7 -29 63 -1 13 -19 -72 -27 -42 -3 -76 -10 -76 -14 0 -5
52 -9 115 -9 70 0 115 -4 115 -10 0 -6 -38 -10 -94 -10 -53 0 -98 -4 -101 -10
-4 -6 19 -10 62 -11 68 -1 68 -1 30 -12 -53 -16 -37 -27 40 -27 35 0 63 -4 63
-10 0 -6 -29 -10 -68 -10 -93 0 -158 -31 -97 -46 14 -3 25 -10 25 -15 0 -5 32
-9 70 -9 56 0 70 -3 70 -15 0 -12 -15 -15 -79 -15 -44 0 -83 -4 -86 -10 -4 -6
-85 -10 -208 -10 -186 -1 -199 -2 -168 -15 25 -11 75 -15 196 -15 89 0 204 -3
255 -7 83 -5 90 -7 69 -19 -13 -7 -49 -14 -79 -14 -67 -1 -211 -32 -210 -45 0
-6 54 -10 133 -11 153 -1 160 -1 153 -13 -3 -4 -33 -11 -67 -15 -63 -7 -109
-23 -109 -38 0 -11 47 -10 87 1 18 5 35 6 38 1 3 -4 -7 -11 -20 -14 -14 -4
-23 -11 -20 -17 4 -5 15 -7 26 -4 44 14 10 -30 -46 -58 -41 -21 -80 -56 -71
-64 4 -4 28 1 54 11 53 21 123 38 128 33 2 -2 -38 -22 -89 -45 -90 -41 -117
-67 -117 -109 0 -21 18 -16 96 28 41 22 78 38 84 34 5 -3 19 -1 30 5 34 18 23
-7 -13 -29 -18 -11 -42 -30 -53 -44 -11 -13 -78 -63 -147 -111 -90 -61 -127
-93 -127 -106 0 -28 16 -25 62 11 21 17 41 29 44 26 3 -3 -49 -47 -115 -99
-88 -68 -121 -99 -121 -115 0 -12 -12 -31 -26 -42 -25 -19 -25 -21 -6 -21 42
0 73 22 247 174 98 86 180 154 183 152 2 -3 -34 -42 -81 -87 -80 -76 -118
-131 -103 -146 4 -4 40 26 81 67 41 41 75 70 75 65 0 -5 16 6 35 25 19 19 35
29 35 23 0 -5 -67 -82 -150 -169 -101 -108 -149 -166 -150 -182 0 -21 2 -22
19 -10 11 8 77 79 147 158 136 156 184 206 184 195 0 -7 -22 -38 -71 -98 -47
-58 -112 -158 -106 -164 3 -3 25 14 47 38 l42 44 -41 -56 c-44 -61 -48 -69
-28 -69 8 0 39 35 69 78 62 86 88 113 88 92 0 -8 -6 -21 -14 -29 -21 -26 -156
-228 -156 -235 0 -18 27 15 95 117 41 62 75 107 75 102 0 -6 -11 -27 -25 -47
-14 -20 -25 -44 -25 -52 0 -8 -41 -79 -91 -157 -103 -162 -141 -232 -116 -210
9 7 43 55 74 107 32 52 62 94 66 94 5 0 0 -16 -12 -36 -23 -38 -28 -58 -8 -33
7 8 30 25 52 38 33 18 49 40 95 126 36 68 64 109 83 120 16 9 30 15 31 13 2
-1 -34 -82 -80 -178 -45 -96 -83 -178 -83 -183 -2 -15 55 22 90 60 24 25 49
72 75 136 21 54 46 103 56 108 9 5 29 30 44 55 14 25 28 43 30 41 2 -2 -10
-45 -26 -96 -17 -52 -30 -98 -30 -103 0 -5 13 -2 29 8 29 17 61 62 61 86 0 12
59 53 66 46 1 -2 -4 -37 -12 -78 -18 -94 -18 -88 10 -85 14 2 41 19 61 39 l36
37 9 142 c5 78 10 148 10 154 0 12 62 57 95 69 9 4 15 -9 20 -46 7 -51 7 -51
31 -36 23 16 23 15 30 -22 4 -20 9 -41 11 -45 4 -6 71 26 100 48 2 1 -11 36
-27 79 -35 91 -34 82 -15 90 10 4 21 -7 35 -34 22 -43 32 -47 70 -25 35 20 36
20 61 -22 12 -21 24 -40 25 -41 1 -2 16 4 33 14 l31 18 -25 42 c-14 24 -25 53
-25 66 0 13 -6 30 -12 37 -11 10 -9 15 6 27 31 22 44 17 66 -26 11 -22 25 -40
31 -40 20 0 49 21 49 35 0 8 9 19 21 25 l20 11 -21 35 c-22 38 -20 48 10 64
16 8 22 4 41 -30 13 -22 28 -40 34 -40 7 0 28 15 47 33 20 17 45 40 57 49 12
11 18 24 15 33 -4 9 1 22 12 30 26 20 31 19 48 -12 31 -58 30 -57 80 -28 l45
27 -17 26 c-12 18 -13 27 -4 30 6 2 21 11 33 21 21 17 21 18 5 50 -20 37 -13
52 35 71 23 10 33 10 42 1 6 -6 21 -11 33 -11 12 0 27 -7 34 -15 10 -12 15
-12 38 2 15 9 28 18 30 19 1 1 -3 13 -9 27 -9 21 -9 30 1 42 18 22 67 19 80
-5 9 -16 15 -18 30 -10 15 8 22 3 45 -35 27 -47 31 -48 79 -12 18 13 16 18
-39 111 -31 54 -55 99 -53 100 50 38 50 38 80 -9 16 -26 36 -45 46 -45 10 0
26 -13 35 -30 10 -16 23 -30 28 -30 9 0 48 17 58 26 2 1 -11 27 -28 57 -18 32
-29 62 -25 71 9 22 19 20 32 -8 7 -17 19 -24 39 -24 33 0 66 15 58 27 -3 5 2
12 11 15 13 5 11 14 -16 60 l-31 54 23 16 c12 9 27 16 33 16 5 0 24 -27 42
-59 31 -57 33 -58 75 -59 52 -1 98 15 98 35 0 7 7 16 16 20 8 3 13 12 10 19
-3 7 4 20 16 28 11 8 26 25 32 38 10 20 8 30 -16 72 -16 27 -28 49 -26 51 62
44 73 44 94 4 9 -17 31 -46 49 -64 31 -31 34 -33 55 -18 12 9 25 11 30 7 5 -5
54 -87 109 -183 l100 -174 37 75 37 76 -93 161 c-51 89 -90 164 -87 167 3 4
-7 30 -24 59 -33 59 -30 65 39 65 64 0 80 -10 113 -67 19 -33 36 -52 44 -49 7
2 16 -2 19 -10 3 -9 10 -13 15 -10 5 4 24 -7 42 -23 25 -23 36 -28 50 -21 14
8 17 21 15 67 -2 46 -11 71 -39 118 -27 46 -32 62 -22 67 7 5 11 17 8 28 -3
11 -1 20 4 20 5 0 17 17 27 37 l18 37 40 -73 c54 -97 102 -114 134 -46 9 18 7
30 -12 61 -29 48 -29 48 0 62 21 9 27 8 40 -11 l16 -22 24 29 c13 15 22 36 19
45 -9 38 116 70 141 36 13 -18 112 -28 137 -14 28 15 31 54 8 94 -16 26 -19
39 -11 47 8 8 8 17 1 29 -7 14 -5 28 7 50 18 36 17 38 78 -73 21 -38 40 -68
42 -68 3 0 19 7 36 16 22 11 33 13 38 5 11 -19 96 35 111 70 11 29 10 36 -20
91 l-33 59 36 32 c26 24 33 36 26 47 -14 22 -13 25 26 43 41 20 48 17 70 -24
15 -30 16 -30 41 -14 13 9 26 15 27 13 2 -2 31 -52 66 -113 35 -60 64 -111 65
-113 7 -8 86 40 95 59 9 16 7 27 -10 57 -20 34 -21 37 -4 49 9 7 20 10 24 8 4
-3 33 -50 65 -105 31 -55 60 -100 64 -100 3 0 20 9 36 20 30 20 30 20 45 0 15
-20 17 -18 46 42 l31 63 -74 130 c-41 72 -84 144 -94 162 l-20 32 29 15 c28
14 29 14 46 -15 9 -16 21 -27 26 -24 5 3 19 -13 30 -35 20 -39 22 -41 58 -34
45 8 84 27 102 49 12 14 9 25 -20 77 l-33 61 26 19 c25 18 26 21 11 43 -19 28
-13 40 28 61 38 20 33 25 120 -129 l60 -108 52 30 c28 16 50 35 48 42 -2 7 2
15 9 19 8 5 -11 46 -60 129 -72 124 -79 141 -60 141 6 0 8 9 4 20 -5 15 0 23
20 32 24 11 29 10 42 -7 8 -11 20 -19 27 -17 7 1 18 -9 24 -23 6 -14 20 -25
30 -25 10 0 22 -3 26 -7 22 -22 76 -6 113 34 22 23 22 25 6 50 -16 24 -16 26
2 39 21 15 35 18 35 7 0 -5 9 -18 18 -31 l18 -24 37 22 c20 12 37 26 37 31 0
5 16 19 35 30 19 12 35 24 35 28 0 3 -22 24 -50 46 -34 27 -46 43 -40 50 6 7
7 14 4 18 -3 3 16 18 41 33 l47 27 77 -38 c88 -44 122 -50 160 -31 28 15 38
48 18 64 -7 5 -42 20 -79 33 -38 13 -68 27 -68 30 0 4 13 12 30 19 22 9 37 9
61 1 27 -9 37 -7 75 15 l45 26 143 -26 c81 -14 159 -23 178 -20 44 8 98 36 91
47 -3 5 0 13 7 17 7 5 -26 11 -76 15 -101 8 -131 18 -93 31 l24 8 -25 7 c-14
4 -60 7 -102 8 -51 1 -78 5 -78 12 0 9 43 10 158 7 158 -5 183 -1 190 30 1 9
-31 13 -130 14 l-133 2 130 3 129 4 -32 19 c-28 17 -51 20 -157 20 -114 0
-175 11 -175 30 0 4 71 13 158 20 86 7 177 16 202 20 l45 7 -45 21 c-70 32
-109 35 -219 18 -72 -12 -107 -13 -121 -6 -10 5 -43 10 -72 10 -71 0 -48 13
63 36 49 10 89 21 89 24 0 17 -58 35 -106 33 -38 -2 -58 2 -74 15 -22 18 -21
18 61 47 46 16 78 30 71 33 -7 2 -12 10 -12 18 0 7 -12 16 -27 20 -16 3 -40
10 -54 16 -23 8 -46 0 -168 -62 l-142 -71 -49 28 c-28 15 -50 31 -50 35 0 4
16 19 35 34 l36 27 -22 15 -22 16 33 28 c19 15 32 29 29 31 -2 3 -24 17 -48
32 l-45 28 -20 -25 c-12 -13 -37 -43 -56 -66 -25 -30 -39 -39 -49 -33 -11 7
-10 15 8 44 28 46 27 54 -13 78 l-34 20 24 43 24 43 -25 17 c-31 20 -38 17
-66 -34 -13 -22 -28 -40 -34 -40 -6 0 -18 -11 -25 -25 -12 -23 -14 -23 -42 -9
l-28 15 27 46 27 46 -24 19 c-13 11 -30 16 -42 12 -10 -3 -25 -1 -32 5 -11 9
-19 3 -38 -29 l-24 -41 -24 19 -24 19 23 39 c22 37 22 39 4 51 -10 8 -29 16
-43 19 -14 3 -36 11 -50 18 -25 14 -50 11 -61 -6 -7 -12 -49 12 -49 27 0 5 9
24 20 40 11 17 20 32 20 35 0 3 -20 16 -44 30 l-45 24 -18 -23 c-19 -23 -20
-23 -52 -7 -18 10 -34 16 -36 14 -1 -2 -10 -18 -19 -36 l-17 -33 -41 23 c-42
23 -44 27 -51 111 -1 19 -11 33 -27 42 -23 12 -27 11 -46 -12 -25 -31 -55 -25
-73 13 -9 20 -9 30 0 41 10 11 9 17 -4 30 -15 15 -14 20 9 59 l25 42 -36 22
c-20 12 -37 21 -39 19 -2 -2 -28 -48 -59 -101 l-57 -97 -30 17 -29 17 25 42
c19 32 22 48 15 61 -7 12 -4 25 9 47 21 33 17 46 -19 65 -26 14 -27 13 -61
-51 -18 -34 -46 -56 -58 -44 -3 3 1 16 8 30 11 20 11 27 0 40 -7 8 -9 15 -4
15 20 1 -33 25 -58 26 -23 1 -33 -7 -58 -47 l-30 -49 -30 15 -31 16 36 63 36
64 -31 46 c-17 25 -36 48 -41 52 -17 10 -74 11 -80 1 -4 -5 -17 -2 -32 7 -15
10 -28 13 -31 7 -3 -5 -14 -7 -24 -5 -12 4 -25 -9 -45 -46 -30 -53 -33 -53
-81 -17 -18 13 -18 15 2 53 11 21 25 55 31 74 10 31 9 36 -14 55 l-25 20 100
172 c55 95 100 176 100 180 0 11 -142 3 -156 -8 -7 -5 -47 -71 -90 -147 -44
-75 -90 -149 -105 -164 -14 -15 -34 -43 -45 -63 -11 -20 -25 -34 -34 -33 -8 2
-28 28 -44 58 l-29 55 31 51 c29 50 37 102 18 116 -6 4 -6 11 1 20 16 21 10
70 -10 82 -14 9 -20 7 -28 -6 -6 -10 -17 -18 -24 -18 -8 0 -15 -4 -15 -10 0
-5 -7 -10 -15 -10 -8 0 -31 -29 -52 -65 -24 -43 -42 -64 -51 -60 -8 3 -19 2
-25 -2 -7 -4 -33 -8 -60 -9 l-47 -1 26 46 c15 25 35 60 46 78 12 20 15 34 8
38 -6 3 -8 10 -5 15 7 11 -46 44 -54 34 -3 -5 -13 -9 -21 -9 -8 0 -24 -17 -35
-37 -22 -41 -31 -45 -60 -24 -17 12 -17 16 -6 30 10 12 11 20 4 27 -17 17 -63
18 -72 2 -7 -13 -14 -11 -48 10 -38 24 -60 60 -62 102 -2 69 -32 115 -79 121
-27 3 -34 -1 -54 -37 -15 -27 -28 -39 -39 -36 -9 2 -21 -4 -28 -14 -7 -13 -23
-19 -46 -19 l-34 0 50 87 c52 90 52 88 6 114 -10 6 -16 17 -13 24 7 18 -77 65
-115 65 -29 0 -36 -7 -94 -105 -9 -14 -17 -15 -55 -6 -35 8 -48 7 -60 -4 -14
-12 -20 -12 -48 5 -35 22 -39 35 -17 64 20 27 19 43 -5 51 -11 3 -20 12 -20
18 0 7 29 61 65 121 l64 110 -37 23 c-56 34 -89 31 -109 -12 -19 -39 -22 -40
-46 -22 -16 11 -12 21 43 116 55 96 59 105 42 117 -9 7 -19 14 -22 14 -3 0
-11 4 -19 9 -10 7 -11 13 -1 31 l12 23 -73 -7 c-41 -4 -74 -8 -75 -9 -5 -10
-178 -313 -179 -315 -4 -5 -55 21 -55 27 1 3 7 17 14 30 8 14 12 30 9 37 -2 6
6 27 17 47 l22 37 -22 27 c-24 31 -75 62 -102 63 -10 0 -28 -19 -44 -47 -43
-76 -43 -76 -72 -57 -24 16 -26 16 -38 -1 -7 -10 -15 -22 -17 -28 -4 -12 -35
-2 -64 21 l-22 17 69 120 c39 66 70 123 70 126 0 14 -87 57 -112 56 -23 -2
-36 -18 -96 -122 -41 -70 -76 -120 -85 -120 -9 0 -19 -4 -23 -8 -11 -11 -28
-9 -48 6 -15 11 -16 17 -7 35 7 13 8 23 1 27 -6 4 -4 17 6 37 11 20 12 34 6
40 -6 6 -8 16 -6 23 3 7 1 16 -5 19 -6 4 -8 13 -5 20 5 13 -25 29 -78 40 -21
5 -30 0 -45 -20 -17 -23 -22 -25 -40 -13 -20 12 -20 14 -5 47 16 32 16 35 -3
48 -11 8 -31 17 -45 20 -14 2 -42 13 -62 23 -21 11 -40 16 -42 12 -3 -4 -8
-31 -12 -60 -9 -71 -36 -83 -100 -45 l-44 26 0 82 c0 54 -5 94 -15 113 -19 37
-58 57 -86 43 -22 -12 -22 -14 -5 -105 8 -38 12 -72 10 -74 -11 -11 -55 34
-65 67 -8 30 -21 43 -54 61 -42 22 -44 25 -90 159 -27 75 -59 150 -73 167 -33
40 -105 85 -86 53 5 -8 2 -9 -9 -5 -19 7 -17 3 32 -105 32 -71 32 -74 0 -58
-10 6 -19 8 -19 5 0 -3 21 -46 46 -96 25 -50 39 -89 32 -87 -7 2 -43 62 -79
133 -64 123 -96 164 -118 151 -8 -5 42 -104 117 -230 3 -5 0 -6 -6 -2 -6 4
-28 36 -48 72 -20 36 -38 63 -41 60 -3 -2 14 -36 37 -76 24 -39 41 -73 38 -75
-2 -2 -55 81 -117 185 -105 175 -121 200 -121 185z m211 -512 c13 -16 12 -17
-3 -4 -10 7 -18 15 -18 17 0 8 8 3 21 -13z m785 -855 c126 -72 409 -236 629
-362 220 -127 1092 -629 1938 -1116 845 -487 1537 -887 1537 -890 0 -3 -321
-189 -712 -415 -392 -225 -823 -474 -958 -551 -135 -78 -789 -455 -1454 -838
-665 -383 -1213 -696 -1218 -696 -4 0 -8 311 -8 690 l0 690 -3020 0 -3020 0 0
1120 0 1120 3020 0 3020 0 0 690 c0 380 4 690 8 690 5 0 112 -59 238 -132z
m-1018 -165 c-10 -2 -28 -2 -40 0 -13 2 -5 4 17 4 22 1 32 -1 23 -4z"/>
<path d="M6500 7357 c0 -15 31 -69 37 -63 3 3 -4 20 -16 38 -11 18 -21 29 -21
25z"/>
</g>
</svg>
