<?xml version="1.0" standalone="no"?>
<!DOCTYPE svg PUBLIC "-//W3C//DTD SVG 20010904//EN"
 "http://www.w3.org/TR/2001/REC-SVG-20010904/DTD/svg10.dtd">
<svg version="1.0" xmlns="http://www.w3.org/2000/svg"
 width="824.000000pt" height="1280.000000pt" viewBox="0 0 824.000000 1280.000000"
 preserveAspectRatio="xMidYMid meet">
<metadata>
Created by potrace 1.15, written by Peter Selinger 2001-2017
</metadata>
<g transform="translate(0.000000,1280.000000) scale(0.100000,-0.100000)"
fill="#000000" stroke="none">
<path d="M2834 11943 l-662 -3 -6 -643 c-3 -353 -11 -1459 -16 -2456 -6 -998
-12 -1816 -14 -1818 -1 -2 -43 15 -92 38 -204 95 -2020 931 -2031 936 -10 4
-13 -25 -13 -127 l0 -132 1509 -2551 c829 -1404 1690 -2860 1913 -3237 710
-1203 803 -1359 809 -1360 8 0 -44 -95 1059 1945 455 842 1213 2243 1685 3115
472 872 949 1755 1061 1962 l204 376 0 141 c0 78 -2 141 -4 141 -2 0 -460
-263 -1017 -585 -557 -322 -1017 -585 -1021 -585 -4 0 -8 1089 -8 2420 l0
2420 -187 0 c-104 0 -710 2 -1348 3 -638 2 -1458 2 -1821 0z"/>
</g>
</svg>
