<?xml version="1.0" standalone="no"?>
<!DOCTYPE svg PUBLIC "-//W3C//DTD SVG 20010904//EN"
 "http://www.w3.org/TR/2001/REC-SVG-20010904/DTD/svg10.dtd">
<svg version="1.0" xmlns="http://www.w3.org/2000/svg"
 width="1253.000000pt" height="1280.000000pt" viewBox="0 0 1253.000000 1280.000000"
 preserveAspectRatio="xMidYMid meet">
<metadata>
Created by potrace 1.15, written by Peter Selinger 2001-2017
</metadata>
<g transform="translate(0.000000,1280.000000) scale(0.100000,-0.100000)"
fill="#000000" stroke="none">
<path d="M3687 12793 c-3 -5 -301 -516 -662 -1138 -362 -621 -1182 -2030
-1823 -3130 -641 -1100 -1165 -2004 -1165 -2010 0 -5 326 -595 725 -1310 399
-715 931 -1669 1182 -2120 252 -451 742 -1330 1089 -1952 l632 -1133 187 0
188 0 0 913 c0 503 3 1280 7 1727 l6 813 4232 -8 4232 -7 8 2941 c4 1618 6
2944 3 2946 -2 2 -1722 6 -3823 10 -2101 3 -4006 8 -4233 11 l-413 6 3 1724 3
1724 -187 0 c-103 0 -189 -3 -191 -7z m-98 -2520 l-4 -1398 990 -3 c545 -1
2450 -6 4234 -10 l3244 -7 -2 -2465 c-1 -1356 -5 -2468 -9 -2472 -4 -4 -1792
-3 -3972 2 -2181 5 -4085 10 -4232 10 l-268 0 -2 -1389 -3 -1389 -840 1506
c-462 829 -1134 2033 -1493 2677 -358 643 -650 1176 -647 1184 3 7 573 988
1267 2180 1752 3010 1730 2971 1736 2971 2 0 3 -629 1 -1397z"/>
</g>
</svg>
