<?xml version="1.0" standalone="no"?>
<!DOCTYPE svg PUBLIC "-//W3C//DTD SVG 20010904//EN"
 "http://www.w3.org/TR/2001/REC-SVG-20010904/DTD/svg10.dtd">
<svg version="1.0" xmlns="http://www.w3.org/2000/svg"
 width="1280.000000pt" height="974.000000pt" viewBox="0 0 1280.000000 974.000000"
 preserveAspectRatio="xMidYMid meet">
<metadata>
Created by potrace 1.15, written by Peter Selinger 2001-2017
</metadata>
<g transform="translate(0.000000,974.000000) scale(0.100000,-0.100000)"
fill="#000000" stroke="none">
<path d="M1305 9733 c-352 -43 -631 -178 -875 -422 -213 -213 -335 -438 -402
-741 l-23 -105 0 -3595 0 -3595 23 -105 c67 -302 190 -529 402 -740 211 -212
438 -335 740 -402 l105 -23 5125 0 5125 0 105 23 c302 67 529 190 740 402 212
211 335 438 402 740 l23 105 0 3595 0 3595 -23 105 c-67 303 -189 528 -402
741 -209 210 -433 332 -735 402 l-90 21 -5105 2 c-2808 0 -5118 -1 -5135 -3z
m10118 -414 c259 -22 478 -123 655 -301 125 -124 213 -272 269 -453 l28 -90 0
-3605 0 -3605 -28 -88 c-60 -191 -145 -334 -279 -463 -130 -127 -260 -203
-445 -261 l-88 -28 -5135 0 -5135 0 -88 28 c-185 58 -315 134 -445 261 -134
129 -219 272 -279 463 l-28 88 0 3605 0 3605 28 90 c56 181 144 329 269 453
172 173 399 280 638 301 144 13 9918 13 10063 0z"/>
<path d="M1280 4805 l0 -3505 655 0 655 0 0 1465 0 1465 514 0 c645 0 832 14
1104 80 668 163 1101 577 1280 1225 77 276 107 534 98 860 -12 488 -101 866
-278 1178 -247 436 -630 674 -1167 727 -65 6 -617 10 -1482 10 l-1379 0 0
-3505z m2330 2452 c220 -37 329 -84 431 -186 144 -144 200 -346 200 -717 1
-169 -1 -199 -23 -339 -25 -172 -94 -346 -182 -462 -120 -158 -314 -254 -571
-283 -49 -5 -267 -10 -482 -10 l-393 0 0 1011 0 1011 463 -5 c358 -3 483 -8
557 -20z"/>
<path d="M10315 7445 c-220 -41 -679 -124 -1020 -185 -545 -99 -629 -116 -691
-145 -77 -35 -146 -91 -171 -138 -22 -44 -13 -117 21 -161 56 -74 229 -177
401 -241 55 -20 102 -39 105 -41 2 -3 -286 -295 -640 -649 l-645 -645 398
-398 397 -397 646 646 c457 457 647 641 651 630 46 -145 145 -344 212 -427
109 -134 211 -133 313 1 21 28 48 75 59 105 12 32 94 457 194 1010 95 525 179
990 187 1033 13 70 13 77 -1 76 -9 0 -196 -34 -416 -74z"/>
<path d="M11097 3319 c-224 -24 -381 -131 -447 -307 -62 -162 -85 -429 -77
-872 5 -291 13 -378 42 -494 66 -258 253 -389 560 -390 111 -1 124 1 181 27
75 35 143 102 183 182 l31 60 0 -112 0 -113 140 0 140 0 0 530 0 530 -310 0
-310 0 0 -145 0 -145 132 0 131 0 -6 -112 c-15 -277 -104 -408 -274 -408 -144
1 -226 92 -252 284 -16 116 -14 842 3 936 23 127 61 191 140 233 65 34 175 31
252 -8 79 -41 110 -99 126 -238 l11 -97 184 0 185 0 -7 98 c-15 227 -92 385
-229 474 -78 50 -164 75 -301 88 -120 11 -116 11 -228 -1z"/>
<path d="M4212 2978 c-39 -167 -137 -577 -217 -913 -81 -335 -154 -645 -164
-687 l-18 -78 197 0 198 0 48 250 49 250 218 0 c119 0 217 -2 217 -5 0 -2 20
-107 45 -232 25 -125 45 -236 45 -245 0 -17 16 -18 200 -18 110 0 200 2 200 5
0 3 -43 195 -96 428 -52 232 -147 649 -210 927 -62 278 -120 530 -127 560
l-13 55 -250 3 -250 2 -72 -302z m342 -136 c13 -106 94 -593 122 -724 l6 -28
-160 0 -159 0 44 218 c64 317 89 470 104 622 15 152 15 151 43 -88z"/>
<path d="M5380 2291 l0 -991 185 0 185 0 0 425 0 425 116 0 c127 0 245 -15
286 -36 14 -7 36 -26 47 -40 41 -52 50 -116 60 -399 5 -148 15 -294 22 -322
l12 -53 204 0 c150 0 203 3 203 12 0 6 -9 31 -21 55 -31 65 -48 202 -57 478
-8 227 -11 255 -32 302 -37 87 -111 142 -225 169 l-30 7 38 8 c90 21 170 86
211 174 50 104 70 288 45 419 -31 169 -126 270 -303 325 -80 24 -87 25 -513
29 l-433 4 0 -991z m776 670 c55 -31 84 -85 92 -169 14 -129 -9 -223 -67 -285
-51 -56 -72 -61 -258 -65 l-173 -4 0 277 0 277 183 -4 c170 -3 185 -5 223 -27z"/>
<path d="M6948 2290 l-3 -990 188 0 188 0 -1 285 -1 285 59 98 c32 53 62 97
66 97 4 0 84 -172 178 -382 l171 -383 208 0 208 0 -23 53 c-13 28 -101 223
-196 432 -95 209 -199 439 -232 512 l-60 131 237 411 c130 227 238 418 242
426 5 13 -22 15 -202 13 l-207 -3 -100 -185 c-156 -289 -295 -560 -318 -620
-12 -30 -24 -58 -28 -62 -4 -4 -7 190 -7 430 l0 437 -182 3 -183 2 -2 -990z"/>
<path d="M8360 2290 l0 -990 185 0 185 0 0 990 0 990 -185 0 -185 0 0 -990z"/>
<path d="M9040 2290 l0 -990 186 0 187 0 -6 438 c-4 286 -13 532 -26 712 -20
263 -24 347 -16 325 2 -5 27 -89 55 -185 29 -96 75 -238 102 -315 40 -112 262
-668 369 -922 l22 -53 193 0 194 0 0 990 0 990 -186 0 -187 0 6 -427 c3 -236
13 -522 21 -638 8 -115 17 -262 21 -325 l5 -115 -40 135 c-79 263 -144 440
-327 903 l-186 467 -194 0 -193 0 0 -990z"/>
</g>
</svg>
