<?xml version="1.0" standalone="no"?>
<!DOCTYPE svg PUBLIC "-//W3C//DTD SVG 20010904//EN"
 "http://www.w3.org/TR/2001/REC-SVG-20010904/DTD/svg10.dtd">
<svg version="1.0" xmlns="http://www.w3.org/2000/svg"
 width="1280.000000pt" height="1280.000000pt" viewBox="0 0 1280.000000 1280.000000"
 preserveAspectRatio="xMidYMid meet">
<metadata>
Created by potrace 1.15, written by Peter Selinger 2001-2017
</metadata>
<g transform="translate(0.000000,1280.000000) scale(0.100000,-0.100000)"
fill="#000000" stroke="none">
<path d="M5995 12791 c-11 -5 -67 -11 -125 -15 -177 -11 -414 -43 -705 -96
-186 -34 -542 -126 -755 -197 -1022 -336 -1924 -911 -2675 -1704 -403 -425
-785 -970 -1045 -1489 -341 -682 -550 -1366 -641 -2105 -37 -305 -43 -398 -43
-785 0 -418 11 -575 64 -940 139 -966 525 -1932 1089 -2730 810 -1146 1932
-1979 3251 -2413 213 -71 569 -163 755 -197 287 -52 374 -64 685 -97 219 -23
881 -23 1100 0 257 27 393 45 543 72 177 31 204 36 262 50 239 55 250 58 365
90 125 35 174 50 270 82 1197 392 2254 1132 3041 2128 96 122 121 157 239 325
541 773 924 1744 1060 2690 53 365 64 522 64 940 0 387 -6 480 -43 785 -105
848 -376 1662 -800 2399 -790 1373 -2060 2407 -3561 2899 -96 32 -145 47 -270
82 -115 32 -126 35 -365 90 -131 31 -382 73 -570 96 -290 36 -407 42 -780 45
-214 2 -399 -1 -410 -5z m-335 -3968 c48 -22 193 -164 1086 -1057 836 -836
1036 -1040 1055 -1081 34 -72 37 -163 9 -240 -22 -58 -56 -93 -1049 -1088
-564 -565 -1046 -1041 -1071 -1057 -252 -161 -567 117 -439 388 17 37 222 248
925 952 497 498 904 910 904 915 0 6 -407 417 -905 915 -1006 1006 -950 942
-949 1080 1 88 24 147 85 209 93 97 225 121 349 64z"/>
</g>
</svg>
