<?xml version="1.0" standalone="no"?>
<!DOCTYPE svg PUBLIC "-//W3C//DTD SVG 20010904//EN"
 "http://www.w3.org/TR/2001/REC-SVG-20010904/DTD/svg10.dtd">
<svg version="1.0" xmlns="http://www.w3.org/2000/svg"
 width="847.000000pt" height="1280.000000pt" viewBox="0 0 847.000000 1280.000000"
 preserveAspectRatio="xMidYMid meet">
<metadata>
Created by potrace 1.15, written by Peter Selinger 2001-2017
</metadata>
<g transform="translate(0.000000,1280.000000) scale(0.100000,-0.100000)"
fill="#000000" stroke="none">
<path d="M815 12340 c-434 -253 -794 -461 -798 -463 -5 -1 337 -601 759 -1332
1019 -1766 2377 -4137 2377 -4150 0 -11 -1165 -2038 -2378 -4140 -425 -737
-772 -1342 -769 -1344 7 -8 1598 -910 1600 -908 1 1 347 601 769 1332 923
1601 1838 3174 1846 3175 16 0 1188 -1986 1874 -3175 422 -731 768 -1331 769
-1332 6 -6 1601 909 1599 917 -4 16 -1467 2549 -2353 4074 l-812 1399 15 31
c8 17 376 654 817 1416 1432 2474 2313 4002 2314 4018 1 10 -259 166 -788 474
-434 252 -792 458 -795 458 -6 0 -1481 -2555 -1530 -2649 -13 -25 -264 -462
-559 -969 -445 -768 -537 -921 -545 -905 -6 10 -252 434 -547 943 -295 509
-880 1521 -1300 2250 -420 729 -766 1328 -769 1332 -3 4 -361 -200 -796 -452z"/>
</g>
</svg>
