<?xml version="1.0" standalone="no"?>
<!DOCTYPE svg PUBLIC "-//W3C//DTD SVG 20010904//EN"
 "http://www.w3.org/TR/2001/REC-SVG-20010904/DTD/svg10.dtd">
<svg version="1.0" xmlns="http://www.w3.org/2000/svg"
 width="1212.000000pt" height="1280.000000pt" viewBox="0 0 1212.000000 1280.000000"
 preserveAspectRatio="xMidYMid meet">
<metadata>
Created by potrace 1.15, written by Peter Selinger 2001-2017
</metadata>
<g transform="translate(0.000000,1280.000000) scale(0.100000,-0.100000)"
fill="#000000" stroke="none">
<path d="M5077 11760 c-390 -606 -673 -1037 -680 -1035 -7 2 -199 45 -427 95
-228 50 -801 177 -1274 281 -472 105 -860 188 -862 186 -2 -2 126 -574 284
-1271 199 -871 285 -1269 278 -1275 -6 -4 -507 -317 -1113 -695 -607 -379
-1103 -691 -1103 -695 0 -3 476 -303 1057 -666 582 -363 1083 -676 1114 -696
l57 -37 -24 -99 c-64 -271 -554 -2436 -552 -2438 3 -3 282 58 1758 384 448 99
818 177 822 173 4 -4 322 -497 708 -1097 386 -599 703 -1089 706 -1088 3 1
320 492 706 1090 385 598 703 1091 706 1095 4 4 187 -33 407 -82 220 -48 751
-166 1180 -260 429 -94 827 -182 885 -195 58 -13 106 -22 108 -20 2 1 -126
567 -283 1257 -157 689 -285 1261 -285 1270 0 12 354 238 1110 710 610 381
1110 696 1110 699 0 4 -496 316 -1102 695 -607 378 -1108 691 -1114 695 -7 6
80 406 278 1275 158 697 286 1269 284 1271 -2 2 -390 -81 -862 -186 -473 -104
-1046 -231 -1274 -281 -228 -50 -420 -93 -427 -95 -7 -2 -290 429 -680 1035
l-668 1040 -80 0 -80 0 -668 -1040z"/>
</g>
</svg>
